<svg width="16" height="16" viewBox="0 0 16 16" fill="none" xmlns="http://www.w3.org/2000/svg">
<path d="M13.4004 14.796C13.5595 14.796 13.7121 14.8592 13.8247 14.9717C13.9372 15.0843 14.0004 15.2369 14.0004 15.396C14.0004 15.5551 13.9372 15.7077 13.8247 15.8203C13.7121 15.9328 13.5595 15.996 13.4004 15.996L3.00039 15.9992C2.84126 15.9992 2.68865 15.936 2.57613 15.8235C2.4636 15.7109 2.40039 15.5583 2.40039 15.3992C2.40039 15.2401 2.4636 15.0875 2.57613 14.9749C2.68865 14.8624 2.84126 14.7992 3.00039 14.7992L13.4004 14.796ZM8.11879 0.00559998L8.20039 0C8.34538 6.11432e-06 8.48546 0.0525141 8.59474 0.147814C8.70401 0.243113 8.77507 0.374757 8.79479 0.5184L8.80039 0.6L8.79959 11.548L11.7772 8.572C11.8788 8.47039 12.0135 8.4086 12.1568 8.39789C12.3 8.38717 12.4424 8.42823 12.558 8.5136L12.626 8.572C12.7275 8.67369 12.7891 8.80843 12.7997 8.95171C12.8103 9.095 12.7691 9.23732 12.6836 9.3528L12.6252 9.42L8.62759 13.4176C8.526 13.5192 8.39132 13.581 8.24803 13.5917C8.10474 13.6024 7.96237 13.5614 7.84679 13.476L7.77879 13.4176L3.77639 9.4208C3.66876 9.31387 3.60563 9.17015 3.59971 9.01855C3.5938 8.86695 3.64553 8.71873 3.7445 8.60374C3.84346 8.48875 3.98232 8.41553 4.13311 8.3988C4.2839 8.38207 4.43543 8.42309 4.55719 8.5136L4.62439 8.5712L7.59959 11.5424L7.60039 0.6C7.6004 0.45501 7.6529 0.314926 7.7482 0.205655C7.8435 0.0963846 7.97515 0.0253186 8.11879 0.00559998L8.20039 0L8.11879 0.00559998Z" fill="#363B46"/>
</svg>
