<svg width="16" height="16" viewBox="0 0 16 16" fill="none" xmlns="http://www.w3.org/2000/svg">
<path d="M13.7253 15.4922C14.1644 15.4922 14.5919 15.3283 14.9182 15.0307C15.283 14.698 15.4922 14.2238 15.4922 13.7302V11.3645C15.4922 10.4668 14.8222 9.7142 13.9338 9.61414C13.4109 9.55518 12.8916 9.44751 12.3901 9.29416C11.7624 9.10217 11.0863 9.2688 10.6259 9.72913L9.66733 10.6876C7.8316 9.68326 6.30084 8.1525 5.2966 6.31714L6.25525 5.35858C6.71558 4.89816 6.8822 4.22205 6.69012 3.59427C6.53677 3.09274 6.42911 2.57346 6.37015 2.05069C6.27017 1.16217 5.51761 0.492188 4.61984 0.492188H2.2543C1.76056 0.492188 1.28641 0.701386 0.953704 1.06622C0.619536 1.43243 0.454101 1.92618 0.499602 2.42065C0.655791 4.11804 1.10568 5.75693 1.83682 7.2919C2.54755 8.78421 3.50262 10.1355 4.67569 11.3086C5.84866 12.4816 7.20007 13.4368 8.69238 14.1475C10.2274 14.8785 11.8663 15.3285 13.5637 15.4848C13.6176 15.4898 13.6715 15.4922 13.7253 15.4922ZM11.8685 10.3878C11.9279 10.3878 11.9882 10.3967 12.0472 10.4148C12.6176 10.5893 13.2081 10.7117 13.8026 10.7787C14.0977 10.8119 14.3203 11.0638 14.3203 11.3645V13.7302C14.3203 13.8977 14.2521 14.0521 14.1283 14.1649C14.0032 14.2792 13.8408 14.3335 13.6712 14.3178C7.3016 13.7315 2.25284 8.68268 1.66653 2.31317C1.65088 2.14362 1.70526 1.9812 1.81943 1.85596C1.9324 1.73227 2.08676 1.66406 2.2543 1.66406H4.61984C4.92059 1.66406 5.17245 1.88663 5.20578 2.18179C5.2727 2.77625 5.39511 3.36676 5.56952 3.93713C5.63452 4.14954 5.57986 4.37668 5.4266 4.52994L3.8659 6.09064L4.05359 6.46793C5.22381 8.82001 7.16409 10.76 9.51663 11.9305L9.89392 12.1184L11.4545 10.5577C11.565 10.4472 11.7141 10.3878 11.8685 10.3878Z" fill="#565656"/>
</svg>
