<svg width="176" height="123" viewBox="0 0 176 123" fill="none" xmlns="http://www.w3.org/2000/svg">
<path d="M170.927 113.075C179.284 77.323 182.939 40.5897 181.795 3.8481C123.183 -4.26919 63.5527 0.489088 6.87947 17.8057L3.19458 19.0702C2.37935 19.3472 1.65469 19.849 1.10052 20.5204C0.546356 21.1918 0.184189 22.0068 0.0539398 22.8754C-0.0763092 23.744 0.0304108 24.6325 0.362366 25.443C0.694321 26.2535 1.23859 26.9545 1.93518 27.4687C15.3687 35.5808 44.6847 46.8423 87.9939 29.616L28.2425 53.4751C27.3811 53.8054 26.6274 54.3761 26.0669 55.1224C25.5065 55.8688 25.1618 56.7609 25.0719 57.6976C24.9821 58.6342 25.1507 59.5779 25.5586 60.4215C25.9665 61.265 26.5974 61.9748 27.3796 62.47C39.9269 70.2004 66.9806 80.6507 101.707 54.859C95.7368 59.2968 76.0529 73.5168 63.5523 82.9651C62.8344 83.4987 62.2717 84.2219 61.9243 85.0573C61.5769 85.8927 61.458 86.8089 61.5801 87.7081C61.7023 88.6073 62.0609 89.4557 62.6178 90.1626C63.1746 90.8694 63.9088 91.4082 64.7417 91.7214C76.9159 96.3262 100.308 100.287 120.715 75.354C111.619 86.4962 104.389 95.3241 98.6987 102.291C98.1586 102.957 97.7955 103.754 97.6443 104.606C97.4931 105.457 97.559 106.334 97.8356 107.152C98.1122 107.969 98.5902 108.7 99.2235 109.274C99.8567 109.848 100.624 110.245 101.451 110.427C114.581 113.576 130.627 108.471 140.655 88.7867L129.157 111.334C128.748 112.123 128.552 113.01 128.59 113.903C128.628 114.796 128.899 115.663 129.375 116.413C129.851 117.162 130.514 117.768 131.296 118.167C132.078 118.566 132.95 118.744 133.822 118.682C143.011 118.396 153.273 113.171 158.543 96.2546C156.351 102.577 154.579 109.735 152.876 116.01C152.658 116.846 152.653 117.725 152.862 118.563C153.071 119.402 153.487 120.171 154.069 120.798C154.652 121.426 155.382 121.889 156.19 122.145C156.998 122.402 157.856 122.441 158.683 122.261C161.288 121.827 163.755 120.768 165.883 119.172C168.011 117.575 169.74 115.486 170.927 113.075Z" fill="white"/>
</svg>
