<svg width="256" height="28" fill="none" xmlns="http://www.w3.org/2000/svg"><g clip-path="url(#clip0)"><path d="M13.43 13.866v8.754H9.696v-1.432a6.032 6.032 0 01-2.082 1.373 6.083 6.083 0 01-2.467.417c-1.556.008-2.805-.396-3.745-1.213A4.041 4.041 0 01.337 20.33 4.004 4.004 0 010 18.58a3.71 3.71 0 01.366-1.76 3.75 3.75 0 011.153-1.387c1.017-.768 2.383-1.154 4.107-1.154h3.738v-.652a2.516 2.516 0 00-.711-1.926 2.888 2.888 0 00-2.062-.669c-.7-.008-1.39.156-2.01.478a7.818 7.818 0 00-1.929 1.548l-2.11-2.475a8.146 8.146 0 012.9-2.26 8.227 8.227 0 013.607-.764c1.967 0 3.522.551 4.666 1.655 1.144 1.103 1.716 2.654 1.716 4.651zM9.367 17.11v-.179H6.172c-1.385 0-2.078.497-2.078 1.492a1.377 1.377 0 00.587 1.194c.455.308 1 .46 1.551.434a3.181 3.181 0 002.243-.82 2.726 2.726 0 00.892-2.12zm21.665-7.373a7.715 7.715 0 012.066 5.5 7.817 7.817 0 01-2.066 5.53 6.706 6.706 0 01-2.334 1.675 6.764 6.764 0 01-2.83.55c-1.875 0-3.36-.598-4.457-1.791V28h-4.067V7.87h3.738v1.85c1.026-1.44 2.621-2.16 4.786-2.16a6.81 6.81 0 012.822.531 6.76 6.76 0 012.342 1.645zm-2.061 5.53a4.09 4.09 0 00-1.085-2.932 3.925 3.925 0 00-2.72-1.133 3.928 3.928 0 00-2.746 1.074 4.032 4.032 0 00-1.069 2.98 4.081 4.081 0 001.07 2.996 3.59 3.59 0 002.696 1.09 3.69 3.69 0 002.753-1.134 4.002 4.002 0 001.1-2.94zM45.444 7.87v3.55h-1.085a4.174 4.174 0 00-2.934.982c-.715.655-1.073 1.61-1.073 2.865v7.365H36.29V7.87h3.734v1.759a4.998 4.998 0 011.813-1.455 5.05 5.05 0 012.282-.483c.448-.007.896.053 1.326.179zm1.383 7.365a7.1 7.1 0 01.565-2.976c.4-.941 1-1.786 1.757-2.48a8.287 8.287 0 015.669-2.235c2.109 0 4.138.8 5.669 2.236a7.163 7.163 0 011.764 2.477 7.1 7.1 0 01.57 2.978 7.098 7.098 0 01-.578 2.98 7.164 7.164 0 01-1.773 2.475 7.69 7.69 0 01-2.608 1.712 7.752 7.752 0 01-3.082.54 7.597 7.597 0 01-3.053-.54 7.536 7.536 0 01-2.574-1.712 7.214 7.214 0 01-1.754-2.48 7.151 7.151 0 01-.572-2.975zm10.738 2.893a3.945 3.945 0 001.11-2.86 4.056 4.056 0 00-1.102-2.894 3.891 3.891 0 00-5.526 0 4.07 4.07 0 00-1.085 2.909 3.943 3.943 0 001.085 2.86 3.94 3.94 0 005.526 0l-.008-.015zm7.061 1.997l2.05-2.443c1.282 1.33 2.68 1.99 4.183 1.99.477.02.951-.088 1.37-.315a1 1 0 00.531-.907.85.85 0 00-.317-.7 5.846 5.846 0 00-1.206-.645l-1.608-.652a8.805 8.805 0 01-3.102-1.894 3.667 3.667 0 01-.96-2.61 3.854 3.854 0 01.355-1.798 3.894 3.894 0 011.147-1.437c1.005-.796 2.33-1.194 3.975-1.194 1.001-.038 2 .14 2.925.52a6.949 6.949 0 012.436 1.684l-2.058 2.499a4.81 4.81 0 00-3.343-1.4c-1.065 0-1.608.35-1.608 1.042a.845.845 0 00.33.688c.381.262.796.472 1.234.625l1.446.597c1.487.597 2.56 1.233 3.215 1.91a3.604 3.604 0 01.981 2.594 4.083 4.083 0 01-.398 1.93 4.126 4.126 0 01-1.258 1.528 6.617 6.617 0 01-4.155 1.253c-2.663 0-4.718-.955-6.165-2.865zm24.635-.863v3.37a11.6 11.6 0 01-2.813.358c-1.907 0-3.38-.467-4.42-1.4-1.04-.934-1.55-2.316-1.532-4.147v-6.171H78.15V7.87h2.347V4.146h4.067V7.87h4.216v3.402h-4.216v5.813c0 .836.217 1.425.647 1.775.43.35 1.142.521 2.126.521.338 0 .981-.04 1.925-.12zm2.368-16.76a2.366 2.366 0 01.763-1.786A2.555 2.555 0 0194.23 0a2.615 2.615 0 011.852.716 2.348 2.348 0 01.772 1.786 2.3 2.3 0 01-.768 1.763 2.63 2.63 0 01-1.852.712 2.587 2.587 0 01-1.837-.712 2.348 2.348 0 01-.767-1.763zm.57 20.13V7.87h4.067v14.762H92.2zM109.468 7.87v3.55h-1.081a4.186 4.186 0 00-2.938.982c-.715.657-1.069 1.592-1.069 2.865v7.365h-4.067V7.87h3.734v1.759a4.993 4.993 0 011.813-1.455 5.046 5.046 0 012.282-.483c.449-.007.896.053 1.326.179z" fill="#000"/><path d="M112.93 7.894l13.973 6.724v1.194l-13.973 6.745V18.7l7.467-3.478-7.467-3.493V7.894z" fill="red"/><path d="M143.07 14.965v4.56h-1.161V15.12a2.108 2.108 0 00-.458-1.424 1.62 1.62 0 00-1.274-.53 1.86 1.86 0 00-1.338.53 1.809 1.809 0 00-.543 1.321v4.508h-1.162V15.12a2.054 2.054 0 00-.494-1.424 1.605 1.605 0 00-1.27-.537 1.776 1.776 0 00-1.346.545 1.95 1.95 0 00-.523 1.408v4.413h-1.161v-7.262h1.085v.764a2.776 2.776 0 012.186-.927 2.36 2.36 0 011.32.29c.402.223.728.558.939.963a2.893 2.893 0 012.512-1.253 2.536 2.536 0 011.961.776 2.99 2.99 0 01.727 2.089zm7.929.088v4.472h-1.097v-.94a3.333 3.333 0 01-4.32.545 1.81 1.81 0 01-.707-1.483 1.75 1.75 0 01.723-1.476 3.08 3.08 0 011.913-.553h2.315v-.625a1.846 1.846 0 00-.474-1.357 1.749 1.749 0 00-1.303-.477 2.667 2.667 0 00-1.204.327c-.369.203-.683.49-.917.838l-.772-.624c.302-.51.74-.93 1.266-1.21a3.285 3.285 0 011.716-.382 2.84 2.84 0 012.094.768 2.958 2.958 0 01.767 2.177zm-1.161 1.683v-.18h-2.182c-1.053 0-1.58.347-1.58 1.031a.974.974 0 00.43.844c.322.213.703.319 1.089.302a2.308 2.308 0 001.584-.58 1.82 1.82 0 00.659-1.417zm7.515-4.473v1.015h-.434a2.429 2.429 0 00-1.636.58 1.989 1.989 0 00-.671 1.553v4.114h-1.157v-7.262h1.085v1.03a2.677 2.677 0 012.275-1.089c.181-.001.362.019.538.06zm1.551 7.262V8.356h1.162v11.18l-1.162-.011zm2.681-4.07l3.464 4.07h-1.483l-3.38-4.086 3.055-3.184h1.531l-3.187 3.2zm11.112.791h-5.795a2.488 2.488 0 00.856 1.727 2.704 2.704 0 001.836.657 3.121 3.121 0 002.247-.983l.675.776a3.939 3.939 0 01-1.331.94 3.98 3.98 0 01-1.603.325 3.818 3.818 0 01-1.496-.266 3.782 3.782 0 01-1.269-.828 3.639 3.639 0 01-1.121-2.678 3.681 3.681 0 011.085-2.706 3.578 3.578 0 012.657-1.11 3.314 3.314 0 012.387.927 3.129 3.129 0 01.985 2.355 4.41 4.41 0 01-.113.864zm-5.751-1.014h4.658a2.005 2.005 0 00-.635-1.52 2.199 2.199 0 00-1.551-.581 2.428 2.428 0 00-1.608.577 2.636 2.636 0 00-.864 1.524zm11.892 3.326v.967a5.682 5.682 0 01-1.206.163 2.603 2.603 0 01-1.849-.589 2.275 2.275 0 01-.647-1.759v-4.046h-1.233v-1.03h1.233v-1.99h1.162v1.99h2.287v1.03h-2.287v3.979a1.324 1.324 0 00.382 1.066c.341.237.754.35 1.169.319.332-.007.663-.04.989-.1zm1.435-9.068a.78.78 0 01.257-.585.83.83 0 01.615-.247.805.805 0 01.602.247.784.784 0 01.258.585.786.786 0 01-.25.597.838.838 0 01-.61.239.869.869 0 01-.808-.51.792.792 0 01-.064-.326zm.285 10.035v-7.262h1.161v7.262h-1.161zm9.774-4.56v4.56h-1.162v-4.429a1.998 1.998 0 00-.486-1.4 1.709 1.709 0 00-1.334-.537 1.887 1.887 0 00-1.387.545 1.87 1.87 0 00-.538 1.393v4.428h-1.162v-7.262h1.085v.796a2.911 2.911 0 012.259-.939 2.603 2.603 0 012.009.796c.493.568.749 1.3.716 2.049zm8.403-2.702h1.097v6.562a3.264 3.264 0 01-.958 2.588 3.337 3.337 0 01-2.611.96 4.75 4.75 0 01-1.87-.347 4.706 4.706 0 01-1.578-1.053l.68-.796a4.146 4.146 0 002.74 1.15 2.26 2.26 0 001.803-.642 2.2 2.2 0 00.637-1.788v-.653a2.96 2.96 0 01-1.17.887 3.798 3.798 0 01-1.555.318 3.462 3.462 0 01-2.576-1.042 3.578 3.578 0 01-1.025-2.622 3.627 3.627 0 011.033-2.626 3.455 3.455 0 012.568-1.058 3.792 3.792 0 011.608.35 2.81 2.81 0 011.169.978l.008-1.166zm-.048 3.522a2.458 2.458 0 00-.744-1.918 2.61 2.61 0 00-1.816-.677 2.544 2.544 0 00-1.865.737 2.54 2.54 0 00-.739 1.87 2.486 2.486 0 001.583 2.42c.322.127.667.186 1.013.174a2.586 2.586 0 001.824-.676 2.492 2.492 0 00.744-1.93zm13.403-.732v4.472h-1.101v-.94a3.334 3.334 0 01-4.321.545 1.82 1.82 0 01-.533-.657 1.788 1.788 0 01-.174-.826 1.762 1.762 0 01.723-1.476 3.081 3.081 0 011.913-.553h2.319v-.625a1.85 1.85 0 00-.474-1.357 1.759 1.759 0 00-1.306-.477 2.64 2.64 0 00-2.118 1.166l-.772-.625c.302-.51.74-.93 1.266-1.21a3.287 3.287 0 011.716-.382 2.837 2.837 0 012.094.768 2.966 2.966 0 01.768 2.177zm-1.158 1.683v-.18h-2.186c-1.053 0-1.579.347-1.579 1.031a.963.963 0 00.43.844c.322.213.705.32 1.093.302a2.304 2.304 0 001.579-.58c.21-.173.378-.39.493-.635.115-.245.173-.512.17-.782zm9.561-4.473h1.097v6.562a3.268 3.268 0 01-.957 2.59 3.322 3.322 0 01-1.199.763 3.357 3.357 0 01-1.413.196 4.75 4.75 0 01-1.87-.348 4.706 4.706 0 01-1.578-1.053l.68-.796a4.146 4.146 0 002.74 1.15 2.26 2.26 0 001.803-.642 2.2 2.2 0 00.637-1.788v-.653a2.948 2.948 0 01-1.166.887 3.83 3.83 0 01-1.559.318 3.462 3.462 0 01-2.576-1.042 3.578 3.578 0 01-1.025-2.622 3.627 3.627 0 011.033-2.626 3.455 3.455 0 012.568-1.058 3.811 3.811 0 011.608.35 2.84 2.84 0 011.165.978l.012-1.166zm-.044 3.522a2.445 2.445 0 00-.748-1.918 2.602 2.602 0 00-1.812-.677 2.55 2.55 0 00-1.869.737 2.543 2.543 0 00-.735 1.87c.006.504.158.996.439 1.416.282.421.679.752 1.146.955a2.673 2.673 0 002.835-.453 2.489 2.489 0 00.744-1.93zm10.164.461h-5.8c.046.666.355 1.286.86 1.727a2.69 2.69 0 001.837.657 3.093 3.093 0 002.242-.983l.68.776a3.958 3.958 0 01-2.938 1.265 3.802 3.802 0 01-2.761-1.094 3.624 3.624 0 01-.845-1.223 3.582 3.582 0 01-.28-1.455c-.01-.499.082-.994.27-1.457.188-.462.468-.883.823-1.237a3.602 3.602 0 012.656-1.11 3.306 3.306 0 012.387.927 3.134 3.134 0 01.957 2.356 4.429 4.429 0 01-.088.851zm-5.755-1.014h4.653a2.002 2.002 0 00-.631-1.52 2.21 2.21 0 00-1.551-.581 2.396 2.396 0 00-1.607.577 2.611 2.611 0 00-.864 1.524zm13.945-.267v4.56h-1.162v-4.429a1.998 1.998 0 00-.486-1.4 1.709 1.709 0 00-1.334-.537 1.887 1.887 0 00-1.387.545 1.903 1.903 0 00-.542 1.392v4.429h-1.158v-7.262h1.086v.796a2.929 2.929 0 012.258-.939 2.603 2.603 0 012.01.796c.493.568.748 1.3.715 2.049zm1.925.923a3.702 3.702 0 01.684-2.255 3.761 3.761 0 011.914-1.398 3.797 3.797 0 012.378.018c.77.26 1.434.761 1.892 1.427l-.84.644a2.612 2.612 0 00-.939-.87 2.643 2.643 0 00-1.243-.323 2.53 2.53 0 00-1.897.796 2.69 2.69 0 00-.573.905 2.642 2.642 0 00-.17 1.056 2.704 2.704 0 00.771 1.946 2.522 2.522 0 001.897.796 2.632 2.632 0 001.224-.315 2.6 2.6 0 00.93-.847l.828.64a3.418 3.418 0 01-1.291 1.193 3.46 3.46 0 01-1.719.399 3.85 3.85 0 01-2.725-1.113 3.773 3.773 0 01-1.121-2.699zm14.038-3.625H256l-3.617 8.277c-.536 1.22-1.366 1.831-2.488 1.834-.38 0-.759-.05-1.125-.151v-.967c.402.047.715.075.884.075a1.76 1.76 0 001-.242 1.96 1.96 0 00.664-.904l.401-.863-3.042-7.039h1.25l2.411 5.786 2.428-5.806z" fill="#000"/></g><defs><clipPath id="clip0"><path fill="#fff" d="M0 0h256v28H0z"/></clipPath></defs></svg>