<svg width="127" height="28" fill="none" xmlns="http://www.w3.org/2000/svg"><g clip-path="url(#clip0)"><path d="M13.43 13.866v8.754H9.696v-1.432a6.032 6.032 0 01-2.082 1.373 6.083 6.083 0 01-2.467.417c-1.556.008-2.805-.396-3.745-1.213A4.041 4.041 0 01.337 20.33 4.004 4.004 0 010 18.58a3.71 3.71 0 01.366-1.76 3.75 3.75 0 011.153-1.387c1.017-.768 2.383-1.154 4.107-1.154h3.738v-.652a2.516 2.516 0 00-.711-1.926 2.888 2.888 0 00-2.062-.669c-.7-.008-1.39.156-2.01.478a7.818 7.818 0 00-1.929 1.548l-2.11-2.475a8.146 8.146 0 012.9-2.26 8.227 8.227 0 013.607-.764c1.967 0 3.522.551 4.666 1.655 1.144 1.103 1.716 2.654 1.716 4.651zM9.367 17.11v-.179H6.172c-1.385 0-2.078.497-2.078 1.492a1.377 1.377 0 00.587 1.194c.455.308 1 .46 1.551.434a3.181 3.181 0 002.243-.82 2.726 2.726 0 00.892-2.12zm21.665-7.373a7.715 7.715 0 012.066 5.5 7.817 7.817 0 01-2.066 5.53 6.706 6.706 0 01-2.334 1.675 6.764 6.764 0 01-2.83.55c-1.875 0-3.36-.598-4.457-1.791V28h-4.067V7.87h3.738v1.85c1.026-1.44 2.621-2.16 4.786-2.16a6.81 6.81 0 012.822.531 6.76 6.76 0 012.342 1.645zm-2.061 5.53a4.09 4.09 0 00-1.085-2.932 3.925 3.925 0 00-2.72-1.133 3.928 3.928 0 00-2.746 1.074 4.032 4.032 0 00-1.069 2.98 4.081 4.081 0 001.07 2.996 3.59 3.59 0 002.696 1.09 3.69 3.69 0 002.753-1.134 4.002 4.002 0 001.1-2.94zM45.444 7.87v3.55h-1.085a4.174 4.174 0 00-2.934.982c-.715.655-1.073 1.61-1.073 2.865v7.365H36.29V7.87h3.734v1.759a4.998 4.998 0 011.813-1.455 5.05 5.05 0 012.282-.483c.448-.007.896.053 1.326.179zm1.383 7.365a7.1 7.1 0 01.565-2.976c.4-.941 1-1.786 1.757-2.48a8.287 8.287 0 015.669-2.235c2.109 0 4.138.8 5.669 2.236a7.163 7.163 0 011.764 2.477 7.1 7.1 0 01.57 2.978 7.098 7.098 0 01-.578 2.98 7.164 7.164 0 01-1.773 2.475 7.69 7.69 0 01-2.608 1.712 7.752 7.752 0 01-3.082.54 7.597 7.597 0 01-3.053-.54 7.536 7.536 0 01-2.574-1.712 7.214 7.214 0 01-1.754-2.48 7.151 7.151 0 01-.572-2.975zm10.738 2.893a3.945 3.945 0 001.11-2.86 4.056 4.056 0 00-1.102-2.894 3.891 3.891 0 00-5.526 0 4.07 4.07 0 00-1.085 2.909 3.943 3.943 0 001.085 2.86 3.94 3.94 0 005.526 0l-.008-.015zm7.061 1.997l2.05-2.443c1.282 1.33 2.68 1.99 4.183 1.99.477.02.951-.088 1.37-.315a1 1 0 00.531-.907.85.85 0 00-.317-.7 5.846 5.846 0 00-1.206-.645l-1.608-.652a8.805 8.805 0 01-3.102-1.894 3.667 3.667 0 01-.96-2.61 3.854 3.854 0 01.355-1.798 3.894 3.894 0 011.147-1.437c1.005-.796 2.33-1.194 3.975-1.194 1.001-.038 2 .14 2.925.52a6.949 6.949 0 012.436 1.684l-2.058 2.499a4.81 4.81 0 00-3.343-1.4c-1.065 0-1.608.35-1.608 1.042a.845.845 0 00.33.688c.381.262.796.472 1.234.625l1.446.597c1.487.597 2.56 1.233 3.215 1.91a3.604 3.604 0 01.981 2.594 4.083 4.083 0 01-.398 1.93 4.126 4.126 0 01-1.258 1.528 6.617 6.617 0 01-4.155 1.253c-2.663 0-4.718-.955-6.165-2.865zm24.635-.863v3.37a11.6 11.6 0 01-2.813.358c-1.907 0-3.38-.467-4.42-1.4-1.04-.934-1.55-2.316-1.532-4.147v-6.171H78.15V7.87h2.347V4.146h4.067V7.87h4.216v3.402h-4.216v5.813c0 .836.217 1.425.647 1.775.43.35 1.142.521 2.126.521.338 0 .981-.04 1.925-.12zm2.368-16.76a2.366 2.366 0 01.763-1.786A2.555 2.555 0 0194.23 0a2.615 2.615 0 011.852.716 2.348 2.348 0 01.772 1.786 2.3 2.3 0 01-.768 1.763 2.63 2.63 0 01-1.852.712 2.587 2.587 0 01-1.837-.712 2.348 2.348 0 01-.767-1.763zm.57 20.13V7.87h4.067v14.762H92.2zM109.468 7.87v3.55h-1.081a4.186 4.186 0 00-2.938.982c-.715.657-1.069 1.592-1.069 2.865v7.365h-4.067V7.87h3.734v1.759a4.993 4.993 0 011.813-1.455 5.046 5.046 0 012.282-.483c.449-.007.896.053 1.326.179z" fill="#000"/><path d="M112.93 7.894l13.973 6.724v1.194l-13.973 6.745V18.7l7.467-3.478-7.467-3.493V7.894z" fill="red"/></g><defs><clipPath id="clip0"><path fill="#fff" d="M0 0h127v28H0z"/></clipPath></defs></svg>