<svg width="256" height="28" viewBox="0 0 256 28" fill="none" xmlns="http://www.w3.org/2000/svg">
<g clip-path="url(#clip0)">
<path d="M13.43 13.8663V22.6201H9.69647V21.1876C9.10684 21.7845 8.39729 22.2523 7.61366 22.5607C6.83003 22.8691 5.98976 23.0114 5.14715 22.9782C3.59052 22.9861 2.342 22.5816 1.40159 21.7646C0.943385 21.3707 0.579713 20.8806 0.337074 20.3299C0.094435 19.7792 -0.0210564 19.1819 -0.000984199 18.5814C-0.0251238 17.9741 0.100596 17.3701 0.365292 16.8216C0.629989 16.2732 1.02569 15.797 1.51814 15.434C2.5349 14.6661 3.90131 14.2801 5.62539 14.2801H9.36291V13.6276C9.38613 13.2753 9.33486 12.922 9.21238 12.5904C9.08989 12.2588 8.89889 11.9561 8.65157 11.7018C8.07918 11.2204 7.339 10.9804 6.58991 11.0333C5.89047 11.0249 5.19992 11.189 4.58049 11.5108C3.85845 11.9219 3.20725 12.4444 2.65145 13.0586L0.541559 10.5837C1.32085 9.62118 2.31246 8.84819 3.44031 8.324C4.56817 7.79981 5.8023 7.53834 7.04806 7.55967C9.01461 7.55967 10.5699 8.11142 11.7139 9.21492C12.858 10.3184 13.43 11.8689 13.43 13.8663ZM9.36693 17.1092V16.9301H6.17195C4.78679 16.9301 4.09421 17.4275 4.09421 18.4222C4.08357 18.6539 4.13169 18.8845 4.23418 19.093C4.33667 19.3015 4.49027 19.4813 4.68096 19.6159C5.13639 19.9242 5.6812 20.0766 6.23223 20.0496C7.05926 20.0774 7.86432 19.7831 8.47475 19.23C8.76913 18.9611 9.00129 18.6323 9.15529 18.2663C9.30929 17.9002 9.38148 17.5055 9.36693 17.1092ZM31.0325 9.73616C32.4214 11.2308 33.1631 13.2051 33.0982 15.2351C33.1604 17.2742 32.4197 19.2574 31.0325 20.7659C30.386 21.4851 29.5893 22.0565 28.6976 22.4406C27.8059 22.8247 26.8405 23.0122 25.8683 22.9901C23.9928 22.9901 22.5072 22.3933 21.4114 21.1996V27.9996H17.3443V7.87003H21.0818V9.72025C22.108 8.27986 23.7035 7.55967 25.8683 7.55967C26.8364 7.53454 27.7986 7.7159 28.6896 8.09144C29.5807 8.46698 30.3797 9.02791 31.0325 9.73616ZM28.9708 15.2669C29.0125 14.1862 28.6227 13.1327 27.8857 12.3344C27.1636 11.6187 26.187 11.2116 25.1652 11.2005C24.1435 11.1893 23.158 11.575 22.4201 12.2747C22.0501 12.6758 21.7649 13.146 21.5813 13.6579C21.3977 14.1697 21.3194 14.7127 21.3511 15.255C21.32 15.7996 21.3985 16.3449 21.582 16.8593C21.7655 17.3736 22.0504 17.8467 22.4201 18.2512C22.7678 18.6092 23.1874 18.8912 23.6518 19.079C24.1163 19.2667 24.6153 19.3561 25.1168 19.3414C25.6303 19.3544 26.1409 19.2602 26.6152 19.0648C27.0896 18.8694 27.517 18.5772 27.8697 18.2074C28.2423 17.815 28.5318 17.3526 28.7209 16.8475C28.9101 16.3425 28.995 15.805 28.9708 15.2669ZM45.444 7.87003V11.4193H44.359C43.2895 11.3595 42.2382 11.7117 41.4252 12.4021C40.7098 13.0573 40.3522 14.0122 40.3522 15.2669V22.632H36.2891V7.87003H40.0226V9.62873C40.5028 9.00924 41.1241 8.51082 41.8357 8.17409C42.5474 7.83735 43.3293 7.67182 44.1178 7.69097C44.5665 7.68367 45.0137 7.74404 45.444 7.87003ZM46.8265 15.2351C46.7986 14.2144 46.9914 13.1996 47.392 12.2588C47.7927 11.3179 48.3918 10.4727 49.1494 9.77993C50.6804 8.34401 52.7091 7.54371 54.818 7.54371C56.9269 7.54371 58.9555 8.34401 60.4865 9.77993C61.2463 10.4717 61.8477 11.3163 62.2505 12.2573C62.6532 13.1982 62.8479 14.2135 62.8215 15.2351C62.8459 16.2579 62.6487 17.274 62.2431 18.2149C61.8376 19.1559 61.2331 20 60.4705 20.6903C59.7287 21.4321 58.8407 22.0149 57.8617 22.4023C56.8827 22.7898 55.8336 22.9736 54.7798 22.9424C53.7355 22.9739 52.696 22.79 51.7274 22.4022C50.7587 22.0145 49.8822 21.4315 49.1534 20.6903C48.3978 19.9957 47.7997 19.1504 47.3986 18.21C46.9974 17.2696 46.8025 16.2556 46.8265 15.2351ZM57.5649 18.1278C57.9316 17.7472 58.2184 17.2984 58.4088 16.8073C58.5992 16.3163 58.6893 15.7927 58.6741 15.2669C58.7046 14.197 58.3091 13.158 57.5729 12.3742C57.2134 12.0091 56.7838 11.7188 56.3093 11.5207C55.8347 11.3225 55.3249 11.2204 54.8099 11.2204C54.2949 11.2204 53.7851 11.3225 53.3106 11.5207C52.8361 11.7188 52.4064 12.0091 52.047 12.3742C51.3141 13.1654 50.9245 14.21 50.9619 15.2828C50.9434 15.807 51.0298 16.3296 51.216 16.8205C51.4022 17.3115 51.6846 17.7612 52.047 18.1437C52.4098 18.5031 52.8405 18.7882 53.3146 18.9827C53.7886 19.1772 54.2968 19.2773 54.8099 19.2773C55.3231 19.2773 55.8312 19.1772 56.3053 18.9827C56.7794 18.7882 57.2101 18.5031 57.5729 18.1437L57.5649 18.1278ZM64.626 20.1252L66.6756 17.6822C67.9576 19.0111 69.3561 19.6716 70.8592 19.6716C71.3364 19.6929 71.8104 19.5842 72.2296 19.3573C72.3946 19.27 72.5316 19.1388 72.6253 18.9785C72.7191 18.8182 72.7657 18.6352 72.7601 18.4501C72.7659 18.317 72.7402 18.1843 72.6851 18.0627C72.63 17.9411 72.547 17.834 72.4426 17.7498C72.0677 17.4887 71.663 17.2724 71.2369 17.1052L69.6294 16.4527C68.4729 16.0429 67.416 15.3977 66.5269 14.5587C65.8754 13.8458 65.5307 12.9092 65.5664 11.9485C65.5385 11.3297 65.6604 10.7133 65.9218 10.1506C66.1832 9.58793 66.5767 9.09523 67.0694 8.71357C68.0741 7.91777 69.399 7.51988 71.044 7.51988C72.0454 7.48234 73.0431 7.65994 73.9686 8.04046C74.894 8.42098 75.7253 8.9954 76.4052 9.72423L74.3475 12.223C73.462 11.3395 72.2609 10.8364 71.0038 10.8224C69.9389 10.8224 69.3963 11.1726 69.3963 11.8649C69.3935 11.9971 69.4218 12.1281 69.479 12.2476C69.5362 12.3671 69.6207 12.4717 69.7259 12.5533C70.1073 12.8148 70.5222 13.0249 70.9596 13.178L72.4064 13.7748C73.8934 14.3717 74.9651 15.0083 75.6215 15.6847C75.9495 16.0319 76.2049 16.4398 76.3732 16.885C76.5415 17.3302 76.6193 17.8039 76.6021 18.279C76.6293 18.945 76.4929 19.6076 76.2045 20.2098C75.9161 20.8121 75.4843 21.3361 74.9463 21.7367C73.7448 22.6089 72.2795 23.0508 70.7908 22.9901C68.1277 22.9901 66.0727 22.0352 64.626 20.1252ZM89.2614 19.2618V22.632C88.3422 22.8656 87.3973 22.9859 86.4482 22.9901C84.5406 22.9901 83.0671 22.5232 82.0275 21.5895C80.988 20.6558 80.4776 19.2737 80.4963 17.4434V11.272H78.1493V7.87003H80.4963V4.14571H84.5634V7.87003H88.7792V11.272H84.5634V17.0853C84.5634 17.9209 84.7804 18.5098 85.2104 18.8599C85.6405 19.2101 86.3518 19.3812 87.3364 19.3812C87.674 19.3812 88.317 19.3414 89.2614 19.2618ZM91.6285 2.5024C91.6224 2.16828 91.6872 1.83662 91.8188 1.52887C91.9503 1.22112 92.1456 0.944138 92.3921 0.715843C92.6349 0.481698 92.9223 0.297773 93.2376 0.174804C93.553 0.0518344 93.8899 -0.00771581 94.2287 -0.000371192C94.9177 -0.0141525 95.5841 0.243453 96.0814 0.715843C96.3314 0.941842 96.5296 1.21821 96.6627 1.52637C96.7958 1.83453 96.8607 2.16733 96.853 2.5024C96.8595 2.83343 96.7944 3.162 96.662 3.46604C96.5296 3.77007 96.333 4.04252 96.0854 4.26508C95.5865 4.73453 94.9209 4.99043 94.2327 4.97732C93.8943 4.98452 93.5577 4.9253 93.2425 4.80305C92.9273 4.68081 92.6396 4.49797 92.3961 4.26508C92.15 4.0414 91.9543 3.76874 91.8221 3.46497C91.6898 3.16119 91.6238 2.83317 91.6285 2.5024ZM92.1992 22.632V7.87003H96.2663V22.632H92.1992ZM109.468 7.87003V11.4193H108.387C107.316 11.3597 106.264 11.7118 105.449 12.4021C104.734 13.0586 104.38 13.9937 104.38 15.2669V22.632H100.313V7.87003H104.047V9.62873C104.527 9.00924 105.148 8.51082 105.86 8.17409C106.571 7.83735 107.353 7.67182 108.142 7.69097C108.591 7.68367 109.038 7.74404 109.468 7.87003Z" fill="black"/>
<path d="M112.93 7.89404L126.903 14.6185V15.8122L112.93 22.5565V18.7009L120.397 15.2233L112.93 11.7298V7.89404Z" fill="#FF0000"/>
<path d="M143.07 14.965V19.5249H141.909V15.1202C141.936 14.606 141.773 14.0996 141.451 13.6957C141.291 13.5193 141.094 13.3803 140.874 13.2887C140.654 13.1972 140.415 13.1554 140.177 13.1665C139.929 13.1612 139.683 13.2052 139.453 13.2962C139.223 13.3871 139.014 13.523 138.839 13.6957C138.663 13.8684 138.525 14.0745 138.431 14.3014C138.338 14.5284 138.292 14.7717 138.296 15.0168V19.5249H137.134V15.1202C137.156 14.6008 136.98 14.0922 136.64 13.6957C136.482 13.5184 136.286 13.3782 136.066 13.2853C135.847 13.1923 135.609 13.1491 135.37 13.1586C135.119 13.1495 134.87 13.1934 134.638 13.2874C134.405 13.3814 134.196 13.5233 134.024 13.7037C133.847 13.8928 133.71 14.1146 133.62 14.3563C133.531 14.5981 133.49 14.855 133.501 15.1122V19.5249H132.34V12.2633H133.425V13.0273C133.696 12.7207 134.033 12.4783 134.412 12.3179C134.79 12.1575 135.2 12.0831 135.611 12.1002C136.07 12.0662 136.53 12.167 136.931 12.3899C137.333 12.6128 137.659 12.948 137.87 13.3535C138.146 12.9501 138.522 12.6232 138.961 12.4038C139.401 12.1845 139.89 12.08 140.382 12.1002C140.746 12.0808 141.11 12.1401 141.449 12.2741C141.787 12.4081 142.092 12.6135 142.343 12.8761C142.844 13.4558 143.104 14.2026 143.07 14.965ZM150.999 15.0526V19.5249H149.902V18.5859C149.371 19.1793 148.64 19.5616 147.845 19.6618C147.051 19.7621 146.247 19.5735 145.582 19.131C145.354 18.9563 145.172 18.7307 145.049 18.4728C144.926 18.2149 144.866 17.9319 144.875 17.6468C144.866 17.3613 144.927 17.0778 145.053 16.8208C145.179 16.5637 145.366 16.3407 145.598 16.1707C146.155 15.78 146.829 15.5853 147.511 15.6176H149.826V14.9929C149.842 14.7468 149.808 14.5001 149.727 14.2671C149.646 14.0341 149.518 13.8195 149.352 13.636C149.179 13.472 148.975 13.345 148.751 13.2628C148.527 13.1807 148.288 13.1452 148.049 13.1586C147.627 13.1711 147.215 13.2834 146.845 13.4863C146.476 13.6891 146.162 13.9765 145.928 14.3244L145.156 13.6997C145.458 13.1893 145.896 12.7709 146.422 12.4902C146.948 12.2095 147.541 12.0773 148.138 12.1081C148.521 12.0879 148.905 12.1455 149.265 12.2776C149.625 12.4097 149.954 12.6134 150.232 12.8761C150.5 13.1698 150.706 13.5137 150.838 13.8875C150.969 14.2613 151.024 14.6574 150.999 15.0526ZM149.838 16.7357V16.5566H147.656C146.603 16.5566 146.076 16.9028 146.076 17.5872C146.07 17.7523 146.106 17.9164 146.181 18.064C146.256 18.2115 146.368 18.3377 146.506 18.4307C146.828 18.6437 147.209 18.7496 147.595 18.7331C148.179 18.7458 148.745 18.538 149.179 18.1522C149.388 17.9794 149.556 17.7627 149.67 17.5176C149.784 17.2726 149.841 17.0054 149.838 16.7357ZM157.353 12.2633V13.2779H156.919C156.32 13.2636 155.737 13.4707 155.283 13.8589C155.063 14.053 154.889 14.2926 154.773 14.5608C154.657 14.829 154.602 15.1191 154.612 15.4107V19.5249H153.455V12.2633H154.54V13.2939C154.799 12.9402 155.142 12.6555 155.539 12.4652C155.936 12.275 156.374 12.1851 156.815 12.2036C156.996 12.2027 157.177 12.2227 157.353 12.2633ZM158.904 19.5249V8.35596H160.066V19.5369L158.904 19.5249ZM161.585 15.4544L165.049 19.5249H163.566L160.186 15.4385L163.241 12.2553H164.772L161.585 15.4544ZM172.697 16.2463H166.902C166.923 16.5757 167.009 16.8978 167.156 17.1941C167.303 17.4904 167.508 17.7551 167.758 17.9731C168.265 18.4121 168.921 18.6464 169.594 18.6297C170.017 18.6261 170.434 18.5371 170.82 18.368C171.207 18.199 171.554 17.9536 171.841 17.6468L172.516 18.4227C172.144 18.825 171.69 19.1454 171.185 19.3634C170.679 19.5813 170.134 19.6919 169.582 19.6881C169.071 19.7006 168.562 19.6101 168.086 19.422C167.611 19.234 167.179 18.9522 166.817 18.5938C166.455 18.2475 166.169 17.831 165.976 17.3703C165.783 16.9096 165.688 16.4146 165.696 15.916C165.683 15.4159 165.773 14.9183 165.959 14.4533C166.146 13.9883 166.425 13.5655 166.781 13.2103C167.122 12.8523 167.534 12.5686 167.991 12.3774C168.449 12.1863 168.941 12.0918 169.438 12.1002C169.878 12.0885 170.316 12.1645 170.726 12.3238C171.136 12.483 171.51 12.7223 171.825 13.0273C172.146 13.3299 172.4 13.6959 172.57 14.1016C172.739 14.5074 172.821 14.9438 172.81 15.3828C172.801 15.6736 172.763 15.9628 172.697 16.2463ZM166.946 15.2316H171.604C171.612 14.9483 171.559 14.6665 171.45 14.4046C171.341 14.1428 171.177 13.9066 170.969 13.7116C170.549 13.3238 169.992 13.1151 169.418 13.1307C168.829 13.1222 168.257 13.3274 167.81 13.7077C167.356 14.1039 167.051 14.6413 166.946 15.2316ZM178.838 18.558V19.5249C178.443 19.6223 178.039 19.677 177.632 19.6881C176.962 19.7372 176.299 19.526 175.783 19.0992C175.556 18.8679 175.381 18.5916 175.27 18.2885C175.158 17.9853 175.113 17.6622 175.136 17.3405V13.2939H173.903V12.2633H175.136V10.2738H176.298V12.2633H178.585V13.2939H176.298V17.2728C176.279 17.4674 176.303 17.6637 176.369 17.848C176.435 18.0322 176.541 18.1999 176.68 18.3392C177.021 18.5757 177.434 18.6882 177.849 18.6575C178.181 18.6509 178.512 18.6176 178.838 18.558ZM180.273 9.48996C180.272 9.38018 180.295 9.27154 180.339 9.17088C180.384 9.07021 180.448 8.97971 180.53 8.90505C180.61 8.82437 180.705 8.76083 180.811 8.71839C180.917 8.67595 181.031 8.65552 181.145 8.65836C181.257 8.65548 181.369 8.67595 181.472 8.71844C181.576 8.76093 181.67 8.8245 181.747 8.90505C181.829 8.97971 181.894 9.07021 181.938 9.17088C181.982 9.27154 182.005 9.38018 182.005 9.48996C182.008 9.60116 181.987 9.71173 181.944 9.81454C181.901 9.91734 181.837 10.0101 181.755 10.0868C181.675 10.165 181.579 10.2264 181.474 10.2674C181.37 10.3084 181.257 10.3282 181.145 10.3255C181.031 10.3278 180.919 10.3079 180.813 10.2669C180.708 10.226 180.611 10.1648 180.53 10.0868C180.447 10.0108 180.381 9.91836 180.337 9.81552C180.293 9.71268 180.271 9.60175 180.273 9.48996ZM180.558 19.5249V12.2633H181.719V19.5249H180.558ZM190.332 14.965V19.5249H189.17V15.0963C189.194 14.5852 189.02 14.0843 188.684 13.6957C188.515 13.5154 188.307 13.3739 188.077 13.2811C187.846 13.1883 187.598 13.1465 187.35 13.1586C187.093 13.1503 186.838 13.1944 186.599 13.2882C186.361 13.382 186.144 13.5234 185.963 13.7037C185.783 13.8878 185.643 14.1061 185.55 14.3455C185.457 14.5848 185.415 14.8402 185.425 15.0963V19.5249H184.263V12.2633H185.348V13.0591C185.633 12.7492 185.983 12.5046 186.373 12.3424C186.763 12.1802 187.184 12.1043 187.607 12.1201C187.98 12.1007 188.353 12.1619 188.7 12.2993C189.047 12.4367 189.36 12.6471 189.616 12.9159C190.109 13.484 190.365 14.2167 190.332 14.965ZM198.735 12.2633H199.832V18.8246C199.871 19.299 199.805 19.7761 199.64 20.2229C199.474 20.6698 199.213 21.0758 198.874 21.4131C198.534 21.7504 198.126 22.0109 197.675 22.1768C197.224 22.3427 196.743 22.4099 196.263 22.3739C195.623 22.3852 194.986 22.2668 194.393 22.0259C193.8 21.7851 193.263 21.4269 192.815 20.9733L193.495 20.1775C194.232 20.885 195.209 21.295 196.235 21.3274C196.565 21.3592 196.898 21.3181 197.21 21.207C197.521 21.0958 197.804 20.9174 198.038 20.6847C198.271 20.452 198.449 20.1709 198.56 19.8615C198.67 19.5522 198.709 19.2225 198.675 18.8962V18.2437C198.367 18.6323 197.964 18.9375 197.505 19.131C197.016 19.3453 196.485 19.4538 195.95 19.4493C195.471 19.463 194.994 19.3774 194.551 19.1978C194.107 19.0183 193.706 18.7489 193.374 18.4068C193.035 18.0598 192.769 17.6489 192.593 17.1985C192.417 16.7481 192.334 16.2674 192.349 15.7847C192.336 15.301 192.421 14.8196 192.599 14.3687C192.776 13.9178 193.042 13.5064 193.382 13.1586C193.712 12.8143 194.11 12.5422 194.553 12.3599C194.995 12.1776 195.471 12.0891 195.95 12.1002C196.505 12.0977 197.054 12.2173 197.558 12.4503C198.031 12.6632 198.436 13.0021 198.727 13.4291L198.735 12.2633ZM198.687 15.7847C198.709 15.4309 198.655 15.0765 198.526 14.7455C198.398 14.4145 198.199 14.1148 197.943 13.8668C197.449 13.4173 196.798 13.1749 196.127 13.1904C195.782 13.18 195.438 13.24 195.117 13.3667C194.796 13.4933 194.505 13.6839 194.262 13.9265C194.017 14.1723 193.825 14.4649 193.698 14.7864C193.571 15.1078 193.511 15.4516 193.523 15.7966C193.507 16.1393 193.564 16.4813 193.689 16.8013C193.814 17.1213 194.004 17.4122 194.248 17.6559C194.492 17.8995 194.784 18.0906 195.106 18.2171C195.428 18.3436 195.773 18.4028 196.119 18.3909C196.793 18.411 197.448 18.1681 197.943 17.7145C198.199 17.4636 198.397 17.1617 198.525 16.8289C198.653 16.4962 198.709 16.1402 198.687 15.7847ZM212.09 15.0526V19.5249H210.989V18.5859C210.457 19.1793 209.726 19.5616 208.932 19.6618C208.137 19.7621 207.333 19.5735 206.668 19.131C206.441 18.9563 206.258 18.7307 206.135 18.4728C206.012 18.2149 205.952 17.9319 205.961 17.6468C205.952 17.3613 206.014 17.0778 206.14 16.8208C206.265 16.5637 206.452 16.3407 206.684 16.1707C207.242 15.78 207.915 15.5853 208.597 15.6176H210.916V14.9929C210.932 14.7469 210.898 14.5004 210.816 14.2675C210.735 14.0346 210.608 13.82 210.442 13.636C210.269 13.4723 210.063 13.3455 209.839 13.2634C209.614 13.1812 209.375 13.1456 209.136 13.1586C208.715 13.1717 208.302 13.2844 207.934 13.4872C207.566 13.69 207.252 13.977 207.018 14.3244L206.246 13.6997C206.548 13.1893 206.986 12.7709 207.512 12.4902C208.038 12.2095 208.632 12.0773 209.228 12.1081C209.612 12.0879 209.995 12.1455 210.355 12.2776C210.716 12.4097 211.045 12.6134 211.322 12.8761C211.59 13.1698 211.796 13.5137 211.928 13.8875C212.06 14.2613 212.115 14.6574 212.09 15.0526ZM210.932 16.7357V16.5566H208.746C207.693 16.5566 207.167 16.9028 207.167 17.5872C207.16 17.7523 207.196 17.9164 207.271 18.064C207.347 18.2115 207.459 18.3377 207.597 18.4307C207.919 18.6443 208.302 18.7502 208.69 18.7331C209.272 18.7451 209.836 18.5374 210.269 18.1522C210.479 17.9796 210.647 17.763 210.762 17.518C210.877 17.273 210.935 17.0057 210.932 16.7357ZM220.493 12.2633H221.59V18.8246C221.629 19.2992 221.564 19.7765 221.399 20.2237C221.234 20.6709 220.972 21.0772 220.633 21.4146C220.294 21.7521 219.885 22.0126 219.434 22.1782C218.983 22.3438 218.501 22.4106 218.021 22.3739C217.381 22.3852 216.744 22.2668 216.151 22.0259C215.558 21.7851 215.021 21.4269 214.573 20.9733L215.253 20.1775C215.99 20.885 216.967 21.295 217.993 21.3274C218.323 21.3592 218.656 21.3181 218.968 21.207C219.279 21.0958 219.562 20.9174 219.796 20.6847C220.029 20.452 220.207 20.1709 220.318 19.8615C220.428 19.5522 220.467 19.2225 220.433 18.8962V18.2437C220.126 18.6322 219.725 18.9375 219.267 19.131C218.776 19.3449 218.245 19.4534 217.708 19.4493C217.229 19.463 216.752 19.3774 216.309 19.1978C215.865 19.0183 215.464 18.7489 215.132 18.4068C214.793 18.0598 214.527 17.6489 214.351 17.1985C214.175 16.7481 214.092 16.2674 214.107 15.7847C214.094 15.301 214.179 14.8196 214.357 14.3687C214.534 13.9178 214.8 13.5064 215.14 13.1586C215.47 12.8143 215.868 12.5422 216.311 12.3599C216.753 12.1776 217.229 12.0891 217.708 12.1002C218.263 12.0984 218.812 12.2179 219.316 12.4503C219.787 12.6653 220.19 13.0037 220.481 13.4291L220.493 12.2633ZM220.449 15.7847C220.471 15.4306 220.415 15.0761 220.286 14.7451C220.157 14.4142 219.958 14.1146 219.701 13.8668C219.208 13.4176 218.559 13.1751 217.889 13.1904C217.543 13.1797 217.199 13.2396 216.877 13.3662C216.556 13.4928 216.264 13.6835 216.02 13.9265C215.777 14.1731 215.586 14.4658 215.459 14.7872C215.333 15.1086 215.274 15.4519 215.285 15.7966C215.291 16.301 215.443 16.7929 215.724 17.2135C216.006 17.6341 216.403 17.9654 216.87 18.1679C217.337 18.3703 217.852 18.4352 218.355 18.3548C218.858 18.2744 219.327 18.0521 219.705 17.7145C219.961 17.464 220.16 17.1622 220.288 16.8293C220.417 16.4965 220.471 16.1403 220.449 15.7847ZM230.613 16.2463H224.813C224.859 16.9116 225.168 17.5322 225.673 17.9731C226.18 18.4135 226.836 18.648 227.51 18.6297C227.932 18.6258 228.348 18.5366 228.734 18.3676C229.119 18.1986 229.466 17.9533 229.752 17.6468L230.432 18.4227C230.058 18.8251 229.604 19.1456 229.098 19.3635C228.592 19.5814 228.046 19.692 227.494 19.6881C226.983 19.7006 226.474 19.61 226 19.4219C225.525 19.2338 225.094 18.9521 224.733 18.5938C224.369 18.2482 224.082 17.832 223.888 17.3712C223.694 16.9104 223.599 16.415 223.608 15.916C223.598 15.4174 223.69 14.9221 223.878 14.4593C224.066 13.9966 224.346 13.5759 224.701 13.2222C225.041 12.8646 225.454 12.5812 225.911 12.3901C226.368 12.1989 226.861 12.1043 227.357 12.1121C227.798 12.0999 228.236 12.1758 228.646 12.3351C229.056 12.4944 229.43 12.7338 229.744 13.0392C230.061 13.3443 230.309 13.7114 230.474 14.117C230.639 14.5226 230.716 14.9578 230.701 15.3948C230.699 15.6808 230.67 15.9659 230.613 16.2463ZM224.858 15.2316H229.511C229.52 14.9486 229.468 14.6669 229.36 14.405C229.251 14.1431 229.088 13.9068 228.88 13.7116C228.46 13.3249 227.903 13.1164 227.329 13.1307C226.74 13.1195 226.167 13.3251 225.722 13.7077C225.266 14.1031 224.961 14.6409 224.858 15.2316ZM238.803 14.965V19.5249H237.641V15.0963C237.665 14.5852 237.491 14.0843 237.155 13.6957C236.986 13.5156 236.778 13.3742 236.548 13.2815C236.317 13.1887 236.069 13.1468 235.821 13.1586C235.564 13.1503 235.309 13.1944 235.07 13.2882C234.832 13.382 234.615 13.5234 234.434 13.7037C234.254 13.8875 234.112 14.1056 234.019 14.345C233.926 14.5844 233.883 14.8399 233.892 15.0963V19.5249H232.734V12.2633H233.82V13.0591C234.104 12.7492 234.454 12.5046 234.844 12.3424C235.234 12.1802 235.655 12.1043 236.078 12.1201C236.451 12.1007 236.824 12.1619 237.171 12.2993C237.518 12.4367 237.831 12.6471 238.088 12.9159C238.581 13.484 238.836 14.2167 238.803 14.965ZM240.728 15.8881C240.704 15.083 240.944 14.2918 241.412 13.6332C241.881 12.9746 242.552 12.4841 243.326 12.2353C244.1 11.9865 244.934 11.9928 245.704 12.2532C246.474 12.5137 247.138 13.0142 247.596 13.6798L246.756 14.3244C246.521 13.9619 246.198 13.663 245.817 13.4546C245.436 13.2462 245.009 13.1349 244.574 13.1307C244.219 13.1228 243.866 13.1897 243.539 13.3269C243.212 13.464 242.918 13.6684 242.677 13.9265C242.427 14.1873 242.232 14.4955 242.104 14.8325C241.976 15.1695 241.918 15.5285 241.934 15.8881C241.926 16.2469 241.99 16.6035 242.123 16.9375C242.255 17.2715 242.453 17.5762 242.705 17.8339C242.947 18.0915 243.241 18.2957 243.568 18.4328C243.895 18.57 244.247 18.6371 244.602 18.6297C245.03 18.6257 245.45 18.5177 245.826 18.3151C246.201 18.1125 246.521 17.8215 246.756 17.4678L247.584 18.1084C247.266 18.6106 246.821 19.0217 246.293 19.3008C245.765 19.58 245.172 19.7177 244.574 19.7C244.068 19.7016 243.567 19.604 243.099 19.413C242.632 19.2219 242.207 18.9411 241.849 18.5868C241.492 18.2325 241.209 17.8116 241.016 17.3484C240.824 16.8853 240.726 16.389 240.728 15.8881ZM254.766 12.2633H256L252.383 20.5396C251.847 21.7598 251.017 22.3712 249.895 22.3739C249.515 22.3747 249.136 22.3238 248.77 22.2227V21.2558C249.172 21.3035 249.485 21.3314 249.654 21.3314C250.004 21.3521 250.353 21.2675 250.654 21.0887C250.959 20.8575 251.19 20.5438 251.318 20.1854L251.719 19.322L248.677 12.2832H249.927L252.338 18.0686L254.766 12.2633Z" fill="black"/>
</g>
<defs>
<clipPath id="clip0">
<rect width="256" height="28" fill="white"/>
</clipPath>
</defs>
</svg>
