<svg width="127" height="28" viewBox="0 0 127 28" fill="none" xmlns="http://www.w3.org/2000/svg">
<g clip-path="url(#clip0)">
<path d="M13.43 13.8663V22.6201H9.69647V21.1876C9.10684 21.7845 8.39729 22.2523 7.61366 22.5607C6.83003 22.8691 5.98976 23.0114 5.14715 22.9782C3.59052 22.9861 2.342 22.5816 1.40159 21.7646C0.943385 21.3707 0.579713 20.8806 0.337074 20.3299C0.094435 19.7792 -0.0210564 19.1819 -0.000984199 18.5814C-0.0251238 17.9741 0.100596 17.3701 0.365292 16.8216C0.629989 16.2732 1.02569 15.797 1.51814 15.434C2.5349 14.6661 3.90131 14.2801 5.62539 14.2801H9.36291V13.6276C9.38613 13.2753 9.33486 12.922 9.21238 12.5904C9.08989 12.2588 8.89889 11.9561 8.65157 11.7018C8.07918 11.2204 7.339 10.9804 6.58991 11.0333C5.89047 11.0249 5.19992 11.189 4.58049 11.5108C3.85845 11.9219 3.20725 12.4444 2.65145 13.0586L0.541559 10.5837C1.32085 9.62118 2.31246 8.84819 3.44031 8.324C4.56817 7.79981 5.8023 7.53834 7.04806 7.55967C9.01461 7.55967 10.5699 8.11142 11.7139 9.21492C12.858 10.3184 13.43 11.8689 13.43 13.8663ZM9.36693 17.1092V16.9301H6.17195C4.78679 16.9301 4.09421 17.4275 4.09421 18.4222C4.08357 18.6539 4.13169 18.8845 4.23418 19.093C4.33667 19.3015 4.49027 19.4813 4.68096 19.6159C5.13639 19.9242 5.6812 20.0766 6.23223 20.0496C7.05926 20.0774 7.86432 19.7831 8.47475 19.23C8.76913 18.9611 9.00129 18.6323 9.15529 18.2663C9.30929 17.9002 9.38148 17.5055 9.36693 17.1092ZM31.0325 9.73616C32.4214 11.2308 33.1631 13.2051 33.0982 15.2351C33.1604 17.2742 32.4197 19.2574 31.0325 20.7659C30.386 21.4851 29.5893 22.0565 28.6976 22.4406C27.8059 22.8247 26.8405 23.0122 25.8683 22.9901C23.9928 22.9901 22.5072 22.3933 21.4114 21.1996V27.9996H17.3443V7.87003H21.0818V9.72025C22.108 8.27986 23.7035 7.55967 25.8683 7.55967C26.8364 7.53454 27.7986 7.7159 28.6896 8.09144C29.5807 8.46698 30.3797 9.02791 31.0325 9.73616ZM28.9708 15.2669C29.0125 14.1862 28.6227 13.1327 27.8857 12.3344C27.1636 11.6187 26.187 11.2116 25.1652 11.2005C24.1435 11.1893 23.158 11.575 22.4201 12.2747C22.0501 12.6758 21.7649 13.146 21.5813 13.6579C21.3977 14.1697 21.3194 14.7127 21.3511 15.255C21.32 15.7996 21.3985 16.3449 21.582 16.8593C21.7655 17.3736 22.0504 17.8467 22.4201 18.2512C22.7678 18.6092 23.1874 18.8912 23.6518 19.079C24.1163 19.2667 24.6153 19.3561 25.1168 19.3414C25.6303 19.3544 26.1409 19.2602 26.6152 19.0648C27.0896 18.8694 27.517 18.5772 27.8697 18.2074C28.2423 17.815 28.5318 17.3526 28.7209 16.8475C28.9101 16.3425 28.995 15.805 28.9708 15.2669ZM45.444 7.87003V11.4193H44.359C43.2895 11.3595 42.2382 11.7117 41.4252 12.4021C40.7098 13.0573 40.3522 14.0122 40.3522 15.2669V22.632H36.2891V7.87003H40.0226V9.62873C40.5028 9.00924 41.1241 8.51082 41.8357 8.17409C42.5474 7.83735 43.3293 7.67182 44.1178 7.69097C44.5665 7.68367 45.0137 7.74404 45.444 7.87003ZM46.8265 15.2351C46.7986 14.2144 46.9914 13.1996 47.392 12.2588C47.7927 11.3179 48.3918 10.4727 49.1494 9.77993C50.6804 8.34401 52.7091 7.54371 54.818 7.54371C56.9269 7.54371 58.9555 8.34401 60.4865 9.77993C61.2463 10.4717 61.8477 11.3163 62.2505 12.2573C62.6532 13.1982 62.8479 14.2135 62.8215 15.2351C62.8459 16.2579 62.6487 17.274 62.2431 18.2149C61.8376 19.1559 61.2331 20 60.4705 20.6903C59.7287 21.4321 58.8407 22.0149 57.8617 22.4023C56.8827 22.7898 55.8336 22.9736 54.7798 22.9424C53.7355 22.9739 52.696 22.79 51.7274 22.4022C50.7587 22.0145 49.8822 21.4315 49.1534 20.6903C48.3978 19.9957 47.7997 19.1504 47.3986 18.21C46.9974 17.2696 46.8025 16.2556 46.8265 15.2351ZM57.5649 18.1278C57.9316 17.7472 58.2184 17.2984 58.4088 16.8073C58.5992 16.3163 58.6893 15.7927 58.6741 15.2669C58.7046 14.197 58.3091 13.158 57.5729 12.3742C57.2134 12.0091 56.7838 11.7188 56.3093 11.5207C55.8347 11.3225 55.3249 11.2204 54.8099 11.2204C54.2949 11.2204 53.7851 11.3225 53.3106 11.5207C52.8361 11.7188 52.4064 12.0091 52.047 12.3742C51.3141 13.1654 50.9245 14.21 50.9619 15.2828C50.9434 15.807 51.0298 16.3296 51.216 16.8205C51.4022 17.3115 51.6846 17.7612 52.047 18.1437C52.4098 18.5031 52.8405 18.7882 53.3146 18.9827C53.7886 19.1772 54.2968 19.2773 54.8099 19.2773C55.3231 19.2773 55.8312 19.1772 56.3053 18.9827C56.7794 18.7882 57.2101 18.5031 57.5729 18.1437L57.5649 18.1278ZM64.626 20.1252L66.6756 17.6822C67.9576 19.0111 69.3561 19.6716 70.8592 19.6716C71.3364 19.6929 71.8104 19.5842 72.2296 19.3573C72.3946 19.27 72.5316 19.1388 72.6253 18.9785C72.7191 18.8182 72.7657 18.6352 72.7601 18.4501C72.7659 18.317 72.7402 18.1843 72.6851 18.0627C72.63 17.9411 72.547 17.834 72.4426 17.7498C72.0677 17.4887 71.663 17.2724 71.2369 17.1052L69.6294 16.4527C68.4729 16.0429 67.416 15.3977 66.5269 14.5587C65.8754 13.8458 65.5307 12.9092 65.5664 11.9485C65.5385 11.3297 65.6604 10.7133 65.9218 10.1506C66.1832 9.58793 66.5767 9.09523 67.0694 8.71357C68.0741 7.91777 69.399 7.51988 71.044 7.51988C72.0454 7.48234 73.0431 7.65994 73.9686 8.04046C74.894 8.42098 75.7253 8.9954 76.4052 9.72423L74.3475 12.223C73.462 11.3395 72.2609 10.8364 71.0038 10.8224C69.9389 10.8224 69.3963 11.1726 69.3963 11.8649C69.3935 11.9971 69.4218 12.1281 69.479 12.2476C69.5362 12.3671 69.6207 12.4717 69.7259 12.5533C70.1073 12.8148 70.5222 13.0249 70.9596 13.178L72.4064 13.7748C73.8934 14.3717 74.9651 15.0083 75.6215 15.6847C75.9495 16.0319 76.2049 16.4398 76.3732 16.885C76.5415 17.3302 76.6193 17.8039 76.6021 18.279C76.6293 18.945 76.4929 19.6076 76.2045 20.2098C75.9161 20.8121 75.4843 21.3361 74.9463 21.7367C73.7448 22.6089 72.2795 23.0508 70.7908 22.9901C68.1277 22.9901 66.0727 22.0352 64.626 20.1252ZM89.2614 19.2618V22.632C88.3422 22.8656 87.3973 22.9859 86.4482 22.9901C84.5406 22.9901 83.0671 22.5232 82.0275 21.5895C80.988 20.6558 80.4776 19.2737 80.4963 17.4434V11.272H78.1493V7.87003H80.4963V4.14571H84.5634V7.87003H88.7792V11.272H84.5634V17.0853C84.5634 17.9209 84.7804 18.5098 85.2104 18.8599C85.6405 19.2101 86.3518 19.3812 87.3364 19.3812C87.674 19.3812 88.317 19.3414 89.2614 19.2618ZM91.6285 2.5024C91.6224 2.16828 91.6872 1.83662 91.8188 1.52887C91.9503 1.22112 92.1456 0.944138 92.3921 0.715843C92.6349 0.481698 92.9223 0.297773 93.2376 0.174804C93.553 0.0518344 93.8899 -0.00771581 94.2287 -0.000371192C94.9177 -0.0141525 95.5841 0.243453 96.0814 0.715843C96.3314 0.941842 96.5296 1.21821 96.6627 1.52637C96.7958 1.83453 96.8607 2.16733 96.853 2.5024C96.8595 2.83343 96.7944 3.162 96.662 3.46604C96.5296 3.77007 96.333 4.04252 96.0854 4.26508C95.5865 4.73453 94.9209 4.99043 94.2327 4.97732C93.8943 4.98452 93.5577 4.9253 93.2425 4.80305C92.9273 4.68081 92.6396 4.49797 92.3961 4.26508C92.15 4.0414 91.9543 3.76874 91.8221 3.46497C91.6898 3.16119 91.6238 2.83317 91.6285 2.5024ZM92.1992 22.632V7.87003H96.2663V22.632H92.1992ZM109.468 7.87003V11.4193H108.387C107.316 11.3597 106.264 11.7118 105.449 12.4021C104.734 13.0586 104.38 13.9937 104.38 15.2669V22.632H100.313V7.87003H104.047V9.62873C104.527 9.00924 105.148 8.51082 105.86 8.17409C106.571 7.83735 107.353 7.67182 108.142 7.69097C108.591 7.68367 109.038 7.74404 109.468 7.87003Z" fill="black"/>
<path d="M112.93 7.89404L126.903 14.6185V15.8122L112.93 22.5565V18.7009L120.397 15.2233L112.93 11.7298V7.89404Z" fill="#FF0000"/>
</g>
<defs>
<clipPath id="clip0">
<rect width="127" height="28" fill="white"/>
</clipPath>
</defs>
</svg>
