<svg width="68" height="96" fill="none" xmlns="http://www.w3.org/2000/svg"><g clip-path="url(#clip0)"><path d="M68 16.43v36.192A40.163 40.163 0 0156.44 80.91l-.137.14A68.737 68.737 0 0134 96a68.699 68.699 0 01-22.365-15.016A40.222 40.222 0 010 52.621V16.43c0-.475.188-.929.521-1.264a1.777 1.777 0 011.26-.523H66.22c.472 0 .925.188 1.258.523.334.335.522.79.522 1.263z" fill="#B787B4"/><path d="M31.936 50.802a.72.72 0 00-.383-.589.706.706 0 00-.698.026c-.774.483-1.654 1.013-2.422 1.533 2.062-1.395 2.342-3.01 2.005-4.286a.715.715 0 00-.493-.501.705.705 0 00-.68.169l-2.564 2.489c2.236-2.159 2.266-4.56 1.306-6.238a.714.714 0 00-.588-.363.705.705 0 00-.616.312l-2.724 4.087c2.52-3.78 1.031-6.828-.085-8.314a.71.71 0 00-.666-.274.707.707 0 00-.562.452c-.76 2.079-1.868 5.358-2.217 6.35 2.035-5.784-.478-9.076-2.048-10.47a.708.708 0 00-1.174.478L16.57 44.8c.548-6.625-2.167-10.193-3.806-11.714a.708.708 0 00-1.196.514v.223a60.764 60.764 0 001.159 11.836c.01.057.023.114.035.179a54.065 54.065 0 00.75 3.225c.06.235.123.47.177.701l.044.16c.037.139.074.28.113.417.071.243.14.484.212.723l.012.032a59.67 59.67 0 002.793 7.513 58.82 58.82 0 007.703-2.59c.131-.051.261-.105.39-.16h.018a52.832 52.832 0 001.55-.684l.178-.078.818-.386c.13-.063.261-.123.39-.179.13-.055.226-.109.338-.166.232-.114.463-.232.693-.357.192-.098.382-.196.57-.296h.012l1.005-.536c.982-.584 1.462-1.15 1.407-2.375z" fill="#F2F2F1"/><path d="M55.372 50.78c-1.346 2.143-4.407 5.822-9.886 6.504l7.972-.995a.706.706 0 01.698.344.718.718 0 01-.033.781c-1.33 1.87-4.37 5.056-9.522 4.791l6.048.308a.706.706 0 01.617.435.719.719 0 01-.12.748c-1.572 1.813-4.613 3.852-9.09 2.824l5 1.159a.707.707 0 01.495.414.717.717 0 01-.042.646c-.405.698-1.215 1.607-2.773 1.943-1.348.286-3.258.134-5.949-.975l3.862 1.591a.71.71 0 01.425.516.72.72 0 01-.187.643c-.449.468-1.208.963-2.418.991-1.12.03-2.626-.34-4.63-1.505l.393.255c.857.582 2.736 2.006 1.673 2.679-1.299.82-4.63-1.46-4.897-1.643.407.33 2.662 2.234 1.361 2.65h-.016l-.081.02c-1.242.266-3.194-1.543-3.476-1.81l.023.026.032.032.037.037c.401.418 1.288 1.465.823 1.891-.2.152-.68.093-1.241-.057a8.332 8.332 0 01-4.12-2.603 60.075 60.075 0 01-9.489-14.81 58.814 58.814 0 008.094-2.751.04.04 0 00.018 0c.245-.105.49-.209.733-.316l.085-.04.49-.22.243-.108.138-.064c.413-.19.825-.384 1.231-.584h.011l.337-.166.394-.198.168-.086.132-.066.57-.297h.012l.014-.009.02-.01a58.455 58.455 0 002.867-1.618c6.16-3.702 14.417-11.763 18.173-16.573a.72.72 0 011.263.26c2.047 7.986-8.775 13.343-8.775 13.343 1.435-.67 7.416-4.578 10.405-6.196a.706.706 0 01.982.334c.053.119.073.25.058.38-.543 4.732-3.657 7.16-9.838 9.029l9.888-2.922a.705.705 0 01.748.255.717.717 0 01.05.793zm-42.318-28v2.89h-.38v-2.52h-1.653v2.52h-.37v-2.89h2.403zm2.343-.07a1.413 1.413 0 011.048.44 1.55 1.55 0 010 2.143 1.42 1.42 0 01-1.048.439 1.277 1.277 0 01-1.159-.636v1.724h-.38v-4.04h.38v.566a1.287 1.287 0 011.159-.635zm-.832 2.322a1.14 1.14 0 001.607 0 1.169 1.169 0 000-1.625 1.14 1.14 0 00-1.607 0 1.174 1.174 0 000 1.625zm5.037-2.252h.32v2.89h-.379v-2.226l-1.71 2.225h-.323V22.78h.38V25l1.712-2.22zm2.95 1.404a.66.66 0 01.472.677.782.782 0 01-.232.58.913.913 0 01-.67.229h-1.395v-2.89h1.279a.913.913 0 01.65.216.731.731 0 01.228.56.676.676 0 01-.332.628zm-.546-1.034h-.901v.879h.9c.334 0 .5-.15.5-.452a.398.398 0 00-.128-.315.55.55 0 00-.371-.112zm.115 2.143a.564.564 0 00.387-.121.432.432 0 00.135-.342.41.41 0 00-.135-.321.57.57 0 00-.387-.118h-1.016v.902h1.016zm3.946-2.513h.374v2.89h-.38v-.567a1.292 1.292 0 01-1.16.636 1.411 1.411 0 01-1.047-.439 1.545 1.545 0 010-2.143 1.42 1.42 0 011.047-.44 1.281 1.281 0 011.16.637l.006-.574zm-1.933 2.258a1.14 1.14 0 001.608 0 1.174 1.174 0 000-1.625 1.135 1.135 0 00-1.611.003 1.15 1.15 0 00.003 1.622zm5.183-2.258v.37h-1.016v2.52h-.378v-2.52h-1.017v-.37h2.411zm2.493 0h.38v2.89h-.38v-1.26h-1.654v1.26h-.38v-2.89h.38v1.259h1.654V22.78zm3.653 0h.381v2.89h-.378v-.567a1.29 1.29 0 01-1.16.636 1.412 1.412 0 01-1.049-.439 1.55 1.55 0 010-2.143 1.42 1.42 0 011.049-.44 1.281 1.281 0 011.16.637l-.003-.574zm-1.936 2.258a1.14 1.14 0 001.608 0 1.169 1.169 0 000-1.625 1.14 1.14 0 00-1.608 0 1.168 1.168 0 000 1.625zm6.398-2.258v.37h-1.458v2.52h-.378v-2.89h1.836zm.837-.695a.275.275 0 01-.47-.196.273.273 0 01.275-.277.278.278 0 01.255.17c.014.034.02.07.02.107a.268.268 0 01-.08.197zm-.385 3.584V22.78h.38v2.89h-.38zm3.997-2.889v2.89h-.38v-2.306L42.99 25h-.05l-1.004-1.641v2.305h-.38V22.78h.437l.97 1.584.971-1.584h.44zm2.837 0h.38v2.89h-.38v-1.26h-1.654v1.26h-.38v-2.89h.38v1.259h1.654V22.78zm3.654 0h.378v2.89h-.378v-.567a1.292 1.292 0 01-1.16.636 1.412 1.412 0 01-1.05-.439 1.55 1.55 0 010-2.143 1.42 1.42 0 011.05-.44 1.28 1.28 0 011.16.637v-.574zm-1.936 2.258a1.14 1.14 0 001.607 0 1.168 1.168 0 000-1.625 1.14 1.14 0 00-1.607 0 1.168 1.168 0 000 1.625zm4.599-.854a.692.692 0 01.5.694.79.79 0 01-.279.61c-.224.18-.508.27-.794.251-.579 0-.958-.23-1.138-.693l.322-.19c.118.342.39.514.816.514a.802.802 0 00.512-.145.452.452 0 00.178-.37.416.416 0 00-.15-.33.6.6 0 00-.4-.127h-.42v-.37h.305a.555.555 0 00.386-.124.46.46 0 00-.025-.688.811.811 0 00-1.165.298l-.316-.178a1.045 1.045 0 011.033-.618c.262-.013.52.072.723.24a.752.752 0 01.27.587.687.687 0 01-.358.639zm1.459-2.098a.276.276 0 01-.471-.197.28.28 0 01.164-.277.274.274 0 01.315.066.28.28 0 01.072.211.268.268 0 01-.08.197zm-.385 3.584v-2.89h.378v2.89h-.377zm3.251-2.89v2.89h-.38v-1.11h-.493l-.887 1.11h-.483l.909-1.122a.944.944 0 01-.57-.29.814.814 0 01-.223-.581.825.825 0 01.278-.645.981.981 0 01.681-.252h1.168zm-1.166 1.429h.786v-1.052h-.786a.614.614 0 00-.411.145.512.512 0 000 .762.613.613 0 00.411.137v.008zM27.855 86.177v-.357l1.446-1.466c.412-.416.62-.772.62-1.072a.774.774 0 00-.238-.603.822.822 0 00-.571-.218.937.937 0 00-.902.571l-.339-.201c.114-.237.293-.434.517-.568.219-.13.47-.198.724-.195.313-.002.615.114.846.327a1.127 1.127 0 01.364.893c-.002.239-.07.472-.195.675a3.805 3.805 0 01-.55.682l-1.149 1.148h1.98v.393l-2.553-.01zm5.655-.5a1.397 1.397 0 01-1.123.569 1.39 1.39 0 01-1.122-.57 3.099 3.099 0 010-3.035 1.4 1.4 0 011.122-.569 1.39 1.39 0 011.123.57 3.108 3.108 0 010 3.035zm-1.952-.268a.993.993 0 00.824.444.985.985 0 00.824-.444 2.813 2.813 0 000-2.5.992.992 0 00-.824-.444.984.984 0 00-.824.444 2.813 2.813 0 000 2.5zm2.809.768v-.357l1.446-1.466c.414-.416.62-.773.62-1.072a.769.769 0 00-.238-.603.818.818 0 00-.572-.218.935.935 0 00-.9.571l-.338-.201c.113-.237.293-.434.516-.568.219-.13.468-.198.722-.195a1.23 1.23 0 01.847.327 1.126 1.126 0 01.365.893c-.002.239-.07.472-.195.675a3.687 3.687 0 01-.552.682l-1.146 1.148h1.978v.393l-2.553-.01zm5.655-.5a1.394 1.394 0 01-1.122.569 1.387 1.387 0 01-1.121-.57 3.097 3.097 0 010-3.035 1.398 1.398 0 011.121-.569 1.388 1.388 0 011.122.57 3.098 3.098 0 010 3.035zm-1.952-.268a.992.992 0 00.823.444.984.984 0 00.823-.444 2.8 2.8 0 000-2.5.99.99 0 00-.823-.444.984.984 0 00-.823.444 2.798 2.798 0 000 2.5z" fill="#fff"/><path d="M9.06 7.36a5.602 5.602 0 00-1.202-1.448 2.452 2.452 0 00-.543-.335 2.61 2.61 0 00.573-.316 4.486 4.486 0 001.21-1.463L10.982.405A.272.272 0 0010.746 0H9.442c-.216 0-.493.066-.759.553l-1.32 2.365A4.547 4.547 0 016.132 4.42a2.724 2.724 0 01-1.634.515H2.129V.273a.273.273 0 00-.17-.254.268.268 0 00-.105-.02H.271a.268.268 0 00-.25.17A.273.273 0 000 .272V10.94a.274.274 0 00.271.273h1.583a.268.268 0 00.194-.079.274.274 0 00.081-.194V6.26h2.369a2.555 2.555 0 011.651.562c.479.411.884.9 1.2 1.448l1.497 2.388c.108.164.253.301.422.4a.883.883 0 00.432.155h1.282a.27.27 0 00.235-.14.274.274 0 00-.006-.276L9.06 7.361zM20.426.009H13.95a.27.27 0 00-.271.273v10.65a.274.274 0 00.271.274h1.585a.267.267 0 00.25-.17.275.275 0 00.02-.104v-2.46h4.621c3.144 0 4.613-1.345 4.613-4.233 0-2.887-1.47-4.23-4.613-4.23zm1.496 6.557c-.59.386-1.397.572-2.466.572h-3.652V1.343h3.652c1.064 0 1.877.179 2.466.571.654.429.986 1.211.986 2.322 0 1.11-.332 1.902-.986 2.33zM52.962.009h-4.159c-2.933 0-4.613.964-5.12 2.936L41.6 10.863a.275.275 0 00.148.318.27.27 0 00.123.025h1.42a.48.48 0 00.303-.117.477.477 0 00.186-.284l1.952-7.337A2.826 2.826 0 0146.75 1.92a2.795 2.795 0 011.753-.577h2.62v9.59a.271.271 0 00.272.273h1.583a.271.271 0 00.248-.274V.282a.274.274 0 00-.264-.273zm14.541 0h-4.507c-2.938 0-4.613.964-5.129 2.936l-2.076 7.918a.275.275 0 00.143.314.27.27 0 00.12.029h1.42a.486.486 0 00.303-.117.477.477 0 00.186-.284l.678-2.564h7.004v2.691a.275.275 0 00.167.253.27.27 0 00.105.02h1.582a.269.269 0 00.275-.273V.282a.273.273 0 00-.167-.253.269.269 0 00-.104-.02zm-8.53 6.898l.936-3.439a2.826 2.826 0 011.019-1.548 2.795 2.795 0 011.752-.577h2.965v5.564h-6.673zM39.022.275a.272.272 0 00-.27-.266h-2.838a1.082 1.082 0 00-.946.555l-5.259 9.322V.282a.274.274 0 00-.271-.273h-1.482a.27.27 0 00-.257.167.275.275 0 00-.021.106v10.65a.274.274 0 00.271.273h2.878a1.074 1.074 0 00.931-.521L37 1.307v9.625a.274.274 0 00.272.273h1.481a.27.27 0 00.26-.166.276.276 0 00.02-.107L39.023.275z" fill="#B787B4"/></g><defs><clipPath id="clip0"><path fill="#fff" d="M0 0h68v96H0z"/></clipPath></defs></svg>