<svg width="150" height="29" fill="none" xmlns="http://www.w3.org/2000/svg"><g clip-path="url(#clip0)" fill="#B787B4"><path d="M143.472.238h-.084A11.127 11.127 0 00141.173 0a17.522 17.522 0 00-12.459 5.219 17.92 17.92 0 00-5.16 12.598V29h6.62v-6.694h13.231V29h6.62V8.484a8.45 8.45 0 00-1.829-5.299 8.29 8.29 0 00-4.724-2.947zm-.084 15.373h-13.021a11.167 11.167 0 013.831-6.406 10.948 10.948 0 016.975-2.51 4.41 4.41 0 012.207.593l.008 8.323zM112.579.238h-.084A11.034 11.034 0 00110.297 0a17.521 17.521 0 00-12.459 5.219 17.92 17.92 0 00-5.16 12.598V29h6.62V17.817a11.21 11.21 0 013.229-7.857 10.962 10.962 0 017.77-3.266 4.306 4.306 0 012.198.594V29h6.645V8.484a8.442 8.442 0 00-1.83-5.303 8.276 8.276 0 00-4.731-2.943zM81.62 0v11.157c0 1.465-.285 2.915-.84 4.268a11.158 11.158 0 01-2.392 3.618 11.016 11.016 0 01-3.58 2.416 10.91 10.91 0 01-4.22.847 2.22 2.22 0 01-1.552-.685 2.27 2.27 0 01-.63-1.59V0H61.76v20.541a8.45 8.45 0 001.834 5.281 8.285 8.285 0 004.71 2.94h.076c.726.147 1.465.221 2.206.221a17.439 17.439 0 0011.033-3.92v3.92h6.612V0H81.62zM46.323 0H30.885v3.75A56.577 56.577 0 0151.44 6.016l.503.152a.629.629 0 01.444.512.644.644 0 01-.268.625c-1.845 1.103-5.873 2.63-11.821.289l8.205 3.232a.672.672 0 01.442.574.685.685 0 01-.324.648c-1.678 1.07-5.429 2.495-10.203-1.001.84.602 3.54 2.545 5.244 3.818a.678.678 0 01.273.642.683.683 0 01-.432.546 6.468 6.468 0 01-4.217.219 6.536 6.536 0 01-3.469-2.434l3.03 3.657a.692.692 0 01-.379 1.103c-1.803.424-4.01-.271-5.386-2.935l1.577 3.062a.685.685 0 01-.282.916.665.665 0 01-.339.077 3.433 3.433 0 01-1.928-.684c-.56-.42-.982-1-1.21-1.666v11.624h6.612v-6.686h8.81a10.923 10.923 0 004.314-.76 11.02 11.02 0 003.683-2.396 11.164 11.164 0 002.47-3.656 11.267 11.267 0 000-8.682 11.164 11.164 0 00-2.47-3.656A11.02 11.02 0 0050.637.759 10.92 10.92 0 0046.323 0zM19.851 0a11.257 11.257 0 01-.837 4.269 11.156 11.156 0 01-2.389 3.62 11.018 11.018 0 01-3.578 2.419 10.93 10.93 0 01-4.22.85H6.62V0H0v29h6.62V17.817h8.818c1.17 0 2.293.47 3.12 1.308a4.489 4.489 0 011.293 3.155v6.694h6.62v-6.668a11.255 11.255 0 00-1.413-5.498 11.103 11.103 0 00-3.906-4.081 17.774 17.774 0 003.933-5.82A17.937 17.937 0 0026.47 0h-6.62z"/></g><defs><clipPath id="clip0"><path fill="#fff" d="M0 0h150v29H0z"/></clipPath></defs></svg>