<svg width="29" height="150" fill="none" xmlns="http://www.w3.org/2000/svg"><g clip-path="url(#clip0)" fill="#B787B4"><path d="M.238 6.527v.084C.084 7.341.005 8.082 0 8.826a17.52 17.52 0 005.219 12.46 17.92 17.92 0 0012.598 5.16H29v-6.62h-6.694V6.595H29v-6.62H8.484a8.45 8.45 0 00-5.299 1.829A8.285 8.285 0 00.238 6.527zm15.373.084v13.022A11.17 11.17 0 019.206 15.8a10.95 10.95 0 01-2.51-6.975 4.4 4.4 0 01.593-2.206l8.323-.009zM.238 37.42v.084A11.04 11.04 0 000 39.702a17.52 17.52 0 005.219 12.46 17.92 17.92 0 0012.598 5.16H29v-6.62H17.817a11.212 11.212 0 01-7.857-3.23 10.963 10.963 0 01-3.266-7.77 4.309 4.309 0 01.594-2.198H29V30.86H8.484a8.442 8.442 0 00-5.303 1.83 8.276 8.276 0 00-2.943 4.73zM0 68.38h11.157c1.465 0 2.915.286 4.268.84a11.16 11.16 0 013.618 2.392 11.017 11.017 0 012.416 3.58c.56 1.338.848 2.773.847 4.221a2.22 2.22 0 01-.685 1.552 2.27 2.27 0 01-1.59.63H0v6.645h20.541a8.45 8.45 0 005.281-1.834 8.285 8.285 0 002.94-4.71v-.076c.147-.727.221-1.466.221-2.207a17.439 17.439 0 00-3.92-11.033h3.92v-6.61H0v6.611zm0 35.298v15.438h3.75A56.58 56.58 0 016.016 98.56l.153-.504a.629.629 0 01.512-.444.644.644 0 01.624.268c1.103 1.846 2.63 5.873.289 11.822l3.233-8.206a.674.674 0 01.573-.441.674.674 0 01.648.324c1.07 1.678 2.495 5.428-1 10.202a421.51 421.51 0 013.817-5.244.682.682 0 011.188.16 6.467 6.467 0 01.219 4.216 6.533 6.533 0 01-2.433 3.469l3.656-3.029a.698.698 0 01.658-.114.69.69 0 01.445.492c.425 1.804-.271 4.01-2.935 5.386l3.063-1.577a.689.689 0 01.677.028.676.676 0 01.315.593 3.435 3.435 0 01-.684 1.929c-.42.56-1 .981-1.666 1.209h11.624v-6.612h-6.686v-8.809a10.925 10.925 0 00-.759-4.315 11.02 11.02 0 00-2.396-3.683 11.164 11.164 0 00-3.657-2.47 11.266 11.266 0 00-8.681 0 11.164 11.164 0 00-3.657 2.47 11.02 11.02 0 00-2.397 3.683A10.928 10.928 0 000 103.678zm0 26.471a11.251 11.251 0 014.269.837 11.146 11.146 0 013.62 2.389 11.012 11.012 0 012.419 3.578c.56 1.338.85 2.772.85 4.221v2.206H0V150h29v-6.62H17.817v-8.818c0-1.17.47-2.293 1.308-3.121a4.49 4.49 0 013.155-1.292h6.694v-6.62h-6.668a11.255 11.255 0 00-5.498 1.413 11.105 11.105 0 00-4.081 3.906 17.783 17.783 0 00-5.82-3.933A17.928 17.928 0 000 123.529v6.62z"/></g><defs><clipPath id="clip0"><path fill="#fff" transform="rotate(-90 75 75)" d="M0 0h150v29H0z"/></clipPath></defs></svg>