<svg width="513" height="283" fill="none" xmlns="http://www.w3.org/2000/svg"><g clip-path="url(#clip0_1010_2014)"><path d="M18.98 248.331c-1.838 0-3.743-.066-5.648-.132-2.298-.131-3.875-.656-4.991-1.575-1.117-1.117-1.642-2.561-1.905-4.794-3.678-28.759-5.057-53.711-4.072-74.263 1.051-23.047 1.117-45.109.132-65.53-.46-8.733-.92-19.37-1.314-32.37L0 36.835l1.117-3.283 6.501.394c11.165 1.116 23.841 3.874 37.699 8.273 8.275 2.627 14.58 8.799 18.718 18.32 2.101 4.596 3.743 11.03 4.86 18.976 2.036 14.248-1.773 26.724-11.23 37.23-5.977 6.697-12.02 12.081-17.865 16.087 0 0-.263.197-1.576 1.247l.657.328c1.313.46 2.43.92 3.283 1.314l10.115 3.808 2.758 1.445c9.326 4.858 16.55 11.95 21.608 21.142 5.254 9.718 7.224 20.158 5.78 30.927-2.168 15.168-7.094 28.366-14.647 39.331-3.02 4.465-6.896 7.814-11.559 9.915-6.962 3.152-17.273 5.056-31.722 5.909-1.773.066-3.677.132-5.517.132zm-7.618-4.991c.066 0 .591.329 2.233.394 3.612.197 7.159.197 10.705 0 13.661-.788 23.775-2.626 30.08-5.515 3.875-1.773 7.159-4.596 9.72-8.405 7.16-10.374 11.888-22.981 13.924-37.427 1.313-9.849-.526-19.37-5.32-28.234-4.597-8.405-11.296-14.905-19.769-19.37l-2.495-1.313-10.049-3.809c-.92-.459-1.97-.853-3.218-1.313l-2.102-.919c-.657-.263-1.445-.525-2.101-.854l-3.481-1.51 2.955-2.298c2.824-2.167 4.335-3.349 4.532-3.546 5.78-3.939 11.559-9.127 17.339-15.562 8.669-9.586 11.953-20.617 10.114-33.618-1.051-7.551-2.562-13.526-4.466-17.729-3.613-8.47-8.867-13.591-15.96-15.89-13.595-4.268-25.942-7.025-36.713-8.076l-2.758-.197 1.116 31.255c.394 13 .854 23.572 1.314 32.305.985 20.618.92 42.811-.132 65.99-.985 20.289.394 45.043 4.072 73.54.132 1.51.394 1.97.46 2.101zM152.173 283h-27.256v-15.036c.591-13.724.985-27.841 1.182-41.958.066-3.808.066-8.47 0-14.052l-.328-16.546c0-1.248.065-2.167.262-2.955.197-1.247-.328-2.889-1.641-4.662L97.07 151.218a641.236 641.236 0 01-11.56-16.087l-2.495-3.743c-1.05-1.707-1.839-3.414-2.298-5.121l-.789-2.824h6.765l14.777.854c3.153.131 4.86 1.707 5.714 3.02l29.817 42.417c.394.526.986 1.314 1.642 2.298l.197.197 8.341-10.046c3.941-4.727 7.29-8.733 9.917-11.95v-.066l21.411-24.885 1.051.065c3.284.132 9.523.329 18.718.657l3.809.131-1.97 3.218c-.197.328-.394.656-.591 1.05l-.526 1.051a23.664 23.664 0 01-1.116 1.97l-7.487 10.308c-2.956 4.071-5.517 7.486-7.685 10.244a1339.114 1339.114 0 01-13.989 16.678l-13.989 16.481c-1.839 2.232-3.415 4.202-4.597 5.843L152.173 283zm-22.79-4.465h18.258l-2.036-87.001.46-.591c1.313-1.839 3.087-4.071 5.254-6.698l14.12-16.546a1283.716 1283.716 0 0013.858-16.547 328.07 328.07 0 007.553-10.046l7.421-10.243c.066-.131.197-.328.329-.591-6.437-.197-11.165-.394-14.186-.46l-19.966 23.244c-2.627 3.218-5.977 7.223-9.917 11.951l-11.953 14.314-3.547-4.662a49.63 49.63 0 00-1.707-2.364l-29.949-42.548c-.328-.526-.854-1.051-2.233-1.117l-14.712-.853h-.46c.198.394.395.788.657 1.116l2.43 3.546c4.795 6.894 8.67 12.278 11.494 16.021l27.256 36.573c2.101 2.824 2.955 5.582 2.43 8.208-.132.591-.197 1.182-.197 1.97l.131 2.298.197 14.314c.066 5.647.066 10.375 0 14.183-.197 14.183-.591 28.3-1.182 42.023v10.506h.197zm163.994-43.599c-1.773 0-3.152-.394-4.137-1.248-1.314-1.05-2.036-2.823-2.233-5.45l-.985-10.965c-.329-4.596-.591-8.142-.986-10.9l-8.537-64.742-5.32-32.568c-.854-4.662-3.153-6.5-7.684-5.975-4.204.46-9.327 1.116-15.369 1.97-.065 9.061-.854 22.719-2.495 40.644-2.168 24.426-6.568 43.665-13.136 57.191-2.561 5.122-5.32 9.39-8.341 12.607-2.167 2.364-4.4 4.268-6.633 5.581a51.58 51.58 0 01-5.254 4.268l-6.437 4.071c-2.627 1.642-5.122 2.758-7.355 3.349-.985.263-2.102.46-3.481.722l-9.917 1.445c-3.153.197-5.254-1.576-5.714-4.925l-.526-5.909c-.197-2.364-.065-3.809.526-4.793.525-.788 1.379-1.511 3.875-2.758 3.349-1.642 6.502-3.283 9.194-4.859.132-.066.526-.328 1.183-1.051l5.516-5.253c.329-.328.657-.722.92-1.05l3.941-6.501c1.379-2.429 2.561-4.662 3.612-6.566 1.051-2.232 2.298-5.121 3.809-8.601l3.678-8.733c2.561-5.844 4.072-12.739 4.597-20.421l2.562-49.115c.131-3.151.262-5.712.459-7.748.197-2.035.788-4.465 1.971-7.354a4.896 4.896 0 011.707-2.035c.723-.525 1.445-.854 2.233-1.117a419.939 419.939 0 0115.237-4.333l6.042-1.51a327.43 327.43 0 006.043-1.38c5.714-1.575 13.66-2.691 23.709-3.282l10.18-.657 3.152.46.394 1.379c.46 1.576 1.839 11.228 8.67 77.283 7.684 73.672 7.421 75.707 7.355 76.495l-.197 1.314-2.758 1.116c-1.051.459-1.839.656-2.496.722-2.955.525-5.911.854-8.866 1.116-.722.066-1.182.066-1.708.066zM264.874 98.557c5.779 0 9.589 3.415 10.705 9.784l.788 4.662 4.532 27.972 8.669 64.873c.394 2.823.657 6.5.985 11.162l.985 10.9c.132 1.97.592 2.364.592 2.364s.525.394 2.43.131c2.889-.197 5.779-.591 8.603-1.05.263-.066.657-.132 1.379-.394l.329-.132c-.263-4.53-1.839-21.996-7.29-74.328-5.451-52.398-7.553-70.258-8.276-75.117l-9.391.657c-9.786.591-17.405 1.642-22.856 3.152-1.445.394-3.481.853-6.173 1.444l-5.977 1.51c-4.663 1.248-9.72 2.693-15.106 4.268a1.829 1.829 0 00-.853.46c-1.183 2.56-1.774 4.596-1.905 6.107-.131 1.97-.263 4.53-.394 7.551l-1.379 28.497-1.182 20.683c-.526 8.208-2.168 15.562-4.926 21.865l-3.678 8.667c-1.511 3.546-2.824 6.501-3.941 8.799-1.05 2.036-2.298 4.268-3.743 6.829l-4.006 6.632c-.395.591-.92 1.247-1.642 1.969l-5.255 5.056c-.722.788-1.444 1.445-2.167 1.839-2.824 1.641-6.042 3.349-9.523 5.056-1.116.525-1.642.853-1.905 1.05 0 .329-.065.92.066 2.036l.526 5.778c.131 1.051.394 1.051.853.985l9.72-1.379a38.766 38.766 0 002.956-.591c1.839-.525 3.94-1.444 6.173-2.889l6.371-4.005a37.663 37.663 0 004.86-3.94l.46-.328c1.905-1.117 3.875-2.758 5.779-4.859 2.759-2.955 5.32-6.829 7.619-11.557 6.305-13.001 10.574-31.714 12.741-55.615 1.708-19.107 2.562-33.29 2.496-42.154v-1.97l1.905-.263c6.896-.985 12.806-1.773 17.47-2.298.328.197.985.132 1.576.132zm135.95 136.642l-26.73-3.021 1.773-55.615c.066-4.465 0-8.667-.131-12.475l-3.021 6.96-14.58 30.532a1441.97 1441.97 0 00-10.903 23.244c-1.379 3.152-4.006 4.728-7.224 4.531l-13.924-.985c-2.101-.066-3.48-.525-4.334-1.379-.92-1.051-1.314-2.495-1.314-4.596l-.131-25.739.131-25.674c.066-4.859.197-10.768.46-17.729l2.364-78.596c.132-2.495.526-3.94 1.379-4.859 1.314-1.313 3.547-1.313 5.123-1.182l8.801.525c3.481.197 6.568.723 9.129 1.51 2.43.723 3.744 1.38 4.4 2.233.788.92 1.051 2.364 1.051 4.99l-.46 15.168-2.495 52.857-.132 12.082 9.392-19.567 9.195-19.37c7.487-15.89 13.135-29.088 16.747-39.266l1.314-3.217c.985-2.43 3.021-3.808 5.582-3.611l9.261.197c3.743.065 6.896.197 9.457.328 2.233.131 3.941.92 5.057 2.233 1.182 1.444 1.708 3.414 1.445 5.909l-4.729 59.883c-.919 9.718-1.97 19.961-3.152 30.664l-2.364 17.137-.986 9.85c-.459 4.202-.788 7.485-1.116 9.849l-4.335 26.199zm-22.133-7.026l18.784 2.167 3.349-22.062c.263-2.299.657-5.582 1.051-9.718l.985-9.915 2.365-17.138c1.116-10.637 2.167-20.814 3.086-30.532l4.729-59.949c.066-.854.066-2.035-.394-2.626-.328-.394-.985-.657-1.904-.657a263.788 263.788 0 00-9.261-.328l-9.26-.197c-.723-.066-1.051.065-1.314.853l-1.313 3.152c-3.613 10.177-9.326 23.572-16.879 39.594l-22.133 46.225-4.269-.853-.526-5.188v-7.682l.132-7.551 2.824-60.474.131-7.485c0-1.182-.066-1.773-.131-2.102-.329-.13-.92-.393-2.168-.787-2.167-.657-4.925-1.117-8.143-1.314l-8.801-.525c-.854-.066-1.314-.066-1.576 0-.066.328-.132.854-.197 1.773l-2.365 78.596c-.197 6.96-.328 12.87-.459 17.663l-.132 25.608.132 25.739c0 .723.065 1.182.131 1.379.263.066.657.132 1.313.132l13.99.985c1.379.131 2.233-.46 2.824-1.905 2.561-5.647 6.239-13.526 10.902-23.375l18.652-39.856c.197-.526.526-1.117.985-1.511.657-.722 1.905-1.641 3.941-1.641h2.102l.131 2.035c.328 5.122.525 11.163.46 17.86l-1.774 51.61zm115.92 6.829l-12.282-.985c-1.576-.066-3.941-.788-5.385-3.874a6580.769 6580.769 0 00-14.975-31.912l-12.807-26.724.197 18.057-.328 36.442c-.197 1.904-.525 2.955-1.117 3.677l-.328.328c-.788.657-1.905.92-3.678.92l-19.243-1.182c-2.956-.263-4.663-2.167-4.663-5.122l.131-4.465 3.547-62.509c1.182-23.113 1.773-48.064 1.642-74.066V81.42c.131-2.823 1.904-4.465 4.597-4.465l6.568-.131c2.627 0 4.86.065 6.699.131 2.824.197 5.123 1.445 6.962 3.743 1.773 2.167 2.627 4.662 2.627 7.288a44.2 44.2 0 00.131 5.713l.328 5.91c.066 6.303.066 11.753-.131 16.349a127.717 127.717 0 01-.46 6.697l-.525 6.566c0 .329.065 1.117.131 2.036l.066.46 3.087-.132 4.137-3.414c5.648-4.465 9.458-9.324 11.428-14.511 3.941-10.375 10.311-19.567 18.915-27.512l.919-.92c.723-.59 1.248-.919 1.839-1.116 2.299-.853 5.189-1.379 8.473-1.576l4.006-.131c1.773 0 3.152 0 4.072-.131l3.875-.263-2.824 5.713-.46.328c-6.305 4.465-11.362 9.783-14.909 15.693-1.182 1.97-2.364 4.53-3.612 7.485l-4.4 11.425-1.051 3.546c-1.051 3.217-2.102 5.647-3.35 7.42l-2.955 4.662c-1.314 1.904-2.561 3.414-3.678 4.727-3.087 3.415-6.633 5.713-10.508 6.895-3.218.919-3.875 1.641-3.941 1.773.066 0 .066 1.05 1.905 4.136l8.406 13.789 17.799 32.108 7.553 14.906c.459.853.591 1.772.394 2.626 0 .722.197 1.904.656 3.283l1.511 4.334c.197.591.394 1.182.657 1.904l1.97 4.465-4.86 1.313c-1.117.328-1.97.46-2.758.46zm-46.894-74.132l2.759 3.48c.328.328.657.854.854 1.379l14.646 30.598c5.122 10.703 10.114 21.34 15.04 31.912.525 1.116 1.116 1.247 1.641 1.313l12.151.985c.065 0 .525-.066 1.247-.197-.328-.92-.525-1.576-.722-2.101l-1.445-4.203c-.657-1.904-.985-3.677-.854-5.253l-.591-1.444-7.29-14.183-17.339-31.189-8.406-13.723c-2.167-3.743-2.89-6.107-2.233-7.88.591-1.97 2.758-3.348 6.896-4.53 3.087-.92 5.977-2.824 8.472-5.581.985-1.117 2.102-2.561 3.284-4.203l2.955-4.662c.986-1.444 1.905-3.545 2.759-6.303l1.051-3.612 4.466-11.687c1.379-3.218 2.692-5.91 3.94-8.077 3.284-5.45 7.553-10.374 12.939-14.642l-2.759.066c-2.824.13-5.188.525-7.027 1.247-.066 0-.263.131-.46.328l-.788.788c-8.21 7.486-14.186 16.153-17.798 25.871-2.233 5.909-6.502 11.359-12.742 16.35l-5.319 4.333-8.801.328-.394-4.661c-.066-1.117-.132-1.97-.132-2.561l.526-6.763c.197-2.758.328-4.925.46-6.501.131-4.465.197-9.849.131-16.021l-.328-5.713c-.132-2.56-.197-4.596-.132-6.106 0-1.51-.525-3.02-1.707-4.4-1.051-1.313-2.233-1.97-3.678-2.1a164.844 164.844 0 00-6.437-.132l-6.567.131-.197 2.167c.131 26.068-.394 51.085-1.642 74.329l-3.678 66.777c0 .394.066.525.066.525s.131.066.459.066l19.047 1.182h.459c.066-.197.066-.46.132-.854l.065-6.763.197-29.35-.197-22.325c.197-1.576.657-2.758 1.314-3.808l1.707-2.627z" fill="#FBB040"/><path d="M136.607 97.835c.46-.525.986-1.116 1.642-1.904l.788-.985.854-.985c.526 0 1.511.066 2.956.132-.066.065-.066.13-.132.196l-.065.197c-.066.132-.132.197-.132.263l-.591.788-.591.788c-.46.656-.854 1.182-1.182 1.576-.591.722-1.314 1.576-2.167 2.626l-1.117 1.313-1.116 1.314c-.329.394-.592.788-.789 1.05l.329 13.986h-3.612v-1.97l.197-6.631v-2.233l-.066-2.232v-.394c0-.132 0-.263.066-.394.065-.329-.066-.657-.329-1.051l-2.167-2.889-2.167-2.89c-.46-.59-1.051-1.444-1.839-2.56l-.197-.263-.197-.262c-.132-.263-.263-.46-.329-.723h.591l1.182.066 1.183.066c.262 0 .525.131.656.328l2.365 3.349 2.364 3.349c.066.065.131.197.263.328l.131.197.132.197.788-.985.788-.985a16.801 16.801 0 001.51-1.773zm56.679-94.092c.197-.263.526-.591.854-.985l.46-.525.46-.526c.262 0 .788 0 1.576.066 0 0-.066.066-.066.131l-.066.066c0 .066-.065.131-.065.131l-.329.46-.328.394c-.263.328-.46.59-.657.853a76.06 76.06 0 01-1.182 1.38l-.525.722-.591.656c-.197.197-.329.394-.46.525l.197 7.354h-1.905v-1.05c.066-1.182.066-2.298.066-3.48V7.157c0-.197 0-.328-.197-.525l-1.117-1.51-1.116-1.51c-.263-.329-.526-.789-.985-1.314l-.132-.131-.065-.197-.197-.394h.328l.591.066.591.065c.132 0 .263.066.329.197l1.247 1.773 1.248 1.773c.066.066.066.131.132.197l.065.131.066.132.394-.526.394-.525c.526-.46.788-.788.985-1.116zM165.177.131c.656.132 1.051.394 1.313.854.263.46.197.985-.065 1.576l-2.562 4.793-2.561 4.793-.197.263-.132.328c-.394 1.182-1.05 2.692-1.97 4.53l-1.116 2.233a49.09 49.09 0 00-.986 2.233c-.525 1.313-.722 2.955-.525 4.99.066.591.066 1.313 0 2.232l-.066 1.117v1.116l.066 3.349.066 3.349c0 .393 0 .853-.066 1.378l-.066 1.38-.262 3.676-.197 3.677v1.182l.065 1.248v2.364c-.197 2.363-1.182 4.005-2.955 4.793-.591.262-1.117.394-1.576.262-1.708-.525-2.759-1.51-3.153-2.889l-.263-.984-.262-.985c-.132-.723-.197-1.445-.132-2.036.066-.394.066-.92 0-1.51l-.065-.788-.066-.722-.131-2.036c-.066-.788-.066-1.444-.066-2.035 0-3.612.131-8.602.263-14.971 0-1.116.065-2.298.197-3.611.197-2.299-.263-4.072-1.248-5.385-.263-.262-.46-.656-.657-1.182l-.263-.656-.262-.657c-.657-1.838-2.102-3.808-4.269-5.975a38.192 38.192 0 01-3.153-3.546c-.46-.656-1.051-1.51-1.773-2.56l-.854-1.248-.854-1.248c-.525-.722-.656-1.444-.459-2.166 1.707-.854 3.48-.788 5.385.262l.985.525.985.46c.723.394 1.314.788 1.774 1.182.394.263.853.722 1.379 1.182.263.263.657.722 1.182 1.379.197.262.394.59.591.985l.263.525.263.525c1.05 2.233 2.627 4.4 4.794 6.5l.328-.328c.132-.13.197-.196.197-.328 2.299-4.465 5.254-8.273 8.932-11.425a15.49 15.49 0 011.642-1.247c.591-.723 1.577-.92 2.562-.723zm41.901 52.792c.46.066.723.328.92.59.197.33.131.723-.066 1.117l-1.839 3.349-1.773 3.349-.131.197-.066.197c-.263.787-.723 1.904-1.379 3.151l-.788 1.576c-.263.591-.526 1.116-.723 1.576-.394.92-.525 2.101-.394 3.48.066.394.066.92 0 1.576v1.576l.066 2.364.065 2.363c0 .263 0 .591-.065.985l-.066.92-.197 2.56-.131 2.561v3.35c-.132 1.641-.854 2.758-2.102 3.349-.46.197-.788.262-1.116.197-1.183-.394-1.905-1.051-2.168-2.036l-.197-.722-.197-.722c-.066-.526-.131-.985-.066-1.445.066-.263.066-.657 0-1.05l-.065-.526-.066-.525-.066-1.445c-.065-.525-.065-1.05 0-1.444 0-2.495.066-5.975.197-10.44 0-.788.066-1.642.132-2.561.131-1.642-.197-2.89-.92-3.743-.197-.197-.328-.46-.459-.788l-.197-.46-.197-.46c-.46-1.312-1.445-2.691-2.956-4.202-.854-.787-1.576-1.641-2.233-2.495-.328-.46-.722-1.05-1.248-1.772l-.591-.92-.591-.919c-.328-.525-.46-1.05-.328-1.51 1.182-.591 2.43-.526 3.809.197l.657.394.656.328c.526.263.92.525 1.248.788.329.197.591.46.92.854.197.197.46.525.788.919.131.197.263.394.394.657l.197.394.197.393c.722 1.576 1.839 3.087 3.35 4.531l.197-.197c.065-.066.131-.131.131-.197 1.576-3.152 3.678-5.778 6.239-8.01.394-.329.723-.591 1.117-.854.722-.394 1.379-.526 2.101-.394z" fill="#000"/></g><defs><clipPath id="clip0_1010_2014"><path fill="#fff" d="M0 0h513v283H0z"/></clipPath></defs></svg>