<svg width="882" height="580" fill="none" xmlns="http://www.w3.org/2000/svg"><path d="M833.224 514.347a1956.717 1956.717 0 0047.797-496.038C605.291-19.189 316.964-.027 32.271 84.488a1960.205 1960.205 0 00-17.683 5.343c-18.018 5.567-18.485 27.966-6.12 39.844C53.87 173.304 143.62 220.417 328.2 178.366c-110.71 42.95-131.249 50.82-191.628 74.303-18.535 7.188-21.018 32.171-4.201 42.611 60.405 37.371 180.769 76.772 305.495 4.629-29.143 20.779-70.279 48.996-130.488 93.659-15.326 11.357-12.098 34.96 5.793 41.522 59.05 21.778 145.964 49.999 243.661-48.378-42.987 53.729-51.582 65.476-79.235 98.492-11.507 13.785-4.174 34.417 13.338 38.468 63.715 14.895 127.681-8.102 190.195-102.447-24.003 45.909-42.126 80.63-55.822 106.798-8.457 16.203 3.684 35.335 22.084 34.748 44.588-1.365 86.297-26.372 119.888-106.196-9.503 29.879-18.338 63.493-26.509 93.161-4.847 17.499 10.912 33.949 28.687 29.54l1.598-.386c31.151-8.113 55.031-33.155 62.167-64.543z" fill="#C4C4C4"/></svg>