<?xml version="1.0" encoding="utf-8"?><svg xmlns="http://www.w3.org/2000/svg" xmlns:xlink="http://www.w3.org/1999/xlink"><symbol viewBox="0 0 18 18" id="facebook" xmlns="http://www.w3.org/2000/svg"><g clip-path="url(#aclip0)"><path d="M11.998 2.989h1.643V.127A21.22 21.22 0 0011.247 0C8.878 0 7.255 1.49 7.255 4.23v2.52H4.641v3.2h2.614V18h3.206V9.95h2.508l.399-3.2H10.46V4.547c0-.924.25-1.557 1.538-1.557z"/></g><defs><clipPath id="aclip0"><path d="M0 0h18v18H0z"/></clipPath></defs></symbol><symbol viewBox="0 0 18 18" id="instagram" xmlns="http://www.w3.org/2000/svg"><g clip-path="url(#bclip0)"><path d="M9.003 4.378a4.618 4.618 0 100 9.237 4.618 4.618 0 100-9.237zm0 7.617a2.997 2.997 0 110-5.996 2.997 2.997 0 110 5.996z"/><path d="M12.711.057c-1.656-.077-5.758-.073-7.415 0-1.457.068-2.741.42-3.777 1.456C-.212 3.243.009 5.576.009 8.997c0 3.501-.195 5.78 1.51 7.484 1.738 1.737 4.104 1.51 7.484 1.51 3.468 0 4.665.002 5.891-.473 1.668-.647 2.926-2.137 3.05-4.814.077-1.657.073-5.757 0-7.415-.15-3.16-1.845-5.076-5.233-5.232zm2.621 15.279c-1.134 1.135-2.709 1.033-6.35 1.033-3.75 0-5.254.056-6.352-1.044-1.263-1.258-1.035-3.278-1.035-6.34 0-4.144-.425-7.128 3.734-7.341.955-.034 1.237-.045 3.642-.045l.034.023c3.996 0 7.132-.419 7.32 3.739.043.949.053 1.234.053 3.635 0 3.707.07 5.22-1.046 6.34z"/><path d="M13.805 5.275a1.08 1.08 0 100-2.158 1.08 1.08 0 000 2.158z"/></g><defs><clipPath id="bclip0"><path d="M0 0h18v18H0z"/></clipPath></defs></symbol><symbol viewBox="0 0 26 10" id="long-arrow" xmlns="http://www.w3.org/2000/svg"><path d="M25.509 5l-6.131-5v4.438H0V5.55h19.378V10l6.13-5z"/></symbol><symbol viewBox="0 0 16 16" id="phone" xmlns="http://www.w3.org/2000/svg"><path d="M13.725 15.492a1.764 1.764 0 001.767-1.762v-2.366c0-.897-.67-1.65-1.558-1.75a8.58 8.58 0 01-1.544-.32 1.76 1.76 0 00-1.764.435l-.959.959a11.053 11.053 0 01-4.37-4.37l.958-.96a1.76 1.76 0 00.435-1.764 8.581 8.581 0 01-.32-1.543A1.757 1.757 0 004.62.492H2.254A1.764 1.764 0 00.5 2.421a14.35 14.35 0 001.337 4.87 14.46 14.46 0 002.839 4.018 14.459 14.459 0 004.016 2.839 14.356 14.356 0 004.872 1.337c.054.005.107.007.161.007zm-1.857-5.104c.06 0 .12.009.18.027.57.174 1.16.297 1.755.364a.586.586 0 01.517.585v2.366a.59.59 0 01-.65.588A13.28 13.28 0 011.668 2.313a.59.59 0 01.587-.649H4.62c.3 0 .552.223.586.518.067.594.19 1.185.364 1.755a.59.59 0 01-.143.593L3.866 6.09l.188.378a12.216 12.216 0 005.463 5.463l.377.187 1.56-1.56c.111-.11.26-.17.414-.17z"/></symbol><symbol viewBox="0 0 16 16" id="user" xmlns="http://www.w3.org/2000/svg"><path d="M13.657 10.343a7.97 7.97 0 00-3.04-1.907 4.623 4.623 0 002.008-3.811A4.63 4.63 0 008 0a4.63 4.63 0 00-4.625 4.625c0 1.58.796 2.977 2.008 3.811a7.97 7.97 0 00-3.04 1.907A7.948 7.948 0 000 16h1.25A6.758 6.758 0 018 9.25 6.758 6.758 0 0114.75 16H16a7.948 7.948 0 00-2.343-5.657zM8 8a3.379 3.379 0 01-3.375-3.375A3.379 3.379 0 018 1.25a3.379 3.379 0 013.375 3.375A3.379 3.379 0 018 8z"/></symbol><symbol viewBox="0 0 176 123" id="wing" xmlns="http://www.w3.org/2000/svg"><path d="M170.927 113.075A422.235 422.235 0 00181.795 3.848C123.183-4.269 63.553.49 6.879 17.806L3.195 19.07A4.662 4.662 0 001.1 20.52a4.823 4.823 0 00-1.047 2.355 4.873 4.873 0 00.308 2.568c.332.81.877 1.511 1.573 2.026 13.434 8.112 42.75 19.373 86.059 2.147l-59.752 23.86a4.932 4.932 0 00-2.175 1.646 5.136 5.136 0 00-.508 5.3 4.995 4.995 0 001.82 2.048c12.548 7.73 39.602 18.18 74.328-7.611-5.97 4.438-25.654 18.658-38.155 28.106a4.993 4.993 0 00-1.628 2.092 5.116 5.116 0 00-.344 2.651c.122.9.48 1.748 1.038 2.455a4.903 4.903 0 002.124 1.558c12.174 4.605 35.566 8.566 55.973-16.367-9.096 11.142-16.326 19.97-22.016 26.937a5.085 5.085 0 00-1.055 2.315 5.145 5.145 0 00.192 2.546 5.047 5.047 0 001.388 2.122c.633.574 1.4.971 2.227 1.153 13.13 3.149 29.176-1.956 39.204-21.64l-11.498 22.547a5.113 5.113 0 00.218 5.079 4.94 4.94 0 001.921 1.754 4.805 4.805 0 002.526.515c9.189-.286 19.451-5.511 24.721-22.427-2.192 6.322-3.964 13.48-5.667 19.755a5.168 5.168 0 00-.014 2.553 5.094 5.094 0 001.207 2.235 4.923 4.923 0 002.121 1.347 4.829 4.829 0 002.493.116 16.527 16.527 0 007.2-3.089 17.012 17.012 0 005.044-6.097z"/></symbol></svg>