<?xml version="1.0" encoding="utf-8"?><svg xmlns="http://www.w3.org/2000/svg" xmlns:xlink="http://www.w3.org/1999/xlink"><symbol viewBox="0 0 18 18" id="facebook" xmlns="http://www.w3.org/2000/svg"><g clip-path="url(#aclip0)"><path d="M11.998 2.989h1.643V.127A21.22 21.22 0 0011.247 0C8.878 0 7.255 1.49 7.255 4.23v2.52H4.641v3.2h2.614V18h3.206V9.95h2.508l.399-3.2H10.46V4.547c0-.924.25-1.557 1.538-1.557z"/></g><defs><clipPath id="aclip0"><path d="M0 0h18v18H0z"/></clipPath></defs></symbol><symbol viewBox="0 0 18 18" id="instagram" xmlns="http://www.w3.org/2000/svg"><g clip-path="url(#bclip0)"><path d="M9.003 4.378a4.618 4.618 0 100 9.237 4.618 4.618 0 100-9.237zm0 7.617a2.997 2.997 0 110-5.996 2.997 2.997 0 110 5.996z"/><path d="M12.711.057c-1.656-.077-5.758-.073-7.415 0-1.457.068-2.741.42-3.777 1.456C-.212 3.243.009 5.576.009 8.997c0 3.501-.195 5.78 1.51 7.484 1.738 1.737 4.104 1.51 7.484 1.51 3.468 0 4.665.002 5.891-.473 1.668-.647 2.926-2.137 3.05-4.814.077-1.657.073-5.757 0-7.415-.15-3.16-1.845-5.076-5.233-5.232zm2.621 15.279c-1.134 1.135-2.709 1.033-6.35 1.033-3.75 0-5.254.056-6.352-1.044-1.263-1.258-1.035-3.278-1.035-6.34 0-4.144-.425-7.128 3.734-7.341.955-.034 1.237-.045 3.642-.045l.034.023c3.996 0 7.132-.419 7.32 3.739.043.949.053 1.234.053 3.635 0 3.707.07 5.22-1.046 6.34z"/><path d="M13.805 5.275a1.08 1.08 0 100-2.158 1.08 1.08 0 000 2.158z"/></g><defs><clipPath id="bclip0"><path d="M0 0h18v18H0z"/></clipPath></defs></symbol><symbol viewBox="0 0 33 6" id="long-arrow" xmlns="http://www.w3.org/2000/svg"><path d="M33 3l-3.679-3v2.663H0v.667h29.321V6L33 3z"/></symbol></svg>