<?xml version="1.0" encoding="utf-8"?><svg xmlns="http://www.w3.org/2000/svg" xmlns:xlink="http://www.w3.org/1999/xlink"><symbol viewBox="0 0 11 12" id="arrow" xmlns="http://www.w3.org/2000/svg"><g clip-path="url(#aclip0_1052_448)"><path d="M11 9.3H9.9V2.375L.775 11.5 0 10.725 9.124 1.6H2.2V.5H11v8.8z"/></g><defs><clipPath id="aclip0_1052_448"><path transform="rotate(-90 5.75 5.75)" d="M0 0h11v11H0z"/></clipPath></defs></symbol><symbol viewBox="0 0 297.001 297.001" id="book" xmlns="http://www.w3.org/2000/svg"><path d="M287.034 60.873l-20.819-.001V39.321a9.965 9.965 0 00-8.49-9.856c-.852-.128-21.134-3.074-45.557 1.37-27.227 4.954-48.941 17.171-63.668 35.64-14.728-18.469-36.442-30.686-63.668-35.64-24.424-4.443-44.706-1.498-45.557-1.37a9.967 9.967 0 00-8.49 9.856v21.551H9.966C4.463 60.872 0 65.335 0 70.839v187.805a9.966 9.966 0 0013.244 9.412c.748-.259 75.431-25.747 131.12-.345a9.963 9.963 0 008.273 0c55.533-25.33 130.376.088 131.12.345a9.973 9.973 0 009.051-1.287 9.966 9.966 0 004.193-8.124V70.84c-.001-5.504-4.463-9.967-9.967-9.967zM19.933 245.309V80.805h10.852v132.726a9.968 9.968 0 003.458 7.539 9.972 9.972 0 007.969 2.319c.55-.08 43.846-6.024 75.478 15.679-38.965-6.663-77.963 1.044-97.757 6.241zm118.601-15.229c-13.932-12.588-32.079-21.1-53.702-25.034-10.406-1.894-20.06-2.446-27.78-2.446-2.292 0-4.414.049-6.333.126V48.473h-.001c19.155-.864 65.752 1.184 87.816 38.587v143.02zm19.932-143.019c21.985-37.243 68.655-39.384 87.816-38.563v154.228c-8.383-.338-20.62-.136-34.114 2.32-21.623 3.934-39.77 12.445-53.702 25.034V87.061zm20.811 152.013c31.636-21.716 74.955-15.766 75.495-15.686a9.965 9.965 0 0011.443-9.857V80.806h10.852v164.503c-19.8-5.199-58.814-12.909-97.79-6.235z"/></symbol><symbol viewBox="0 0 505.994 505.994" id="child" xmlns="http://www.w3.org/2000/svg"><path d="M216.784 280.57c0-26.935-21.913-48.848-48.848-48.848s-48.849 21.913-48.849 48.848h29.648c0-10.587 8.614-19.2 19.201-19.2s19.2 8.613 19.2 19.2zM338.058 231.721c-26.935 0-48.848 21.913-48.848 48.848h29.648c0-10.587 8.613-19.2 19.2-19.2s19.201 8.613 19.201 19.2h29.648c0-26.935-21.913-48.848-48.849-48.848zM252.997 367.32c-18.744 0-36.319-10.052-45.869-26.234l-25.534 15.066c14.856 25.176 42.216 40.815 71.402 40.815s56.546-15.639 71.402-40.815l-25.534-15.067c-9.548 16.182-27.124 26.235-45.867 26.235z"/><path d="M486.704 228.061c-9.442-9.431-21.299-15.667-34.169-18.109-27.794-85.888-108.42-145.023-199.538-145.023h-9.939c-23.868 0-43.286-19.419-43.286-43.286h-29.648c0 16.196 5.313 31.17 14.278 43.286h-9.393c-23.868 0-43.286-19.419-43.286-43.286h-29.648c0 32.213 20.999 59.596 50.02 69.226-45.899 25.234-81.875 67.29-98.635 119.083-12.87 2.442-24.73 8.68-34.18 18.12C6.847 240.518 0 257.056 0 274.64c0 17.368 6.7 33.754 18.867 46.141 9.509 9.681 21.518 16.069 34.593 18.548 27.792 85.888 108.418 145.022 199.537 145.022s171.744-59.134 199.537-145.022c13.075-2.479 25.084-8.867 34.593-18.548 12.167-12.387 18.867-28.773 18.867-46.141 0-17.584-6.847-34.122-19.29-46.579zm-45.85 82.771l-11.125.211-2.905 10.741c-21.164 78.26-92.644 132.918-173.828 132.918S100.333 400.045 79.17 321.784l-2.905-10.741-11.125-.211c-19.571-.37-35.493-16.605-35.493-36.192 0-9.671 3.767-18.768 10.595-25.604 6.659-6.652 15.501-10.413 24.895-10.589l11.127-.209 2.905-10.743c21.164-78.259 92.644-132.917 173.828-132.917 26.795 0 48.594 21.799 48.594 48.594s-21.799 48.595-48.594 48.595-48.594-21.799-48.594-48.594h-29.648c0 43.143 35.099 78.242 78.242 78.242s78.242-35.099 78.242-78.242a77.756 77.756 0 00-7.912-34.251c49.725 21.151 88.779 64.152 103.497 118.574l2.905 10.743 11.127.209c9.395.176 18.236 3.937 24.884 10.577 6.84 6.848 10.607 15.945 10.607 25.616-.001 19.587-15.923 35.822-35.493 36.191z"/></symbol><symbol viewBox="0 0 512 512" id="date" xmlns="http://www.w3.org/2000/svg"><path d="M446 40h-46V16c0-8.836-7.163-16-16-16s-16 7.164-16 16v24H144V16c0-8.836-7.163-16-16-16s-16 7.164-16 16v24H66C29.607 40 0 69.607 0 106v340c0 36.393 29.607 66 66 66h380c36.393 0 66-29.607 66-66V106c0-36.393-29.607-66-66-66zM66 72h46v16c0 8.836 7.163 16 16 16s16-7.164 16-16V72h224v16c0 8.836 7.163 16 16 16s16-7.164 16-16V72h46c18.748 0 34 15.252 34 34v38H32v-38c0-18.748 15.252-34 34-34zm380 408H66c-18.748 0-34-15.252-34-34V176h448v270c0 18.748-15.252 34-34 34z"/></symbol><symbol viewBox="0 0 16 16" id="download" xmlns="http://www.w3.org/2000/svg"><path d="M13.4 14.796a.6.6 0 010 1.2L3 15.999a.6.6 0 110-1.2l10.4-.003zM8.12.006L8.2 0a.6.6 0 01.595.518L8.8.6v10.948l2.977-2.976a.6.6 0 01.781-.058l.068.058a.6.6 0 01.058.78l-.059.068-3.997 3.998a.6.6 0 01-.781.058l-.068-.058L3.776 9.42a.6.6 0 01.781-.907l.067.057L7.6 11.542V.6A.6.6 0 018.12.006L8.2 0 8.12.006z"/></symbol><symbol viewBox="0 0 18 18" id="facebook" xmlns="http://www.w3.org/2000/svg"><g clip-path="url(#fclip0)"><path d="M11.998 2.989h1.643V.127A21.22 21.22 0 0011.247 0C8.878 0 7.255 1.49 7.255 4.23v2.52H4.641v3.2h2.614V18h3.206V9.95h2.508l.399-3.2H10.46V4.547c0-.924.25-1.557 1.538-1.557z"/></g><defs><clipPath id="fclip0"><path d="M0 0h18v18H0z"/></clipPath></defs></symbol><symbol viewBox="0 0 18 18" id="instagram" xmlns="http://www.w3.org/2000/svg"><g clip-path="url(#gclip0)"><path d="M9.003 4.378a4.618 4.618 0 100 9.237 4.618 4.618 0 100-9.237zm0 7.617a2.997 2.997 0 110-5.996 2.997 2.997 0 110 5.996z"/><path d="M12.711.057c-1.656-.077-5.758-.073-7.415 0-1.457.068-2.741.42-3.777 1.456C-.212 3.243.009 5.576.009 8.997c0 3.501-.195 5.78 1.51 7.484 1.738 1.737 4.104 1.51 7.484 1.51 3.468 0 4.665.002 5.891-.473 1.668-.647 2.926-2.137 3.05-4.814.077-1.657.073-5.757 0-7.415-.15-3.16-1.845-5.076-5.233-5.232zm2.621 15.279c-1.134 1.135-2.709 1.033-6.35 1.033-3.75 0-5.254.056-6.352-1.044-1.263-1.258-1.035-3.278-1.035-6.34 0-4.144-.425-7.128 3.734-7.341.955-.034 1.237-.045 3.642-.045l.034.023c3.996 0 7.132-.419 7.32 3.739.043.949.053 1.234.053 3.635 0 3.707.07 5.22-1.046 6.34z"/><path d="M13.805 5.275a1.08 1.08 0 100-2.158 1.08 1.08 0 000 2.158z"/></g><defs><clipPath id="gclip0"><path d="M0 0h18v18H0z"/></clipPath></defs></symbol><symbol viewBox="0 0 26 10" id="long-arrow" xmlns="http://www.w3.org/2000/svg"><path d="M25.509 5l-6.131-5v4.438H0V5.55h19.378V10l6.13-5z"/></symbol><symbol viewBox="0 0 512 512" id="pen" xmlns="http://www.w3.org/2000/svg"><path d="M498.125 92.38L419.62 13.874c-18.496-18.497-48.436-18.5-66.935 0-13.167 13.169-302.639 302.642-308.16 308.161a16.878 16.878 0 00-4.46 7.915L.502 491.068c-3.036 12.368 8.186 23.44 20.431 20.432l161.117-39.564a16.878 16.878 0 007.915-4.46l308.161-308.161c18.496-18.497 18.501-48.436-.001-66.935zM39.957 472.043l1.612-6.562 4.951 4.951-6.563 1.611zm44.917-11.029l-33.887-33.887 14.736-60.009 79.16 79.16-60.009 14.736zm93.148-29.367l-97.668-97.668L332.559 81.773l97.668 97.668-252.205 252.206zM474.24 135.429l-19.508 19.507-97.667-97.668 19.507-19.507c5.294-5.293 13.867-5.298 19.163 0l78.506 78.507c5.295 5.295 5.295 13.864-.001 19.161z"/></symbol><symbol viewBox="0 0 16 16" id="phone" xmlns="http://www.w3.org/2000/svg"><path d="M13.725 15.492a1.764 1.764 0 001.767-1.762v-2.366c0-.897-.67-1.65-1.558-1.75a8.58 8.58 0 01-1.544-.32 1.76 1.76 0 00-1.764.435l-.959.959a11.053 11.053 0 01-4.37-4.37l.958-.96a1.76 1.76 0 00.435-1.764 8.581 8.581 0 01-.32-1.543A1.757 1.757 0 004.62.492H2.254A1.764 1.764 0 00.5 2.421a14.35 14.35 0 001.337 4.87 14.46 14.46 0 002.839 4.018 14.459 14.459 0 004.016 2.839 14.356 14.356 0 004.872 1.337c.054.005.107.007.161.007zm-1.857-5.104c.06 0 .12.009.18.027.57.174 1.16.297 1.755.364a.586.586 0 01.517.585v2.366a.59.59 0 01-.65.588A13.28 13.28 0 011.668 2.313a.59.59 0 01.587-.649H4.62c.3 0 .552.223.586.518.067.594.19 1.185.364 1.755a.59.59 0 01-.143.593L3.866 6.09l.188.378a12.216 12.216 0 005.463 5.463l.377.187 1.56-1.56c.111-.11.26-.17.414-.17z"/></symbol><symbol viewBox="0 0 512 512" id="play" xmlns="http://www.w3.org/2000/svg"><path d="M256 0C114.833 0 0 114.844 0 256s114.833 256 256 256 256-114.844 256-256S397.167 0 256 0zm101.771 264.969l-149.333 96a10.62 10.62 0 01-5.771 1.698c-1.75 0-3.521-.438-5.104-1.302A10.653 10.653 0 01192 352V160c0-3.906 2.125-7.49 5.563-9.365 3.375-1.854 7.604-1.74 10.875.396l149.333 96c3.042 1.958 4.896 5.344 4.896 8.969s-1.854 7.01-4.896 8.969z"/></symbol><symbol viewBox="0 0 17 16" id="slider-arrow" xmlns="http://www.w3.org/2000/svg"><path d="M3.5 14.313L5.241 16 13.5 8 5.241 0 3.5 1.687 9.887 8 3.5 14.313z"/></symbol><symbol viewBox="0 -10 511.987 511" id="star" xmlns="http://www.w3.org/2000/svg"><path d="M114.594 491.14c-5.61 0-11.18-1.75-15.934-5.187a27.223 27.223 0 01-10.582-28.094l32.938-145.09L9.312 214.81a27.188 27.188 0 01-7.976-28.907 27.208 27.208 0 0123.402-18.71l147.797-13.419L230.97 17.027C235.277 6.98 245.089.492 255.992.492s20.715 6.488 25.024 16.512l58.433 136.77 147.774 13.417c10.882.98 20.054 8.344 23.425 18.711 3.372 10.368.254 21.739-7.957 28.907L390.988 312.75l32.938 145.086c2.414 10.668-1.727 21.7-10.578 28.098-8.832 6.398-20.61 6.89-29.91 1.3l-127.446-76.16-127.445 76.203c-4.309 2.559-9.11 3.864-13.953 3.864zm141.398-112.874c4.844 0 9.64 1.3 13.953 3.859l120.278 71.938-31.086-136.942a27.21 27.21 0 018.62-26.516l105.473-92.5-139.543-12.671a27.18 27.18 0 01-22.613-16.493L255.992 39.895 200.844 168.96c-3.883 9.195-12.524 15.512-22.547 16.43L38.734 198.062l105.47 92.5c7.554 6.614 10.858 16.77 8.62 26.54l-31.062 136.937 120.277-71.914c4.309-2.559 9.11-3.86 13.953-3.86zm-84.586-221.848s0 .023-.023.043zm169.13-.063l.023.043c0-.023 0-.023-.024-.043zm0 0"/></symbol><symbol viewBox="0 0 16 16" id="user" xmlns="http://www.w3.org/2000/svg"><path d="M13.657 10.343a7.97 7.97 0 00-3.04-1.907 4.623 4.623 0 002.008-3.811A4.63 4.63 0 008 0a4.63 4.63 0 00-4.625 4.625c0 1.58.796 2.977 2.008 3.811a7.97 7.97 0 00-3.04 1.907A7.948 7.948 0 000 16h1.25A6.758 6.758 0 018 9.25 6.758 6.758 0 0114.75 16H16a7.948 7.948 0 00-2.343-5.657zM8 8a3.379 3.379 0 01-3.375-3.375A3.379 3.379 0 018 1.25a3.379 3.379 0 013.375 3.375A3.379 3.379 0 018 8z"/></symbol><symbol viewBox="0 0 176 123" id="wing" xmlns="http://www.w3.org/2000/svg"><path d="M170.927 113.075A422.235 422.235 0 00181.795 3.848C123.183-4.269 63.553.49 6.879 17.806L3.195 19.07A4.662 4.662 0 001.1 20.52a4.823 4.823 0 00-1.047 2.355 4.873 4.873 0 00.308 2.568c.332.81.877 1.511 1.573 2.026 13.434 8.112 42.75 19.373 86.059 2.147l-59.752 23.86a4.932 4.932 0 00-2.175 1.646 5.136 5.136 0 00-.508 5.3 4.995 4.995 0 001.82 2.048c12.548 7.73 39.602 18.18 74.328-7.611-5.97 4.438-25.654 18.658-38.155 28.106a4.993 4.993 0 00-1.628 2.092 5.116 5.116 0 00-.344 2.651c.122.9.48 1.748 1.038 2.455a4.903 4.903 0 002.124 1.558c12.174 4.605 35.566 8.566 55.973-16.367-9.096 11.142-16.326 19.97-22.016 26.937a5.085 5.085 0 00-1.055 2.315 5.145 5.145 0 00.192 2.546 5.047 5.047 0 001.388 2.122c.633.574 1.4.971 2.227 1.153 13.13 3.149 29.176-1.956 39.204-21.64l-11.498 22.547a5.113 5.113 0 00.218 5.079 4.94 4.94 0 001.921 1.754 4.805 4.805 0 002.526.515c9.189-.286 19.451-5.511 24.721-22.427-2.192 6.322-3.964 13.48-5.667 19.755a5.168 5.168 0 00-.014 2.553 5.094 5.094 0 001.207 2.235 4.923 4.923 0 002.121 1.347 4.829 4.829 0 002.493.116 16.527 16.527 0 007.2-3.089 17.012 17.012 0 005.044-6.097z"/></symbol></svg>