<svg width="68" height="96" viewBox="0 0 68 96" fill="none" xmlns="http://www.w3.org/2000/svg">
<g clip-path="url(#clip0)">
<path d="M67.9999 16.4302V52.6223C68.0213 63.2131 63.8655 73.3822 56.4399 80.9091L56.3029 81.0484C49.919 87.4532 42.3405 92.5337 34 96C25.6314 92.5227 18.0306 87.4195 11.6348 80.9841C4.16855 73.4469 -0.0153178 63.2474 4.21434e-05 52.6205V16.4302C4.21434e-05 15.9565 0.187588 15.5021 0.521422 15.1672C0.855256 14.8322 1.30803 14.644 1.78014 14.644H66.2198C66.6919 14.644 67.1447 14.8322 67.4785 15.1672C67.8124 15.5021 67.9999 15.9565 67.9999 16.4302Z" fill="#B787B4"/>
<path d="M31.9355 50.8018C31.9276 50.6789 31.8883 50.56 31.8214 50.4568C31.7544 50.3536 31.662 50.2697 31.5533 50.213C31.4445 50.1564 31.323 50.1291 31.2007 50.1337C31.0783 50.1383 30.9592 50.1747 30.855 50.2393C30.0814 50.7215 29.2014 51.2518 28.4332 51.7715C30.4948 50.3768 30.7751 48.7626 30.438 47.4858C30.4059 47.3665 30.3437 47.2577 30.2573 47.1699C30.1709 47.0821 30.0634 47.0184 29.9453 46.9849C29.8271 46.9514 29.7023 46.9494 29.5831 46.979C29.464 47.0085 29.3544 47.0687 29.2653 47.1536L26.7015 49.6429C28.937 47.484 28.9672 45.0822 28.0074 43.4054C27.9481 43.2996 27.863 43.2107 27.7601 43.1471C27.6572 43.0836 27.5399 43.0476 27.4193 43.0424C27.2987 43.0372 27.1788 43.063 27.0709 43.1175C26.963 43.172 26.8707 43.2532 26.8027 43.3536L24.0793 47.4411C26.5986 43.6608 25.1101 40.6126 23.9941 39.1268C23.9174 39.0255 23.8153 38.9467 23.6982 38.8985C23.5811 38.8503 23.4533 38.8345 23.3281 38.8527C23.2028 38.8709 23.0847 38.9225 22.986 39.0021C22.8872 39.0817 22.8114 39.1864 22.7664 39.3054C22.0052 41.384 20.8981 44.6626 20.5486 45.6554C22.5836 39.8715 20.0713 36.5786 18.5012 35.1858C18.4024 35.0988 18.2817 35.0411 18.1523 35.019C18.0229 34.9969 17.89 35.0114 17.7683 35.0608C17.6466 35.1102 17.5409 35.1926 17.4629 35.2988C17.385 35.4051 17.3378 35.531 17.3266 35.6626C17.1687 37.5661 16.86 41.3108 16.5708 44.8001C17.1191 38.1751 14.4045 34.6072 12.7652 33.0858C12.6646 32.9906 12.5387 32.927 12.4029 32.9028C12.267 32.8786 12.127 32.8947 12.0001 32.9493C11.8733 33.0039 11.7649 33.0945 11.6884 33.2101C11.6119 33.3257 11.5705 33.4612 11.5693 33.6001V33.8233C11.5676 37.7973 11.9557 41.7617 12.7279 45.659C12.7385 45.7161 12.751 45.7733 12.7634 45.8376C12.9704 46.8709 13.2069 47.8959 13.4731 48.9126C13.4873 48.9626 13.4997 49.0126 13.5121 49.0626C13.5724 49.2983 13.6363 49.5322 13.6895 49.7643C13.7037 49.8179 13.7197 49.8697 13.7339 49.9233C13.7711 50.0626 13.8084 50.2036 13.8474 50.3411C13.9184 50.584 13.9876 50.8251 14.0586 51.0643L14.071 51.0965C14.8327 53.6611 15.7657 56.171 16.8636 58.609C19.4874 57.9248 22.0614 57.0596 24.5672 56.0197C24.6985 55.9679 24.828 55.9143 24.9575 55.859H24.9752C25.2201 55.7554 25.4649 55.6501 25.708 55.5429C25.9812 55.4239 26.2539 55.3013 26.5259 55.1751L26.7033 55.0965L27.5212 54.7108C27.6507 54.6483 27.782 54.5876 27.9116 54.5322C28.0411 54.4768 28.1369 54.4233 28.2487 54.3661C28.4811 54.2519 28.7117 54.134 28.9424 54.009C29.134 53.9108 29.3238 53.8126 29.5119 53.7126H29.5243L30.5285 53.1768C31.5114 52.5929 31.9905 52.0268 31.9355 50.8018Z" fill="#F2F2F1"/>
<path d="M55.3722 50.7803C54.0256 52.9232 50.9651 56.6018 45.4864 57.2839L53.4579 56.2893C53.5949 56.2719 53.7339 56.2952 53.858 56.3561C53.982 56.4171 54.0857 56.5132 54.1563 56.6326C54.227 56.752 54.2614 56.8896 54.2556 57.0284C54.2497 57.1673 54.2037 57.3013 54.1232 57.4143C52.7925 59.2839 49.7533 62.4696 44.601 62.2053L50.6493 62.5125C50.7823 62.5195 50.9107 62.564 51.0198 62.6411C51.1288 62.7181 51.2142 62.8244 51.266 62.9479C51.3178 63.0714 51.3341 63.2071 51.3129 63.3395C51.2916 63.4719 51.2339 63.5956 51.1461 63.6964C49.5741 65.5089 46.5331 67.5482 42.0551 66.5196L47.0565 67.6786C47.1655 67.7036 47.2671 67.7542 47.353 67.8263C47.4388 67.8983 47.5066 67.9898 47.5507 68.0932C47.5948 68.1965 47.614 68.309 47.6067 68.4212C47.5995 68.5335 47.566 68.6425 47.509 68.7393C47.1044 69.4375 46.2936 70.3464 44.7359 70.6821C43.3875 70.9678 41.4784 70.8161 38.787 69.7071L42.6494 71.2982C42.7567 71.3427 42.8515 71.413 42.9255 71.503C42.9995 71.5929 43.0505 71.6998 43.074 71.8141C43.0974 71.9285 43.0927 72.047 43.0601 72.159C43.0275 72.2711 42.9681 72.3735 42.8872 72.4571C42.4383 72.925 41.6789 73.4196 40.4689 73.4482C39.3494 73.4786 37.8431 73.1071 35.8382 71.9428L36.2321 72.1982C37.0891 72.7803 38.9679 74.2036 37.9052 74.8768C36.6065 75.6964 33.2745 73.4178 33.0084 73.2339C33.4147 73.5643 35.6697 75.4678 34.3692 75.8839H34.3532L34.2716 75.9036C33.0297 76.1696 31.078 74.3607 30.7959 74.0946L30.819 74.1196L30.8509 74.1518L30.8882 74.1893C31.2892 74.6071 32.1763 75.6536 31.7114 76.0803C31.5109 76.2321 31.0319 76.1732 30.4695 76.0232C28.8697 75.5867 27.4354 74.6803 26.3498 73.4196C22.4804 68.98 19.2832 63.9899 16.8613 58.6107C19.4852 57.9265 22.0591 57.0613 24.5649 56.0214C24.6962 55.9696 24.8257 55.9143 24.9553 55.8589C24.9611 55.8602 24.9672 55.8602 24.973 55.8589C25.2178 55.7536 25.4627 55.65 25.7057 55.5428L25.7909 55.5036L26.2806 55.2839L26.5237 55.175L26.662 55.1107C27.0754 54.9214 27.487 54.7268 27.8933 54.5268H27.904L28.2411 54.3607L28.635 54.1625L28.8035 54.0768L28.9348 54.0107L29.5043 53.7143H29.5167L29.5309 53.7053L29.5504 53.6946C30.5227 53.1815 31.4784 52.6422 32.4176 52.0768C38.5776 48.375 46.8348 40.3143 50.5908 35.5036C50.6734 35.3974 50.7837 35.3165 50.9095 35.2701C51.0352 35.2236 51.1713 35.2133 51.3026 35.2404C51.4338 35.2674 51.5549 35.3308 51.6523 35.4234C51.7497 35.5159 51.8196 35.634 51.854 35.7643C53.9014 43.75 43.0788 49.1071 43.0788 49.1071C44.5141 48.4375 50.4949 44.5286 53.4845 42.9107C53.5989 42.849 53.7279 42.8201 53.8576 42.8271C53.9872 42.8341 54.1124 42.8768 54.2196 42.9504C54.3268 43.0241 54.4119 43.1259 54.4656 43.2449C54.5193 43.3638 54.5395 43.4953 54.5242 43.625C53.9813 48.3571 50.8675 50.7857 44.6862 52.6536L54.5739 49.7321C54.7096 49.6953 54.8531 49.6999 54.9863 49.7454C55.1194 49.7908 55.2361 49.875 55.3217 49.9873C55.4072 50.0995 55.4576 50.2349 55.4666 50.3761C55.4757 50.5173 55.4428 50.658 55.3722 50.7803Z" fill="white"/>
<path d="M13.0544 22.78V25.6693H12.6748V23.1497H11.0212V25.6693H10.6504V22.78H13.0544Z" fill="white"/>
<path d="M15.3966 22.7106C15.592 22.7072 15.786 22.7445 15.9665 22.82C16.1469 22.8956 16.3099 23.0079 16.4452 23.1498C16.7206 23.4377 16.8744 23.8217 16.8744 24.2213C16.8744 24.6209 16.7206 25.0049 16.4452 25.2927C16.3099 25.4346 16.1469 25.5469 15.9665 25.6225C15.786 25.6981 15.592 25.7354 15.3966 25.732C15.1644 25.7416 14.934 25.6875 14.7299 25.5756C14.5259 25.4636 14.3559 25.2979 14.2381 25.0963V26.8195H13.8584V22.7802H14.2381V23.3463C14.3559 23.1446 14.5259 22.979 14.7299 22.867C14.934 22.755 15.1644 22.701 15.3966 22.7106ZM14.5645 25.032C14.7787 25.2446 15.0674 25.3639 15.3682 25.3639C15.6691 25.3639 15.9578 25.2446 16.172 25.032C16.3824 24.8146 16.5002 24.523 16.5002 24.2195C16.5002 23.9159 16.3824 23.6244 16.172 23.407C15.9578 23.1943 15.6691 23.0751 15.3682 23.0751C15.0674 23.0751 14.7787 23.1943 14.5645 23.407C14.3553 23.6251 14.2384 23.9164 14.2384 24.2195C14.2384 24.5226 14.3553 24.8139 14.5645 25.032Z" fill="white"/>
<path d="M19.6016 22.78H19.9227V25.6693H19.543V23.4443L17.8327 25.6693H17.5098V22.78H17.8894V24.9997L19.6016 22.78Z" fill="white"/>
<path d="M22.5522 24.184C22.6953 24.2265 22.8199 24.3165 22.9056 24.4394C22.9913 24.5623 23.0331 24.7109 23.0242 24.8607C23.0275 24.9684 23.0086 25.0756 22.9686 25.1755C22.9286 25.2754 22.8683 25.3659 22.7917 25.4411C22.7008 25.5219 22.5949 25.5837 22.4801 25.6229C22.3653 25.6622 22.2438 25.6781 22.1229 25.6697H20.7266V22.7804H22.0058C22.2418 22.7655 22.4744 22.8429 22.6551 22.9965C22.7306 23.0678 22.7901 23.1546 22.8296 23.251C22.869 23.3474 22.8876 23.4512 22.884 23.5554C22.8928 23.6809 22.8663 23.8064 22.8077 23.9176C22.749 24.0287 22.6605 24.121 22.5522 24.184ZM22.0058 23.15H21.1045V24.0286H22.0058C22.3393 24.0286 22.5043 23.8786 22.5043 23.5768C22.5075 23.5182 22.4977 23.4596 22.4756 23.4052C22.4535 23.3509 22.4197 23.3021 22.3766 23.2625C22.2705 23.1812 22.1388 23.1412 22.0058 23.15ZM22.1211 25.2929C22.2605 25.302 22.3983 25.2587 22.5079 25.1715C22.5539 25.1281 22.5899 25.0751 22.6132 25.0161C22.6365 24.9572 22.6466 24.8937 22.6427 24.8304C22.6453 24.7701 22.6345 24.71 22.6112 24.6544C22.5879 24.5988 22.5526 24.5491 22.5079 24.509C22.3974 24.4237 22.26 24.3818 22.1211 24.3911H21.1045V25.2929H22.1211Z" fill="white"/>
<path d="M26.0666 22.7803H26.4409V25.6696H26.0613V25.1035C25.9429 25.3051 25.7725 25.4706 25.5682 25.5825C25.3639 25.6945 25.1333 25.7486 24.9009 25.7393C24.7058 25.7424 24.5122 25.705 24.3321 25.6294C24.1519 25.5538 23.9893 25.4417 23.8541 25.3C23.5775 25.0128 23.4229 24.6285 23.4229 24.2285C23.4229 23.8286 23.5775 23.4443 23.8541 23.1571C23.9893 23.0154 24.1519 22.9033 24.3321 22.8277C24.5122 22.7521 24.7058 22.7147 24.9009 22.7178C25.1333 22.7085 25.3639 22.7626 25.5682 22.8746C25.7725 22.9865 25.9429 23.152 26.0613 23.3535L26.0666 22.7803ZM24.1345 25.0375C24.3486 25.2501 24.6374 25.3694 24.9382 25.3694C25.239 25.3694 25.5278 25.2501 25.7419 25.0375C25.9511 24.8194 26.0681 24.5281 26.0681 24.225C26.0681 23.9218 25.9511 23.6305 25.7419 23.4125C25.5278 23.1979 25.2378 23.0778 24.9357 23.0785C24.6336 23.0791 24.3441 23.2006 24.1309 23.416C23.9178 23.6315 23.7984 23.9234 23.7991 24.2275C23.7997 24.5316 23.9204 24.8229 24.1345 25.0375Z" fill="white"/>
<path d="M29.3174 22.78V23.1497H28.3008V25.6693H27.9229V23.1497H26.9062V22.78H29.3174Z" fill="white"/>
<path d="M31.8096 22.78H32.1893V25.6693H31.8096V24.4104H30.156V25.6693H29.7764V22.78H30.156V24.039H31.8096V22.78Z" fill="white"/>
<path d="M35.4627 22.7803H35.8441V25.6696H35.4662V25.1035C35.3479 25.3051 35.1775 25.4706 34.9732 25.5825C34.7689 25.6945 34.5383 25.7486 34.3059 25.7393C34.1105 25.7426 33.9165 25.7054 33.7361 25.6298C33.5556 25.5542 33.3927 25.4419 33.2573 25.3C32.982 25.0122 32.8281 24.6281 32.8281 24.2285C32.8281 23.829 32.982 23.4449 33.2573 23.1571C33.3927 23.0152 33.5556 22.9029 33.7361 22.8273C33.9165 22.7517 34.1105 22.7145 34.3059 22.7178C34.5383 22.7085 34.7689 22.7626 34.9732 22.8746C35.1775 22.9865 35.3479 23.152 35.4662 23.3535L35.4627 22.7803ZM33.527 25.0375C33.7412 25.2501 34.0299 25.3694 34.3307 25.3694C34.6316 25.3694 34.9203 25.2501 35.1345 25.0375C35.3449 24.8201 35.4627 24.5285 35.4627 24.225C35.4627 23.9214 35.3449 23.6299 35.1345 23.4125C34.9203 23.1998 34.6316 23.0806 34.3307 23.0806C34.0299 23.0806 33.7412 23.1998 33.527 23.4125C33.3166 23.6299 33.1988 23.9214 33.1988 24.225C33.1988 24.5285 33.3166 24.8201 33.527 25.0375Z" fill="white"/>
<path d="M39.9252 22.78V23.1497H38.4668V25.6693H38.0889V22.78H39.9252Z" fill="white"/>
<path d="M40.7622 22.0855C40.7237 22.1245 40.6746 22.1511 40.6211 22.1619C40.5675 22.1727 40.512 22.1672 40.4616 22.1461C40.4112 22.1251 40.3681 22.0894 40.3379 22.0436C40.3077 21.9978 40.2917 21.944 40.292 21.8891C40.2915 21.8526 40.2984 21.8164 40.3121 21.7827C40.3258 21.7489 40.3461 21.7183 40.3719 21.6926C40.4239 21.6411 40.494 21.6123 40.567 21.6123C40.64 21.6123 40.7101 21.6411 40.7622 21.6926C40.7879 21.7183 40.8082 21.7489 40.822 21.7827C40.8357 21.8164 40.8425 21.8526 40.842 21.8891C40.8428 21.9256 40.8361 21.9618 40.8224 21.9956C40.8087 22.0294 40.7882 22.06 40.7622 22.0855ZM40.3772 25.6694V22.7801H40.7569V25.6694H40.3772Z" fill="white"/>
<path d="M44.3741 22.78V25.6693H43.9944V23.364L42.9902 24.9997H42.9405L41.9363 23.3586V25.664H41.5566V22.78H41.9931L42.9636 24.364L43.9341 22.78H44.3741Z" fill="white"/>
<path d="M47.211 22.78H47.5906V25.6693H47.211V24.4104H45.5574V25.6693H45.1777V22.78H45.5574V24.039H47.211V22.78Z" fill="white"/>
<path d="M50.8647 22.7803H51.2426V25.6696H50.8647V25.1035C50.7463 25.3051 50.5759 25.4706 50.3716 25.5825C50.1674 25.6945 49.9368 25.7486 49.7043 25.7393C49.5089 25.7426 49.3149 25.7054 49.1345 25.6298C48.9541 25.5542 48.7911 25.4419 48.6558 25.3C48.3804 25.0122 48.2266 24.6281 48.2266 24.2285C48.2266 23.829 48.3804 23.4449 48.6558 23.1571C48.7911 23.0152 48.9541 22.9029 49.1345 22.8273C49.3149 22.7517 49.5089 22.7145 49.7043 22.7178C49.9368 22.7085 50.1674 22.7626 50.3716 22.8746C50.5759 22.9865 50.7463 23.152 50.8647 23.3535V22.7803ZM48.929 25.0375C49.1432 25.2501 49.4319 25.3694 49.7327 25.3694C50.0336 25.3694 50.3223 25.2501 50.5364 25.0375C50.7469 24.8201 50.8647 24.5285 50.8647 24.225C50.8647 23.9214 50.7469 23.6299 50.5364 23.4125C50.3223 23.1998 50.0336 23.0806 49.7327 23.0806C49.4319 23.0806 49.1432 23.1998 48.929 23.4125C48.7185 23.6299 48.6008 23.9214 48.6008 24.225C48.6008 24.5285 48.7185 24.8201 48.929 25.0375Z" fill="white"/>
<path d="M53.5277 24.1839C53.6762 24.2268 53.8061 24.3186 53.8968 24.4445C53.9875 24.5703 54.0337 24.7232 54.028 24.8785C54.0291 24.9944 54.0047 25.1091 53.9565 25.2144C53.9084 25.3197 53.8377 25.4129 53.7495 25.4875C53.5251 25.6683 53.2415 25.7581 52.9546 25.7392C52.3763 25.7392 51.9972 25.5083 51.8174 25.0464L52.1385 24.8553C52.2568 25.1982 52.5288 25.3696 52.9546 25.3696C53.1369 25.3813 53.3177 25.3303 53.4674 25.225C53.5239 25.1818 53.5694 25.1258 53.6002 25.0616C53.6311 24.9973 53.6463 24.9267 53.6448 24.8553C53.6465 24.7925 53.634 24.7301 53.6081 24.6728C53.5823 24.6156 53.5439 24.565 53.4958 24.525C53.3815 24.4357 53.2392 24.3907 53.0948 24.3982H52.6743V24.0285H52.9795C53.1194 24.0373 53.2576 23.9927 53.3663 23.9035C53.4131 23.8587 53.45 23.8044 53.4744 23.7442C53.4988 23.6839 53.5102 23.6192 53.5079 23.5541C53.5055 23.4891 53.4895 23.4254 53.4608 23.3671C53.4321 23.3088 53.3914 23.2573 53.3414 23.216C53.247 23.1532 53.1405 23.1109 53.0288 23.0918C52.9172 23.0728 52.8028 23.0775 52.6931 23.1056C52.5833 23.1337 52.4806 23.1845 52.3915 23.2549C52.3024 23.3253 52.2289 23.4136 52.1758 23.5142L51.86 23.3357C51.9476 23.138 52.0939 22.9724 52.2788 22.8618C52.4637 22.7512 52.6781 22.7009 52.8926 22.7178C53.1549 22.705 53.4127 22.7902 53.6164 22.9571C53.702 23.0286 53.7706 23.1185 53.8173 23.2201C53.864 23.3218 53.8875 23.4326 53.8861 23.5446C53.8929 23.6744 53.8628 23.8035 53.7993 23.9167C53.7359 24.03 53.6416 24.1226 53.5277 24.1839Z" fill="white"/>
<path d="M54.9875 22.0857C54.9488 22.1244 54.8995 22.1508 54.846 22.1614C54.7925 22.1721 54.737 22.1666 54.6865 22.1456C54.6361 22.1246 54.593 22.089 54.5625 22.0434C54.5321 21.9978 54.5158 21.9442 54.5155 21.8892C54.5125 21.8509 54.5173 21.8123 54.5298 21.776C54.5423 21.7396 54.5621 21.7063 54.588 21.678C54.614 21.6498 54.6454 21.6272 54.6804 21.6118C54.7154 21.5963 54.7532 21.5884 54.7914 21.5884C54.8296 21.5884 54.8674 21.5963 54.9024 21.6118C54.9374 21.6272 54.9689 21.6498 54.9948 21.678C55.0207 21.7063 55.0405 21.7396 55.053 21.776C55.0655 21.8123 55.0704 21.8509 55.0673 21.8892C55.0681 21.9257 55.0614 21.962 55.0477 21.9958C55.034 22.0296 55.0135 22.0602 54.9875 22.0857ZM54.6025 25.6696V22.7803H54.9804V25.6696H54.6025Z" fill="white"/>
<path d="M57.8529 22.7801V25.6694H57.4733V24.5605H56.98L56.0929 25.6694H55.6104L56.5187 24.548C56.3013 24.5208 56.1 24.4186 55.9492 24.2587C55.8757 24.1813 55.8181 24.09 55.7797 23.9901C55.7413 23.8902 55.723 23.7836 55.7257 23.6765C55.7218 23.555 55.7448 23.4342 55.793 23.3227C55.8411 23.2112 55.9133 23.1119 56.0042 23.0319C56.1912 22.8637 56.4348 22.7737 56.6855 22.7801H57.8529ZM56.6873 24.2087H57.4733V23.1569H56.6873C56.5372 23.153 56.3908 23.2044 56.2757 23.3015C56.2225 23.3496 56.18 23.4084 56.1509 23.4741C56.1218 23.5398 56.1068 23.6109 56.1068 23.6828C56.1068 23.7547 56.1218 23.8258 56.1509 23.8915C56.18 23.9572 56.2225 24.016 56.2757 24.064C56.3918 24.1586 56.5381 24.2075 56.6873 24.2015V24.2087Z" fill="white"/>
<path d="M27.8555 86.1769V85.8198L29.3014 84.3537C29.7131 83.9376 29.9206 83.5823 29.9206 83.2823C29.927 83.1703 29.909 83.0583 29.8679 82.9541C29.8269 82.8498 29.7637 82.7559 29.6829 82.6787C29.5272 82.5352 29.3227 82.4572 29.1116 82.4608C28.9216 82.4534 28.7339 82.504 28.573 82.606C28.4122 82.708 28.2857 82.8566 28.2103 83.0323L27.8714 82.8305C27.9846 82.5944 28.1641 82.397 28.3877 82.2626C28.6068 82.1323 28.8572 82.065 29.1116 82.068C29.4245 82.0657 29.7268 82.1824 29.9579 82.3948C30.0804 82.5072 30.1766 82.6456 30.2395 82.8C30.3024 82.9544 30.3305 83.121 30.3216 83.2876C30.3199 83.5265 30.2524 83.7602 30.1265 83.9626C29.9703 84.2109 29.7857 84.4398 29.5765 84.6448L28.4285 85.793H30.4086V86.1858L27.8555 86.1769Z" fill="white"/>
<path d="M33.5096 85.6768C33.3798 85.8534 33.2106 85.9968 33.0157 86.0956C32.8208 86.1944 32.6057 86.2459 32.3874 86.2459C32.1692 86.2459 31.954 86.1944 31.7591 86.0956C31.5643 85.9968 31.3951 85.8534 31.2652 85.6768C31.005 85.2138 30.8682 84.6909 30.8682 84.159C30.8682 83.627 31.005 83.1041 31.2652 82.6411C31.3951 82.4646 31.5643 82.3212 31.7591 82.2223C31.954 82.1235 32.1692 82.072 32.3874 82.072C32.6057 82.072 32.8208 82.1235 33.0157 82.2223C33.2106 82.3212 33.3798 82.4646 33.5096 82.6411C33.7689 83.1044 33.9051 83.6272 33.9051 84.159C33.9051 84.6907 33.7689 85.2135 33.5096 85.6768ZM31.558 85.409C31.6484 85.5456 31.7709 85.6577 31.9147 85.7352C32.0584 85.8127 32.219 85.8533 32.3821 85.8533C32.5452 85.8533 32.7058 85.8127 32.8496 85.7352C32.9933 85.6577 33.1158 85.5456 33.2062 85.409C33.3988 85.0208 33.499 84.5929 33.499 84.159C33.499 83.7251 33.3988 83.2972 33.2062 82.909C33.1158 82.7723 32.9933 82.6603 32.8496 82.5828C32.7058 82.5052 32.5452 82.4647 32.3821 82.4647C32.219 82.4647 32.0584 82.5052 31.9147 82.5828C31.7709 82.6603 31.6484 82.7723 31.558 82.909C31.3654 83.2972 31.2652 83.7251 31.2652 84.159C31.2652 84.5929 31.3654 85.0208 31.558 85.409Z" fill="white"/>
<path d="M34.3672 86.1769V85.8197L35.8132 84.3537C36.2272 83.9382 36.4336 83.5811 36.4324 83.2822C36.4392 83.1702 36.4214 83.0581 36.3803 82.9538C36.3393 82.8495 36.2758 82.7555 36.1946 82.6787C36.0391 82.5348 35.8345 82.4568 35.6233 82.4608C35.4336 82.4535 35.2461 82.5042 35.0856 82.6062C34.925 82.7082 34.7989 82.8567 34.7238 83.0322L34.3849 82.8305C34.4981 82.5944 34.6776 82.397 34.9012 82.2626C35.1197 82.1325 35.3695 82.0652 35.6233 82.068C35.9365 82.0646 36.2391 82.1815 36.4696 82.3947C36.5925 82.507 36.689 82.6453 36.7522 82.7998C36.8154 82.9542 36.8437 83.1208 36.8351 83.2876C36.8334 83.5265 36.7659 83.7601 36.64 83.9626C36.4837 84.2113 36.2985 84.4403 36.0882 84.6447L34.942 85.793H36.9203V86.1858L34.3672 86.1769Z" fill="white"/>
<path d="M40.0215 85.6768C39.8919 85.8534 39.7229 85.9968 39.5281 86.0956C39.3334 86.1945 39.1183 86.2459 38.9002 86.2459C38.6821 86.2459 38.4671 86.1945 38.2723 86.0956C38.0776 85.9968 37.9086 85.8534 37.7789 85.6768C37.5186 85.2139 37.3818 84.691 37.3818 84.159C37.3818 83.627 37.5186 83.1041 37.7789 82.6411C37.9086 82.4646 38.0776 82.3212 38.2723 82.2223C38.4671 82.1235 38.6821 82.072 38.9002 82.072C39.1183 82.072 39.3334 82.1235 39.5281 82.2223C39.7229 82.3212 39.8919 82.4646 40.0215 82.6411C40.2818 83.1041 40.4186 83.627 40.4186 84.159C40.4186 84.691 40.2818 85.2139 40.0215 85.6768ZM38.0699 85.409C38.1601 85.5456 38.2824 85.6577 38.426 85.7353C38.5697 85.8128 38.7301 85.8534 38.8931 85.8534C39.0561 85.8534 39.2166 85.8128 39.3602 85.7353C39.5038 85.6577 39.6262 85.5456 39.7164 85.409C39.91 85.0211 40.0109 84.5931 40.0109 84.159C40.0109 83.7249 39.91 83.2968 39.7164 82.909C39.6262 82.7723 39.5038 82.6602 39.3602 82.5827C39.2166 82.5052 39.0561 82.4646 38.8931 82.4646C38.7301 82.4646 38.5697 82.5052 38.426 82.5827C38.2824 82.6602 38.1601 82.7723 38.0699 82.909C37.8762 83.2968 37.7754 83.7249 37.7754 84.159C37.7754 84.5931 37.8762 85.0211 38.0699 85.409Z" fill="white"/>
<path d="M9.0591 7.36052C8.7428 6.81301 8.33668 6.32336 7.85796 5.91231C7.69225 5.77715 7.50975 5.66429 7.31506 5.5766C7.51846 5.49577 7.71098 5.38958 7.88813 5.26052C8.3906 4.86558 8.80319 4.3669 9.09813 3.79802L10.9823 0.405166C11.0057 0.363772 11.0178 0.31693 11.0175 0.26934C11.0171 0.221749 11.0044 0.175083 10.9805 0.13402C10.9566 0.0929573 10.9223 0.0589422 10.8813 0.035386C10.8402 0.0118298 10.7937 -0.000439434 10.7464 -0.000191142H9.44233C9.22588 -0.000191142 8.9491 0.0658803 8.68297 0.55338L7.36296 2.91767C7.06512 3.5024 6.64507 4.01534 6.13166 4.42124C5.65567 4.7642 5.08294 4.94446 4.49762 4.93552H2.12905V0.273023C2.1293 0.236773 2.12232 0.200842 2.10855 0.167348C2.09477 0.133855 2.07446 0.103479 2.04883 0.0780132C2.0232 0.0525472 1.99276 0.0325069 1.9593 0.0190752C1.92585 0.00564355 1.89006 -0.000907447 1.85405 -0.000191142H0.271459C0.235746 -0.000428412 0.200341 0.00647649 0.1673 0.0201228C0.13426 0.033769 0.104241 0.0538849 0.0789872 0.0793025C0.0537334 0.10472 0.0337472 0.134933 0.0201889 0.168188C0.00663054 0.201444 -0.000229866 0.237078 5.87549e-06 0.273023V10.9409C5.87549e-06 11.0133 0.0286054 11.0828 0.0795128 11.1341C0.13042 11.1853 0.199465 11.2141 0.271459 11.2141H1.85405C1.89 11.2146 1.92568 11.2079 1.95902 11.1943C1.99237 11.1808 2.02271 11.1608 2.0483 11.1353C2.07388 11.1099 2.09419 11.0796 2.10806 11.0463C2.12192 11.0129 2.12906 10.9771 2.12905 10.9409V6.26052H4.49762C5.09658 6.24816 5.68095 6.44716 6.1494 6.82302C6.62754 7.23417 7.03306 7.72383 7.34877 8.27124L8.8462 10.6587C8.95393 10.8235 9.09856 10.9605 9.26846 11.0587C9.39618 11.1476 9.54485 11.2012 9.69959 11.2141H10.9823C11.0304 11.2136 11.0775 11.2004 11.1187 11.1756C11.16 11.1509 11.194 11.1155 11.2173 11.0732C11.2406 11.0309 11.2523 10.9831 11.2512 10.9348C11.2501 10.8864 11.2363 10.8392 11.2112 10.798L9.0591 7.36052Z" fill="#B787B4"/>
<path d="M20.426 0.0090332H13.9502C13.8782 0.0090332 13.8091 0.0378182 13.7582 0.0890558C13.7073 0.140293 13.6787 0.209787 13.6787 0.282248V10.9323C13.6787 11.0047 13.7073 11.0742 13.7582 11.1254C13.8091 11.1767 13.8782 11.2055 13.9502 11.2055H15.5345C15.5701 11.2055 15.6053 11.1984 15.6381 11.1846C15.671 11.1709 15.7008 11.1507 15.7259 11.1253C15.7509 11.0999 15.7707 11.0698 15.7842 11.0367C15.7976 11.0035 15.8044 10.968 15.8042 10.9323V8.47153H20.426C23.5699 8.47153 25.039 7.12689 25.039 4.23939C25.039 1.35189 23.5699 0.0090332 20.426 0.0090332ZM21.9217 6.56618C21.3326 6.95189 20.5254 7.13761 19.4555 7.13761H15.8042V1.34296H19.4555C20.5201 1.34296 21.3326 1.52153 21.9217 1.91439C22.5764 2.34296 22.9081 3.12511 22.9081 4.23582C22.9081 5.34653 22.5764 6.13761 21.9217 6.56618Z" fill="#B787B4"/>
<path d="M52.9619 0.0090332H48.8031C45.8703 0.0090332 44.1902 0.973319 43.6827 2.94475L41.5998 10.8626C41.589 10.9038 41.5879 10.9469 41.5966 10.9886C41.6053 11.0303 41.6236 11.0694 41.65 11.1027C41.6764 11.136 41.7101 11.1626 41.7485 11.1805C41.7869 11.1983 41.829 11.2069 41.8713 11.2055H43.2906C43.4021 11.2033 43.5093 11.1623 43.594 11.0894C43.6887 11.021 43.755 10.9199 43.7803 10.8055L45.732 3.46796C45.8885 2.85134 46.2474 2.30601 46.7504 1.92032C47.2534 1.53463 47.871 1.33119 48.5033 1.34296H51.1238V10.9322C51.1235 10.9682 51.1304 11.0038 51.144 11.0371C51.1575 11.0703 51.1775 11.1005 51.2028 11.126C51.228 11.1514 51.258 11.1715 51.2911 11.1851C51.3241 11.1988 51.3595 11.2057 51.3952 11.2055H52.9778C53.0457 11.1996 53.109 11.1683 53.155 11.1177C53.201 11.0671 53.2265 11.0009 53.2262 10.9322V0.282247C53.2262 0.211007 53.1986 0.142575 53.1492 0.091538C53.0998 0.0405008 53.0326 0.0108957 52.9619 0.0090332Z" fill="#B787B4"/>
<path d="M67.5027 0.00903912H62.9962C60.0582 0.00903912 58.3833 0.973325 57.867 2.94475L55.7912 10.8626C55.7806 10.9031 55.7794 10.9454 55.7876 10.9864C55.7958 11.0274 55.8133 11.0659 55.8387 11.0991C55.8641 11.1322 55.8966 11.159 55.9339 11.1774C55.9712 11.1959 56.0122 11.2055 56.0538 11.2055H57.4731C57.5845 11.2028 57.6915 11.1618 57.7765 11.0894C57.8712 11.021 57.9375 10.92 57.9628 10.8055L58.6406 8.24118H65.6451V10.9323C65.6449 10.9682 65.6518 11.0038 65.6653 11.0371C65.6789 11.0703 65.6989 11.1006 65.7241 11.126C65.7494 11.1514 65.7794 11.1715 65.8124 11.1852C65.8455 11.1988 65.8809 11.2057 65.9166 11.2055H67.4992C67.5352 11.2062 67.571 11.1996 67.6044 11.1862C67.6379 11.1728 67.6683 11.1527 67.694 11.1273C67.7196 11.1018 67.7399 11.0714 67.7537 11.0379C67.7675 11.0044 67.7744 10.9685 67.7742 10.9323V0.282253C67.7744 0.246308 67.7676 0.210674 67.754 0.177419C67.7404 0.144164 67.7205 0.11395 67.6952 0.0885328C67.6699 0.0631151 67.6399 0.0429993 67.6069 0.029353C67.5738 0.0157068 67.5384 0.00880185 67.5027 0.00903912ZM58.9723 6.90725L59.9091 3.46797C60.0657 2.85135 60.4246 2.30601 60.9276 1.92032C61.4306 1.53463 62.0482 1.33119 62.6804 1.34297H65.6451V6.90725H58.9723Z" fill="#B787B4"/>
<path d="M39.022 0.274954C39.0206 0.203899 38.9916 0.136229 38.9412 0.0864788C38.8907 0.0367289 38.8229 0.00886861 38.7523 0.00888246H35.9136C35.7213 0.00902344 35.5324 0.0604988 35.3663 0.15806C35.2002 0.255621 35.0627 0.395778 34.9679 0.56424L29.7092 9.88567V0.282097C29.7092 0.209636 29.6806 0.140143 29.6297 0.0889051C29.5788 0.0376674 29.5097 0.00888246 29.4377 0.00888246H27.9563C27.92 0.00792852 27.884 0.0142905 27.8502 0.0275931C27.8165 0.0408957 27.7857 0.0608693 27.7597 0.0863352C27.7338 0.111801 27.7131 0.142243 27.6991 0.175866C27.685 0.209488 27.6777 0.245609 27.6777 0.282097V10.9321C27.6777 11.0046 27.7063 11.0741 27.7572 11.1253C27.8081 11.1765 27.8772 11.2053 27.9492 11.2053H30.827C31.0137 11.2069 31.1978 11.1596 31.361 11.0682C31.5243 10.9768 31.6612 10.8444 31.7584 10.6839L36.9994 1.3071V10.9321C36.9994 11.0046 37.028 11.0741 37.0789 11.1253C37.1298 11.1765 37.1989 11.2053 37.2709 11.2053H38.7523C38.7887 11.2065 38.825 11.2003 38.8589 11.1871C38.8929 11.1739 38.9239 11.154 38.95 11.1285C38.9762 11.103 38.997 11.0725 39.0112 11.0388C39.0254 11.005 39.0327 10.9687 39.0327 10.9321L39.022 0.274954Z" fill="#B787B4"/>
</g>
<defs>
<clipPath id="clip0">
<rect width="68" height="96" fill="white"/>
</clipPath>
</defs>
</svg>
