<svg width="29" height="150" viewBox="0 0 29 150" fill="none" xmlns="http://www.w3.org/2000/svg">
<g clip-path="url(#clip0)">
<path d="M0.237566 6.52746V6.61137C0.0844284 7.34011 0.00484936 8.08208 0 8.82638C0 13.4993 1.87719 17.9809 5.21861 21.2852C8.56002 24.5895 13.092 26.4458 17.8174 26.4458H29V19.8259H22.3057V6.59458H29V-0.0252876H8.48449C6.5581 -0.0351429 4.68693 0.610773 3.18522 1.80399C1.6835 2.9972 0.642692 4.66505 0.237566 6.52746ZM15.6115 6.61137L15.6115 19.6329C13.0932 19.1242 10.8301 17.7707 9.20507 15.8014C7.58009 13.8321 6.69311 11.3681 6.69427 8.82638C6.69463 8.05225 6.89935 7.29163 7.28818 6.61975L15.6115 6.61137Z" fill="#B787B4"/>
<path d="M0.237566 37.4202V37.5041C0.0849922 38.2273 0.00541319 38.9636 0 39.7023C0 44.3753 1.87719 48.8569 5.21861 52.1612C8.56002 55.4655 13.092 57.3218 17.8174 57.3218H29V50.7019H17.8174C14.8695 50.6953 12.0441 49.5342 9.95959 47.4729C7.87505 45.4115 6.70099 42.6176 6.69427 39.7023C6.69132 38.9304 6.89632 38.1717 7.28818 37.5041H29V30.8591H8.48449C6.55651 30.8481 4.68362 31.4946 3.18141 32.6897C1.67921 33.8848 0.639529 35.5555 0.237566 37.4202Z" fill="#B787B4"/>
<path d="M0 68.3801H11.1571C12.6219 68.3801 14.0723 68.6656 15.4255 69.2201C16.7786 69.7747 18.008 70.5875 19.0434 71.6121C20.0787 72.6368 20.8998 73.8531 21.4595 75.1917C22.0193 76.5302 22.3068 77.9647 22.3057 79.4132C22.2924 79.9993 22.0464 80.5566 21.6209 80.9648C21.1955 81.373 20.6247 81.5992 20.0319 81.5947H0L0 88.2397H20.541C22.4618 88.2442 24.3261 87.5969 25.8224 86.4058C27.3187 85.2147 28.3565 83.552 28.7624 81.6954V81.6199C28.9093 80.8933 28.9832 80.1542 28.983 79.4132C28.9895 75.4007 27.6061 71.507 25.0632 68.3801H28.983V61.7686H0L0 68.3801Z" fill="#B787B4"/>
<path d="M0.000336268 103.678L0.000336268 119.116H3.75048C3.23605 112.185 4.00372 105.219 6.01584 98.5597L6.16856 98.0563C6.20256 97.9419 6.26874 97.8394 6.35939 97.7607C6.45004 97.6821 6.56143 97.6305 6.68057 97.612C6.79972 97.5936 6.92172 97.609 7.03236 97.6564C7.143 97.7039 7.23772 97.7815 7.30549 97.8801C8.40847 99.726 9.93568 103.753 7.59396 109.702L10.8266 101.496C10.87 101.377 10.9469 101.271 11.0484 101.193C11.1499 101.115 11.2718 101.067 11.3998 101.055C11.5278 101.042 11.6568 101.066 11.7716 101.124C11.8864 101.181 11.9824 101.27 12.0483 101.379C13.1174 103.057 14.5428 106.807 11.0471 111.581C11.6495 110.742 13.5925 108.041 14.8652 106.337C14.9371 106.239 15.0349 106.161 15.148 106.113C15.2612 106.065 15.3855 106.048 15.5075 106.064C15.6296 106.081 15.7448 106.13 15.8409 106.206C15.937 106.282 16.0103 106.383 16.053 106.497C16.5956 107.84 16.6726 109.323 16.2719 110.713C15.8712 112.104 15.0154 113.324 13.8385 114.182L17.4954 111.153C17.5861 111.081 17.6941 111.032 17.8092 111.012C17.9242 110.992 18.0425 111.001 18.1529 111.039C18.2633 111.077 18.3622 111.142 18.4401 111.228C18.518 111.314 18.5725 111.418 18.5983 111.531C19.0226 113.335 18.3268 115.541 15.6627 116.917L18.7256 115.34C18.831 115.286 18.9491 115.259 19.068 115.264C19.1868 115.269 19.3023 115.305 19.4029 115.368C19.5034 115.431 19.5855 115.519 19.6408 115.623C19.6962 115.727 19.7229 115.843 19.7183 115.961C19.692 116.657 19.4536 117.33 19.0342 117.89C18.6148 118.45 18.034 118.871 17.3681 119.099H28.9919V112.487H22.3061V103.678C22.3472 102.204 22.0891 100.737 21.5471 99.3631C21.0051 97.9894 20.1902 96.7372 19.1505 95.6803C18.1108 94.6234 16.8674 93.7833 15.4938 93.2096C14.1202 92.636 12.6443 92.3404 11.1532 92.3404C9.66214 92.3404 8.1862 92.636 6.8126 93.2096C5.439 93.7833 4.19561 94.6234 3.15591 95.6803C2.1162 96.7372 1.30127 97.9894 0.759281 99.3631C0.217287 100.737 -0.040778 102.204 0.000336268 103.678Z" fill="#B787B4"/>
<path d="M0 130.149C1.46477 130.148 2.91541 130.432 4.269 130.986C5.62259 131.539 6.85261 132.351 7.88875 133.375C8.9249 134.399 9.74686 135.614 10.3077 136.953C10.8685 138.291 11.1571 139.725 11.1571 141.174V143.38H0L0 150H29V143.38H17.8174V134.562C17.8174 133.392 18.2876 132.269 19.1246 131.441C19.9615 130.614 21.0967 130.149 22.2803 130.149H28.9745V123.529H22.3057C20.3807 123.523 18.4868 124.01 16.8083 124.942C15.1298 125.874 13.7237 127.22 12.7267 128.848C11.0722 127.166 9.09355 125.829 6.9077 124.915C4.72186 124.001 2.37308 123.53 0 123.529L0 130.149Z" fill="#B787B4"/>
</g>
<defs>
<clipPath id="clip0">
<rect width="150" height="29" fill="white" transform="translate(0 150) rotate(-90)"/>
</clipPath>
</defs>
</svg>
