<svg width="150" height="29" viewBox="0 0 150 29" fill="none" xmlns="http://www.w3.org/2000/svg">
<g clip-path="url(#clip0)">
<path d="M143.472 0.237566H143.388C142.659 0.0844284 141.917 0.00484936 141.173 0C136.5 0 132.019 1.87719 128.714 5.21861C125.41 8.56002 123.554 13.092 123.554 17.8174V29H130.174V22.3057H143.405V29H150.025V8.48449C150.035 6.5581 149.389 4.68693 148.196 3.18522C147.002 1.6835 145.334 0.642692 143.472 0.237566ZM143.388 15.6115H130.367C130.875 13.0932 132.229 10.8301 134.198 9.20507C136.167 7.58009 138.631 6.69311 141.173 6.69427C141.947 6.69463 142.708 6.89935 143.38 7.28818L143.388 15.6115Z" fill="#B787B4"/>
<path d="M112.579 0.237566H112.495C111.772 0.0849922 111.036 0.00541319 110.297 0C105.624 0 101.143 1.87719 97.8383 5.21861C94.5341 8.56002 92.6777 13.092 92.6777 17.8174V29H99.2976V17.8174C99.3043 14.8695 100.465 12.0441 102.527 9.95959C104.588 7.87505 107.382 6.70099 110.297 6.69427C111.069 6.69132 111.828 6.89632 112.495 7.28818V29H119.14V8.48449C119.151 6.55651 118.505 4.68362 117.31 3.18141C116.115 1.67921 114.444 0.639529 112.579 0.237566Z" fill="#B787B4"/>
<path d="M81.6204 0V11.1571C81.6204 12.6219 81.3349 14.0723 80.7804 15.4255C80.2258 16.7786 79.413 18.008 78.3883 19.0434C77.3637 20.0787 76.1474 20.8998 74.8088 21.4595C73.4703 22.0193 72.0357 22.3068 70.5873 22.3057C70.0012 22.2924 69.4439 22.0464 69.0357 21.6209C68.6275 21.1955 68.4012 20.6247 68.4058 20.0319V0L61.7608 0V20.541C61.7563 22.4618 62.4036 24.3261 63.5947 25.8224C64.7858 27.3187 66.4485 28.3565 68.3051 28.7624H68.3806C69.1072 28.9093 69.8463 28.9832 70.5873 28.983C74.5998 28.9895 78.4935 27.6061 81.6204 25.0632V28.983H88.2319V0L81.6204 0Z" fill="#B787B4"/>
<path d="M46.3227 9.21274e-05H30.8848V3.75024C37.816 3.23581 44.7818 4.00348 51.4408 6.0156L51.9442 6.16832C52.0586 6.20231 52.1611 6.26849 52.2398 6.35914C52.3184 6.44979 52.37 6.56118 52.3885 6.68033C52.4069 6.79948 52.3915 6.92148 52.3441 7.03212C52.2966 7.14276 52.219 7.23748 52.1204 7.30524C50.2745 8.40823 46.2472 9.93543 40.2986 7.59371L48.5042 10.8263C48.6239 10.8697 48.729 10.9467 48.8072 11.0482C48.8854 11.1496 48.9334 11.2715 48.9457 11.3996C48.958 11.5276 48.9341 11.6565 48.8767 11.7714C48.8193 11.8862 48.7309 11.9821 48.6216 12.0481C46.9436 13.1171 43.1932 14.5425 38.4192 11.0469C39.2582 11.6493 41.9598 13.5923 43.663 14.8649C43.7619 14.9368 43.8396 15.0346 43.8878 15.1478C43.9359 15.2609 43.9527 15.3852 43.9363 15.5073C43.9199 15.6293 43.871 15.7446 43.7948 15.8407C43.7185 15.9368 43.6179 16.0101 43.5036 16.0528C42.1608 16.5954 40.678 16.6724 39.2873 16.2717C37.8966 15.8709 36.6765 15.0152 35.8182 13.8383L38.8471 17.4951C38.9198 17.5859 38.9685 17.6939 38.9885 17.8089C39.0085 17.924 38.9991 18.0423 38.9614 18.1527C38.9236 18.2631 38.8586 18.3619 38.7725 18.4399C38.6864 18.5178 38.5822 18.5723 38.4695 18.5981C36.6656 19.0223 34.459 18.3266 33.083 15.6625L34.6604 18.7254C34.7149 18.8308 34.741 18.9489 34.7362 19.0677C34.7313 19.1866 34.6957 19.3021 34.6328 19.4026C34.5699 19.5032 34.482 19.5852 34.3779 19.6406C34.2737 19.696 34.157 19.7227 34.0395 19.7181C33.3431 19.6918 32.6709 19.4533 32.1109 19.0339C31.5509 18.6145 31.1294 18.0338 30.9015 17.3679V28.9916H37.513V22.3058H46.3227C47.7967 22.3469 49.2638 22.0889 50.6374 21.5469C52.0111 21.0049 53.2633 20.19 54.3202 19.1503C55.3771 18.1106 56.2172 16.8672 56.7909 15.4936C57.3645 14.12 57.6601 12.644 57.6601 11.153C57.6601 9.66189 57.3645 8.18595 56.7909 6.81235C56.2172 5.43876 55.3771 4.19537 54.3202 3.15566C53.2633 2.11596 52.0111 1.30103 50.6374 0.759037C49.2638 0.217042 47.7967 -0.0410222 46.3227 9.21274e-05Z" fill="#B787B4"/>
<path d="M19.8512 0C19.8523 1.46477 19.568 2.91541 19.0144 4.269C18.4609 5.62259 17.649 6.85261 16.6251 7.88875C15.6013 8.9249 14.3855 9.74686 13.0474 10.3077C11.7093 10.8685 10.275 11.1571 8.82649 11.1571H6.61987V0L0 0L0 29H6.61987V17.8174H15.438C16.6084 17.8174 17.731 18.2876 18.5586 19.1246C19.3862 19.9615 19.8512 21.0967 19.8512 22.2803V28.9745H26.4711V22.3057C26.477 20.3807 25.9902 18.4868 25.0581 16.8083C24.126 15.1298 22.7802 13.7237 21.1517 12.7267C22.8339 11.0722 24.1713 9.09355 25.0849 6.9077C25.9986 4.72186 26.4699 2.37308 26.4711 0L19.8512 0Z" fill="#B787B4"/>
</g>
<defs>
<clipPath id="clip0">
<rect width="150" height="29" fill="white"/>
</clipPath>
</defs>
</svg>
