<svg width="513" height="283" viewBox="0 0 513 283" fill="none" xmlns="http://www.w3.org/2000/svg">
<g clip-path="url(#clip0_1010_2014)">
<path d="M18.9805 248.331C17.1416 248.331 15.237 248.265 13.3324 248.199C11.0337 248.068 9.45743 247.543 8.34093 246.624C7.22443 245.507 6.69901 244.063 6.43631 241.83C2.75842 213.071 1.37921 188.119 2.36436 167.567C3.41518 144.52 3.48086 122.458 2.49571 102.037C2.03597 93.3045 1.57624 82.6674 1.18218 69.6664L0 36.8358L1.1165 33.5527L7.61849 33.9467C18.7835 35.0629 31.4591 37.8207 45.3169 42.22C53.5921 44.8465 59.8971 51.0186 64.0347 60.5395C66.1363 65.1358 67.7783 71.5706 68.8948 79.5156C70.9307 93.7641 67.1215 106.24 57.6641 116.746C51.6875 123.443 45.6452 128.827 39.8 132.833C39.8 132.833 39.5373 133.03 38.2238 134.08L38.8806 134.408C40.1941 134.868 41.3106 135.328 42.1644 135.722L52.2786 139.53L55.037 140.975C64.3631 145.833 71.5875 152.925 76.6446 162.117C81.8987 171.835 83.869 182.275 82.4241 193.044C80.2568 208.212 75.3311 221.41 67.7783 232.375C64.7571 236.84 60.8822 240.189 56.2192 242.29C49.2575 245.442 38.9462 247.346 24.4974 248.199C22.7241 248.265 20.8195 248.331 18.9805 248.331ZM11.3621 243.34C11.4277 243.34 11.9531 243.669 13.5951 243.734C17.2073 243.931 20.7538 243.931 24.3003 243.734C37.9611 242.946 48.0753 241.108 54.3802 238.219C58.2552 236.446 61.539 233.623 64.1004 229.814C71.2591 219.44 75.9878 206.833 78.0238 192.387C79.3373 182.538 77.4984 173.017 72.704 164.153C68.1066 155.748 61.4076 149.248 52.9353 144.783L50.4396 143.47L40.3911 139.661C39.4716 139.202 38.4208 138.808 37.173 138.348L35.0713 137.429C34.4145 137.166 33.6264 136.904 32.9697 136.575L29.4888 135.065L32.4442 132.767C35.2683 130.6 36.7789 129.418 36.9759 129.221C42.7555 125.282 48.535 120.094 54.3146 113.659C62.9839 104.073 66.2677 93.0418 64.4288 80.0409C63.3779 72.4899 61.8674 66.5147 59.9627 62.3124C56.3505 53.8421 51.0964 48.7205 44.0033 46.4223C30.4083 42.1544 18.0611 39.3966 7.2901 38.346L4.53169 38.149L5.64819 69.4038C6.04225 82.4047 6.50198 92.9762 6.96172 101.709C7.94687 122.327 7.88119 144.52 6.83037 167.699C5.84522 187.988 7.22443 212.742 10.9023 241.239C11.0337 242.749 11.2964 243.209 11.3621 243.34Z" fill="#FBB040"/>
<path d="M152.173 283H124.917V267.964C125.508 254.24 125.902 240.123 126.099 226.006C126.165 222.198 126.165 217.536 126.099 211.954L125.771 195.408C125.771 194.16 125.836 193.241 126.033 192.453C126.23 191.206 125.705 189.564 124.392 187.791L97.07 151.218C94.2459 147.409 90.3053 142.025 85.5109 135.131L83.0152 131.388C81.9644 129.681 81.1763 127.974 80.7166 126.267L79.9284 123.443H86.6931L101.47 124.297C104.623 124.428 106.33 126.004 107.184 127.317L137.001 169.734C137.395 170.26 137.987 171.048 138.643 172.032L138.84 172.229L147.181 162.183C151.122 157.456 154.471 153.45 157.098 150.233V150.167L178.509 125.282L179.56 125.347C182.844 125.479 189.083 125.676 198.278 126.004L202.087 126.135L200.117 129.353C199.92 129.681 199.723 130.009 199.526 130.403L199 131.454C198.606 132.242 198.212 132.898 197.884 133.424L190.397 143.732C187.441 147.803 184.88 151.218 182.712 153.976C179.034 158.441 174.371 164.022 168.723 170.654L154.734 187.135C152.895 189.367 151.319 191.337 150.137 192.978L152.173 283ZM129.383 278.535H147.641L145.605 191.534L146.065 190.943C147.378 189.104 149.152 186.872 151.319 184.245L165.439 167.699C171.022 161.133 175.685 155.551 179.297 151.152C181.399 148.46 183.96 145.111 186.85 141.106L194.271 130.863C194.337 130.732 194.468 130.535 194.6 130.272C188.163 130.075 183.435 129.878 180.414 129.812L160.448 153.056C157.821 156.274 154.471 160.279 150.531 165.007L138.578 179.321L135.031 174.659C134.309 173.608 133.783 172.886 133.324 172.295L103.375 129.747C103.047 129.221 102.521 128.696 101.142 128.63L86.4304 127.777H85.9707C86.1677 128.171 86.3647 128.565 86.6274 128.893L89.0575 132.439C93.8519 139.333 97.7268 144.717 100.551 148.46L127.807 185.033C129.908 187.857 130.762 190.615 130.237 193.241C130.105 193.832 130.04 194.423 130.04 195.211L130.171 197.509L130.368 211.823C130.434 217.47 130.434 222.198 130.368 226.006C130.171 240.189 129.777 254.306 129.186 268.029V278.535H129.383Z" fill="#FBB040"/>
<path d="M293.377 234.936C291.604 234.936 290.225 234.542 289.24 233.688C287.926 232.638 287.204 230.865 287.007 228.238L286.022 217.273C285.693 212.677 285.431 209.131 285.036 206.373L276.499 141.631L271.179 109.063C270.325 104.401 268.026 102.563 263.495 103.088C259.291 103.548 254.168 104.204 248.126 105.058C248.061 114.119 247.272 127.777 245.631 145.702C243.463 170.128 239.063 189.367 232.495 202.893C229.934 208.015 227.175 212.283 224.154 215.5C221.987 217.864 219.754 219.768 217.521 221.081C215.813 222.657 214.04 224.102 212.267 225.349L205.83 229.42C203.203 231.062 200.708 232.178 198.475 232.769C197.49 233.032 196.373 233.229 194.994 233.491L185.077 234.936C181.924 235.133 179.823 233.36 179.363 230.011L178.837 224.102C178.64 221.738 178.772 220.293 179.363 219.309C179.888 218.521 180.742 217.798 183.238 216.551C186.587 214.909 189.74 213.268 192.432 211.692C192.564 211.626 192.958 211.364 193.615 210.641L199.131 205.388C199.46 205.06 199.788 204.666 200.051 204.338L203.992 197.837C205.371 195.408 206.553 193.175 207.604 191.271C208.655 189.039 209.902 186.15 211.413 182.67L215.091 173.937C217.652 168.093 219.163 161.198 219.688 153.516L222.25 104.401C222.381 101.25 222.512 98.6888 222.709 96.6533C222.906 94.6178 223.497 92.1884 224.68 89.2993C225.008 88.577 225.533 87.8547 226.387 87.2638C227.11 86.7385 227.832 86.4102 228.62 86.1475C234.006 84.506 239.129 83.0614 243.857 81.8139L249.899 80.3037C252.592 79.7127 254.563 79.2531 255.942 78.9248C261.656 77.3489 269.602 76.2327 279.651 75.6417L289.831 74.9851L292.983 75.4447L293.377 76.8236C293.837 78.3995 295.216 88.0517 302.047 154.107C309.731 227.779 309.468 229.814 309.402 230.602L309.205 231.916L306.447 233.032C305.396 233.491 304.608 233.688 303.951 233.754C300.996 234.279 298.04 234.608 295.085 234.87C294.363 234.936 293.903 234.936 293.377 234.936ZM264.874 98.5575C270.653 98.5575 274.463 101.972 275.579 108.341L276.367 113.003L280.899 140.975L289.568 205.848C289.962 208.671 290.225 212.348 290.553 217.01L291.538 227.91C291.67 229.88 292.13 230.274 292.13 230.274C292.13 230.274 292.655 230.668 294.56 230.405C297.449 230.208 300.339 229.814 303.163 229.355C303.426 229.289 303.82 229.223 304.542 228.961L304.871 228.829C304.608 224.299 303.032 206.833 297.581 154.501C292.13 102.103 290.028 84.2433 289.305 79.3844L279.914 80.041C270.128 80.632 262.509 81.6826 257.058 83.1928C255.613 83.5867 253.577 84.0464 250.885 84.6373L244.908 86.1475C240.245 87.3951 235.188 88.8396 229.802 90.4155C229.54 90.4812 229.211 90.6125 228.949 90.8751C227.766 93.4359 227.175 95.4714 227.044 96.9816C226.913 98.9515 226.781 101.512 226.65 104.533L225.271 133.03L224.089 153.713C223.563 161.921 221.921 169.275 219.163 175.578L215.485 184.245C213.974 187.791 212.661 190.746 211.544 193.044C210.494 195.08 209.246 197.312 207.801 199.873L203.795 206.505C203.4 207.096 202.875 207.752 202.153 208.474L196.898 213.53C196.176 214.318 195.454 214.975 194.731 215.369C191.907 217.01 188.689 218.718 185.208 220.425C184.092 220.95 183.566 221.278 183.303 221.475C183.303 221.804 183.238 222.395 183.369 223.511L183.895 229.289C184.026 230.34 184.289 230.34 184.748 230.274L194.468 228.895C195.651 228.698 196.636 228.501 197.424 228.304C199.263 227.779 201.364 226.86 203.597 225.415L209.968 221.41C211.61 220.293 213.252 218.98 214.828 217.47L215.288 217.142C217.193 216.025 219.163 214.384 221.067 212.283C223.826 209.328 226.387 205.454 228.686 200.726C234.991 187.725 239.26 169.012 241.427 145.111C243.135 126.004 243.989 111.821 243.923 102.957V100.987L245.828 100.724C252.724 99.7394 258.634 98.9515 263.298 98.4262C263.626 98.6232 264.283 98.5575 264.874 98.5575Z" fill="#FBB040"/>
<path d="M400.824 235.199L374.094 232.178L375.867 176.563C375.933 172.098 375.867 167.896 375.736 164.088L372.715 171.048L358.135 201.58C353.406 211.429 349.794 219.243 347.232 224.824C345.853 227.976 343.226 229.552 340.008 229.355L326.084 228.37C323.983 228.304 322.604 227.845 321.75 226.991C320.83 225.94 320.436 224.496 320.436 222.395L320.305 196.656L320.436 170.982C320.502 166.123 320.633 160.214 320.896 153.253L323.26 74.6569C323.392 72.1618 323.786 70.7172 324.639 69.798C325.953 68.4847 328.186 68.4847 329.762 68.6161L338.563 69.1414C342.044 69.3383 345.131 69.8636 347.692 70.6516C350.122 71.3738 351.436 72.0305 352.092 72.884C352.88 73.8033 353.143 75.2479 353.143 77.8743L352.683 93.0421L350.188 145.899L350.056 157.981L359.448 138.414L368.643 119.044C376.13 103.154 381.778 89.956 385.39 79.7785L386.704 76.5611C387.689 74.1316 389.725 72.7527 392.286 72.9497L401.547 73.1467C405.29 73.2124 408.443 73.3437 411.004 73.475C413.237 73.6063 414.945 74.3943 416.061 75.7075C417.243 77.152 417.769 79.1219 417.506 81.617L412.777 141.5C411.858 151.218 410.807 161.461 409.625 172.164L407.261 189.301L406.275 199.151C405.816 203.353 405.487 206.636 405.159 209L400.824 235.199ZM378.691 228.173L397.475 230.34L400.824 208.278C401.087 205.979 401.481 202.696 401.875 198.56L402.86 188.645L405.225 171.507C406.341 160.87 407.392 150.693 408.311 140.975L413.04 81.026C413.106 80.1724 413.106 78.9905 412.646 78.3996C412.318 78.0056 411.661 77.743 410.742 77.743C408.246 77.6117 405.159 77.4803 401.481 77.4147L392.221 77.2177C391.498 77.152 391.17 77.2834 390.907 78.0713L389.594 81.223C385.981 91.4005 380.268 104.795 372.715 120.817L350.582 167.042L346.313 166.189L345.787 161.001V153.319L345.919 145.768L348.743 85.294L348.874 77.8086C348.874 76.6267 348.808 76.0358 348.743 75.7075C348.414 75.5762 347.823 75.3135 346.575 74.9195C344.408 74.2629 341.65 73.8033 338.432 73.6063L329.631 73.081C328.777 73.0154 328.317 73.0154 328.055 73.081C327.989 73.4093 327.923 73.9346 327.858 74.8539L325.493 153.45C325.296 160.41 325.165 166.32 325.034 171.113L324.902 196.721L325.034 222.46C325.034 223.183 325.099 223.642 325.165 223.839C325.428 223.905 325.822 223.971 326.478 223.971L340.468 224.956C341.847 225.087 342.701 224.496 343.292 223.051C345.853 217.404 349.531 209.525 354.194 199.676L372.846 159.82C373.043 159.294 373.372 158.703 373.831 158.309C374.488 157.587 375.736 156.668 377.772 156.668H379.874L380.005 158.703C380.333 163.825 380.53 169.866 380.465 176.563L378.691 228.173Z" fill="#FBB040"/>
<path d="M494.611 235.002L482.329 234.017C480.753 233.951 478.388 233.229 476.944 230.143C472.018 219.571 467.026 208.934 461.969 198.231L449.162 171.507L449.359 189.564L449.031 226.006C448.834 227.91 448.506 228.961 447.914 229.683L447.586 230.011C446.798 230.668 445.681 230.931 443.908 230.931L424.665 229.749C421.709 229.486 420.002 227.582 420.002 224.627L420.133 220.162L423.68 157.653C424.862 134.54 425.453 109.589 425.322 83.5868V81.42C425.453 78.5966 427.226 76.9551 429.919 76.9551L436.487 76.8237C439.114 76.8237 441.347 76.8894 443.186 76.9551C446.01 77.152 448.309 78.3996 450.148 80.6977C451.921 82.8646 452.775 85.3597 452.775 87.9861C452.709 89.4964 452.709 91.3349 452.906 93.6987L453.234 99.6082C453.3 105.912 453.3 111.362 453.103 115.958C453.037 117.599 452.906 119.832 452.643 122.655L452.118 129.221C452.118 129.55 452.183 130.338 452.249 131.257L452.315 131.717L455.402 131.585L459.539 128.171C465.187 123.706 468.997 118.847 470.967 113.66C474.908 103.285 481.278 94.0926 489.882 86.1476L490.801 85.2284C491.524 84.6374 492.049 84.3091 492.64 84.1121C494.939 83.2585 497.829 82.7332 501.113 82.5363L505.119 82.4049C506.892 82.4049 508.271 82.4049 509.191 82.2736L513.066 82.011L510.242 87.7235L509.782 88.0518C503.477 92.5168 498.42 97.8353 494.873 103.745C493.691 105.715 492.509 108.275 491.261 111.23L486.861 122.655L485.81 126.201C484.759 129.418 483.708 131.848 482.46 133.621L479.505 138.283C478.191 140.187 476.944 141.697 475.827 143.01C472.74 146.425 469.194 148.723 465.319 149.905C462.101 150.824 461.444 151.546 461.378 151.678C461.444 151.678 461.444 152.728 463.283 155.814L471.689 169.603L489.488 201.711L497.041 216.617C497.5 217.47 497.632 218.389 497.435 219.243C497.435 219.965 497.632 221.147 498.091 222.526L499.602 226.86C499.799 227.451 499.996 228.042 500.259 228.764L502.229 233.229L497.369 234.542C496.252 234.87 495.399 235.002 494.611 235.002ZM447.717 160.87L450.476 164.35C450.804 164.678 451.133 165.204 451.33 165.729L465.976 196.327C471.098 207.03 476.09 217.667 481.016 228.239C481.541 229.355 482.132 229.486 482.657 229.552L494.808 230.537C494.873 230.537 495.333 230.471 496.055 230.34C495.727 229.42 495.53 228.764 495.333 228.239L493.888 224.036C493.231 222.132 492.903 220.359 493.034 218.783L492.443 217.339L485.153 203.156L467.814 171.967L459.408 158.244C457.241 154.501 456.518 152.137 457.175 150.364C457.766 148.394 459.933 147.016 464.071 145.834C467.158 144.914 470.048 143.01 472.543 140.253C473.528 139.136 474.645 137.692 475.827 136.05L478.782 131.388C479.768 129.944 480.687 127.843 481.541 125.085L482.592 121.473L487.058 109.786C488.437 106.568 489.75 103.876 490.998 101.709C494.282 96.2595 498.551 91.3349 503.937 87.0669L501.178 87.1325C498.354 87.2639 495.99 87.6578 494.151 88.3801C494.085 88.3801 493.888 88.5114 493.691 88.7084L492.903 89.4964C484.693 96.9817 478.717 105.649 475.105 115.367C472.872 121.276 468.603 126.726 462.363 131.717L457.044 136.05L448.243 136.378L447.849 131.717C447.783 130.6 447.717 129.747 447.717 129.156L448.243 122.393C448.44 119.635 448.571 117.468 448.703 115.892C448.834 111.427 448.9 106.043 448.834 99.8708L448.506 94.1583C448.374 91.5975 448.309 89.562 448.374 88.0518C448.374 86.5416 447.849 85.0314 446.667 83.6525C445.616 82.3393 444.434 81.6827 442.989 81.5513C441.281 81.4857 439.114 81.42 436.552 81.42L429.985 81.5513L429.788 83.7182C429.919 109.786 429.394 134.803 428.146 158.047L424.468 224.824C424.468 225.218 424.534 225.349 424.534 225.349C424.534 225.349 424.665 225.415 424.993 225.415L444.04 226.597C444.237 226.597 444.368 226.597 444.499 226.597C444.565 226.4 444.565 226.137 444.631 225.743L444.696 218.98L444.893 189.63L444.696 167.305C444.893 165.729 445.353 164.547 446.01 163.497L447.717 160.87Z" fill="#FBB040"/>
<path d="M136.607 97.8351C137.067 97.3099 137.593 96.7189 138.249 95.931L139.037 94.9461L139.891 93.9611C140.417 93.9611 141.402 94.0268 142.847 94.0925C142.781 94.1581 142.781 94.2238 142.715 94.2894L142.65 94.4864C142.584 94.6177 142.518 94.6834 142.518 94.7491L141.927 95.537L141.336 96.3249C140.876 96.9815 140.482 97.5068 140.154 97.9008C139.563 98.6231 138.84 99.4767 137.987 100.527L136.87 101.84L135.754 103.154C135.425 103.548 135.162 103.942 134.965 104.204L135.294 118.19H131.682V116.22C131.747 114.053 131.813 111.821 131.879 109.589C131.879 108.998 131.879 108.275 131.879 107.356L131.813 105.124V104.73C131.813 104.598 131.813 104.467 131.879 104.336C131.944 104.007 131.813 103.679 131.55 103.285L129.383 100.396L127.216 97.5068C126.756 96.9159 126.165 96.0623 125.377 94.9461L125.18 94.6834L124.983 94.4208C124.851 94.1581 124.72 93.9611 124.654 93.6985H124.851H124.983C125.114 93.6985 125.18 93.6985 125.245 93.6985L126.427 93.7642L127.61 93.8298C127.872 93.8298 128.135 93.9611 128.266 94.1581L130.631 97.5068L132.995 100.856C133.061 100.921 133.126 101.053 133.258 101.184L133.389 101.381L133.521 101.578L134.309 100.593L135.097 99.608C135.688 99.017 136.213 98.3604 136.607 97.8351Z" fill="black"/>
<path d="M193.286 3.74275C193.483 3.4801 193.812 3.1518 194.14 2.75783L194.6 2.23254L195.06 1.70725C195.322 1.70725 195.848 1.70725 196.636 1.77291C196.636 1.77291 196.57 1.83857 196.57 1.90423L196.504 1.9699C196.504 2.03556 196.439 2.10122 196.439 2.10122L196.11 2.56085L195.782 2.95481C195.519 3.28312 195.322 3.54577 195.125 3.80841C194.797 4.20238 194.403 4.66201 193.943 5.1873L193.418 5.90957L192.827 6.56618C192.63 6.76317 192.498 6.96015 192.367 7.09147L192.564 14.4455H190.659V13.395C190.725 12.2131 190.725 11.0968 190.725 9.91491C190.725 9.5866 190.725 9.19263 190.725 8.733V7.5511V7.35412C190.725 7.28846 190.725 7.2228 190.725 7.15713C190.725 6.96015 190.725 6.82883 190.528 6.63184L189.411 5.12164L188.295 3.61143C188.032 3.28312 187.769 2.82349 187.31 2.2982L187.178 2.16688L187.113 1.9699C187.047 1.83857 186.981 1.70725 186.916 1.57593H187.047H187.113C187.178 1.57593 187.244 1.57593 187.244 1.57593L187.835 1.64159L188.426 1.70725C188.558 1.70725 188.689 1.77291 188.755 1.90423L190.002 3.67709L191.25 5.44994C191.316 5.5156 191.316 5.58126 191.382 5.64693L191.447 5.77825L191.513 5.90957L191.907 5.38428L192.301 4.85899C192.827 4.39936 193.089 4.07106 193.286 3.74275Z" fill="black"/>
<path d="M165.177 0.131262C165.833 0.262584 166.228 0.525229 166.49 0.984858C166.753 1.44449 166.687 1.96978 166.425 2.56073L163.863 7.354L161.302 12.1473L161.105 12.4099L160.973 12.7382C160.579 13.9201 159.923 15.4303 159.003 17.2688L157.887 19.5013C157.493 20.3549 157.164 21.0772 156.901 21.7338C156.376 23.047 156.179 24.6886 156.376 26.7241C156.442 27.315 156.442 28.0373 156.376 28.9565L156.31 30.0728V31.189L156.376 34.5378L156.442 37.8865C156.442 38.2804 156.442 38.7401 156.376 39.2654L156.31 40.6442L156.048 44.3213L155.851 47.9983V49.1802L155.916 50.4278C155.916 51.4127 155.916 52.2006 155.916 52.7916C155.719 55.1554 154.734 56.7969 152.961 57.5848C152.37 57.8475 151.844 57.9788 151.385 57.8475C149.677 57.3222 148.626 56.3373 148.232 54.9584L147.969 53.9735L147.707 52.9886C147.575 52.2663 147.51 51.544 147.575 50.9531C147.641 50.5591 147.641 50.0338 147.575 49.4429L147.51 48.6549L147.444 47.9326L147.313 45.8971C147.247 45.1092 147.247 44.4526 147.247 43.8616C147.247 40.2503 147.378 35.26 147.51 28.8909C147.51 27.7746 147.575 26.5927 147.707 25.2795C147.904 22.9814 147.444 21.2085 146.459 19.8953C146.196 19.6326 145.999 19.2387 145.802 18.7134L145.539 18.0568L145.277 17.4002C144.62 15.5617 143.175 13.5918 141.008 11.425C139.825 10.2431 138.775 9.06119 137.855 7.87929C137.395 7.22268 136.804 6.36908 136.082 5.3185L135.228 4.07094L134.374 2.82337C133.849 2.1011 133.718 1.37883 133.915 0.656552C135.622 -0.197044 137.395 -0.131383 139.3 0.919196L140.285 1.44449L141.27 1.90412C141.993 2.29808 142.584 2.69205 143.044 3.08602C143.438 3.34866 143.897 3.80829 144.423 4.26792C144.686 4.53056 145.08 4.99019 145.605 5.64681C145.802 5.90945 145.999 6.23776 146.196 6.63172L146.459 7.15701L146.722 7.6823C147.772 9.91479 149.349 12.0816 151.516 14.1828L151.844 13.8545C151.976 13.7231 152.041 13.6575 152.041 13.5262C154.34 9.06119 157.295 5.25284 160.973 2.1011C161.499 1.64147 162.024 1.2475 162.615 0.853535C163.206 0.131262 164.192 -0.0657221 165.177 0.131262Z" fill="black"/>
<path d="M207.078 52.9229C207.538 52.9885 207.801 53.2512 207.998 53.5138C208.195 53.8421 208.129 54.2361 207.932 54.63L206.093 57.9788L204.32 61.3275L204.189 61.5245L204.123 61.7215C203.86 62.5094 203.4 63.6256 202.744 64.8732L201.956 66.4491C201.693 67.04 201.43 67.5653 201.233 68.0249C200.839 68.9442 200.708 70.1261 200.839 71.505C200.905 71.899 200.905 72.4243 200.839 73.0809V73.8688V74.6567L200.905 77.0205L200.97 79.3843C200.97 79.647 200.97 79.9753 200.905 80.3693L200.839 81.2885L200.642 83.8493L200.511 86.4101V87.2637V88.1173C200.511 88.8396 200.511 89.3649 200.511 89.7588C200.379 91.4004 199.657 92.5166 198.409 93.1075C197.949 93.3045 197.621 93.3702 197.293 93.3045C196.11 92.9106 195.388 92.2539 195.125 91.269L194.928 90.5468L194.731 89.8245C194.665 89.2992 194.6 88.8396 194.665 88.3799C194.731 88.1173 194.731 87.7233 194.665 87.3294L194.6 86.8041L194.534 86.2788L194.468 84.8342C194.403 84.3089 194.403 83.7836 194.468 83.3897C194.468 80.8946 194.534 77.4145 194.665 72.9495C194.665 72.1616 194.731 71.308 194.797 70.3887C194.928 68.7472 194.6 67.4997 193.877 66.6461C193.68 66.4491 193.549 66.1864 193.418 65.8581L193.221 65.3985L193.024 64.9389C192.564 63.6256 191.579 62.2468 190.068 60.7365C189.214 59.9486 188.492 59.095 187.835 58.2414C187.507 57.7818 187.113 57.1908 186.587 56.4686L185.996 55.5493L185.405 54.63C185.077 54.1048 184.945 53.5795 185.077 53.1198C186.259 52.5289 187.507 52.5945 188.886 53.3168L189.543 53.7108L190.199 54.0391C190.725 54.3017 191.119 54.5644 191.447 54.827C191.776 55.024 192.038 55.2867 192.367 55.6806C192.564 55.8776 192.827 56.2059 193.155 56.5999C193.286 56.7969 193.418 56.9939 193.549 57.2565L193.746 57.6505L193.943 58.0444C194.665 59.6203 195.782 61.1305 197.293 62.5751L197.49 62.3781C197.555 62.3124 197.621 62.2468 197.621 62.1811C199.197 59.0294 201.299 56.4029 203.86 54.1704C204.254 53.8421 204.583 53.5795 204.977 53.3168C205.699 52.9229 206.356 52.7915 207.078 52.9229Z" fill="black"/>
</g>
<defs>
<clipPath id="clip0_1010_2014">
<rect width="513" height="283" fill="white"/>
</clipPath>
</defs>
</svg>
