<svg width="882" height="580" viewBox="0 0 882 580" fill="none" xmlns="http://www.w3.org/2000/svg">
<path d="M833.224 514.347C870.233 351.709 886.295 185.014 881.021 18.3093C605.291 -19.1895 316.964 -0.0273271 32.2701 84.4878C26.3491 86.247 20.4552 88.028 14.5883 89.831C-3.42953 95.3979 -3.89671 117.797 8.46783 129.675C53.8714 173.304 143.621 220.417 328.201 178.366C217.491 221.316 196.952 229.186 136.573 252.669C118.038 259.857 115.555 284.84 132.372 295.28C192.777 332.651 313.141 372.052 437.867 299.909C408.724 320.688 367.588 348.905 307.379 393.568C292.053 404.925 295.281 428.528 313.172 435.09C372.222 456.868 459.136 485.089 556.833 386.712C513.846 440.441 505.251 452.188 477.598 485.204C466.091 498.989 473.424 519.621 490.936 523.672C554.651 538.567 618.617 515.57 681.131 421.225C657.128 467.134 639.005 501.855 625.309 528.023C616.852 544.226 628.993 563.358 647.393 562.771C691.981 561.406 733.69 536.399 767.281 456.575C757.778 486.454 748.943 520.068 740.772 549.736C735.925 567.235 751.684 583.685 769.459 579.276L771.057 578.89C802.208 570.777 826.088 545.735 833.224 514.347Z" fill="#C4C4C4"/>
</svg>
